<svg width="35" height="35" viewBox="0 0 35 35" fill="none" xmlns="http://www.w3.org/2000/svg">
<path d="M16.9494 13.0171H20.3393V8.13571H25.4241V4.88143H20.3393V0H16.9494V4.88143H11.8646V8.13571H16.9494V13.0171ZM10.1696 27.6614C8.30521 27.6614 6.79671 29.1259 6.79671 30.9157C6.79671 32.7056 8.30521 34.17 10.1696 34.17C12.0341 34.17 13.5595 32.7056 13.5595 30.9157C13.5595 29.1259 12.0341 27.6614 10.1696 27.6614ZM27.119 27.6614C25.2546 27.6614 23.7461 29.1259 23.7461 30.9157C23.7461 32.7056 25.2546 34.17 27.119 34.17C28.9835 34.17 30.5089 32.7056 30.5089 30.9157C30.5089 29.1259 28.9835 27.6614 27.119 27.6614ZM10.4578 22.3732L10.5086 22.178L12.0341 19.5257H24.6614C25.9326 19.5257 27.0512 18.8586 27.6275 17.8498L34.17 6.44349L31.2208 4.88143H31.2039L29.3394 8.13571L24.6614 16.2714H12.7629L12.5426 15.8321L8.74589 8.13571L7.1357 4.88143L5.54246 1.62714H0V4.88143H3.38988L9.49167 17.2314L7.2035 21.2179C6.93231 21.6735 6.77976 22.2105 6.77976 22.78C6.77976 24.5699 8.30521 26.0343 10.1696 26.0343H30.5089V22.78H10.8815C10.6612 22.78 10.4578 22.601 10.4578 22.3732Z" fill="white"/>
</svg>
