<svg width="24" height="24" xmlns="http://www.w3.org/2000/svg">

 <g>
  <title>Layer 1</title>
  <path fill="#fff" id="svg_1" d="m2,21l6,0a1,1 0 0 0 0,-2l-4.929,0a7.011,7.011 0 0 1 6.929,-6a5.044,5.044 0 1 0 -3.377,-1.337a9.01,9.01 0 0 0 -5.623,8.337a1,1 0 0 0 1,1zm8,-16a3,3 0 1 1 -3,3a3,3 0 0 1 3,-3zm10.207,4.293a1,1 0 0 0 -1.414,0l-6.25,6.25a1.011,1.011 0 0 0 -0.241,0.391l-1.25,3.75a1,1 0 0 0 0.948,1.316a1.014,1.014 0 0 0 0.316,-0.051l3.75,-1.25a1,1 0 0 0 0.391,-0.242l6.25,-6.25a1,1 0 0 0 0,-1.414l-2.5,-2.5zm-5,8.583l-1.629,0.543l0.543,-1.629l5.379,-5.376l1.086,1.086l-5.379,5.376z"/>
 </g>
</svg>