<svg width="38" height="40" viewBox="0 0 38 40" fill="none" xmlns="http://www.w3.org/2000/svg">
<path d="M18.7542 9.7445C13.4335 9.7445 9.1418 14.3233 9.1418 20C9.1418 25.6767 13.4335 30.2555 18.7542 30.2555C24.0749 30.2555 28.3666 25.6767 28.3666 20C28.3666 14.3233 24.0749 9.7445 18.7542 9.7445ZM18.7542 26.6674C15.3158 26.6674 12.5049 23.6773 12.5049 20C12.5049 16.3227 15.3074 13.3326 18.7542 13.3326C22.2009 13.3326 25.0035 16.3227 25.0035 20C25.0035 23.6773 22.1926 26.6674 18.7542 26.6674ZM31.0018 9.325C31.0018 10.6549 29.9979 11.7171 28.7598 11.7171C27.5132 11.7171 26.5177 10.646 26.5177 9.325C26.5177 8.00402 27.5216 6.93295 28.7598 6.93295C29.9979 6.93295 31.0018 8.00402 31.0018 9.325ZM37.3682 11.7528C37.226 8.54848 36.54 5.71014 34.3398 3.37164C32.1479 1.03314 29.4876 0.301238 26.4842 0.140578C23.3889 -0.0468593 14.1111 -0.0468593 11.0158 0.140578C8.02078 0.292313 5.36043 1.02421 3.16021 3.36271C0.959983 5.70122 0.282348 8.53955 0.131762 11.7438C-0.0439208 15.0463 -0.0439208 24.9448 0.131762 28.2472C0.273982 31.4515 0.959983 34.2899 3.16021 36.6284C5.36043 38.9669 8.01241 39.6988 11.0158 39.8594C14.1111 40.0469 23.3889 40.0469 26.4842 39.8594C29.4876 39.7077 32.1479 38.9758 34.3398 36.6284C36.5317 34.2899 37.2177 31.4515 37.3682 28.2472C37.5439 24.9448 37.5439 15.0552 37.3682 11.7528ZM33.3694 31.7907C32.7168 33.5401 31.4536 34.8879 29.8055 35.593C27.3376 36.6373 21.4815 36.3963 18.7542 36.3963C16.0269 36.3963 10.1624 36.6284 7.70287 35.593C6.06316 34.8968 4.79992 33.549 4.13901 31.7907C3.16021 29.1576 3.38609 22.9097 3.38609 20C3.38609 17.0903 3.16857 10.8334 4.13901 8.2093C4.79155 6.45989 6.0548 5.11213 7.70287 4.40701C10.1708 3.36271 16.0269 3.6037 18.7542 3.6037C21.4815 3.6037 27.3459 3.37164 29.8055 4.40701C31.4452 5.1032 32.7085 6.45096 33.3694 8.2093C34.3482 10.8424 34.1223 17.0903 34.1223 20C34.1223 22.9097 34.3482 29.1666 33.3694 31.7907Z" fill="#2F2E41"/>
</svg>
