<svg width="38" height="39" viewBox="0 0 38 39" fill="none" xmlns="http://www.w3.org/2000/svg">
<path d="M13.0428 31.135C13.0428 31.2949 12.869 31.4228 12.6497 31.4228C12.4002 31.4468 12.2263 31.3189 12.2263 31.135C12.2263 30.9751 12.4002 30.8471 12.6195 30.8471C12.8463 30.8231 13.0428 30.9511 13.0428 31.135ZM10.6915 30.7752C10.6386 30.9351 10.7898 31.119 11.0166 31.167C11.2132 31.2469 11.44 31.167 11.4854 31.007C11.5307 30.8471 11.3871 30.6632 11.1603 30.5913C10.9637 30.5353 10.7445 30.6153 10.6915 30.7752ZM14.0333 30.6392C13.814 30.6952 13.6628 30.8471 13.6855 31.031C13.7082 31.1909 13.9047 31.2949 14.1316 31.2389C14.3508 31.1829 14.502 31.031 14.4793 30.8711C14.4567 30.7192 14.2525 30.6153 14.0333 30.6392ZM19.0081 0C8.52167 0 0.5 8.4194 0.5 19.5093C0.5 28.3765 5.77722 35.9643 13.315 38.6349C14.2828 38.8188 14.623 38.1871 14.623 37.6674C14.623 37.1717 14.6003 34.4372 14.6003 32.7581C14.6003 32.7581 9.30796 33.9574 8.19657 30.3754C8.19657 30.3754 7.33468 28.0487 6.09476 27.449C6.09476 27.449 4.36341 26.1937 6.21573 26.2177C6.21573 26.2177 8.09829 26.3776 9.13407 28.2805C10.7898 31.3668 13.5645 30.4793 14.6457 29.9516C14.8196 28.6723 15.311 27.7848 15.8553 27.2571C11.629 26.7614 7.36492 26.1137 7.36492 18.4219C7.36492 16.2231 7.93952 15.1197 9.14919 13.7125C8.95262 13.1928 8.30998 11.05 9.34577 8.28347C10.9259 7.76375 14.5625 10.4423 14.5625 10.4423C16.0746 9.99453 17.7001 9.76266 19.3105 9.76266C20.9209 9.76266 22.5464 9.99453 24.0585 10.4423C24.0585 10.4423 27.6951 7.75576 29.2752 8.28347C30.311 11.058 29.6683 13.1928 29.4718 13.7125C30.6815 15.1277 31.4224 16.2311 31.4224 18.4219C31.4224 26.1377 26.9693 26.7534 22.7429 27.2571C23.4385 27.8887 24.0282 29.0881 24.0282 30.9671C24.0282 33.6616 24.0055 36.9958 24.0055 37.6514C24.0055 38.1711 24.3533 38.8028 25.3135 38.6189C32.874 35.9643 38 28.3765 38 19.5093C38 8.4194 29.4945 0 19.0081 0ZM7.84879 27.5769C7.7505 27.6569 7.77319 27.8408 7.90171 27.9927C8.02268 28.1206 8.19657 28.1766 8.29486 28.0726C8.39315 27.9927 8.37046 27.8088 8.24194 27.6569C8.12097 27.5289 7.94708 27.473 7.84879 27.5769ZM7.03226 26.9293C6.97933 27.0332 7.05494 27.1611 7.20615 27.2411C7.32712 27.3211 7.47833 27.2971 7.53125 27.1851C7.58417 27.0812 7.50857 26.9533 7.35736 26.8733C7.20615 26.8253 7.08518 26.8493 7.03226 26.9293ZM9.48186 29.7757C9.36089 29.8797 9.40625 30.1195 9.58014 30.2714C9.75403 30.4553 9.97329 30.4793 10.0716 30.3514C10.1699 30.2475 10.1245 30.0076 9.97329 29.8557C9.80696 29.6718 9.58014 29.6478 9.48186 29.7757ZM8.61996 28.6004C8.49899 28.6803 8.49899 28.8882 8.61996 29.0721C8.74093 29.256 8.94506 29.336 9.04335 29.256C9.16432 29.1521 9.16432 28.9442 9.04335 28.7603C8.9375 28.5764 8.74093 28.4964 8.61996 28.6004Z" fill="#2F2E41"/>
</svg>
