<svg width="462" height="406" viewBox="0 0 462 406" fill="none" xmlns="http://www.w3.org/2000/svg">
<path d="M100 30C100 13.4314 113.431 0 130 0H184.817C201.385 0 214.817 13.4315 214.817 30V80.1144C214.817 96.683 201.385 110.114 184.817 110.114H130C113.431 110.114 100 96.6829 100 80.1144V30Z" fill="#698199"/>
<path d="M303.858 297.009C303.858 281.082 316.77 268.17 332.697 268.17H335.16C351.088 268.17 364 281.082 364 297.009C364 312.937 351.088 325.849 335.161 325.849H332.697C316.77 325.849 303.858 312.937 303.858 297.009Z" fill="#698199"/>
<path d="M124.994 377.161C124.994 361.233 137.906 348.321 153.834 348.321H156.297C172.224 348.321 185.136 361.233 185.136 377.161C185.136 393.088 172.224 406 156.297 406H153.834C137.906 406 124.994 393.088 124.994 377.161Z" fill="#698199"/>
<rect x="164.828" y="374.539" width="160.899" height="20.2251" rx="10.1125" fill="#F0F0F0" fill-opacity="0.49"/>
<g clip-path="url(#clip0_100_216)">
<path d="M431.851 313.536H315.107C310.859 313.531 306.787 311.844 303.784 308.844C300.781 305.844 299.091 301.777 299.087 297.535V113.605C299.091 109.363 300.781 105.296 303.784 102.296C306.787 99.2964 310.859 97.609 315.107 97.6042H431.851C436.098 97.609 440.17 99.2964 443.173 102.296C446.177 105.296 447.866 109.363 447.871 113.605V297.535C447.866 301.777 446.177 305.844 443.173 308.844C440.17 311.844 436.098 313.531 431.851 313.536Z" fill="#E6E6E6"/>
<path d="M433.787 107.152H314.887C313.557 107.154 312.282 107.682 311.342 108.621C310.402 109.56 309.873 110.833 309.872 112.161V298.489C309.874 299.817 310.403 301.09 311.343 302.029C312.283 302.968 313.557 303.496 314.887 303.498H433.787C435.116 303.496 436.391 302.968 437.331 302.029C438.271 301.09 438.8 299.817 438.802 298.489V112.161C438.8 110.833 438.271 109.56 437.331 108.621C436.391 107.682 435.116 107.154 433.787 107.152Z" fill="white"/>
<path d="M317.96 97.6042C317.961 97.2797 318.09 96.9686 318.32 96.7391C318.549 96.5096 318.861 96.3805 319.186 96.3801H327.52C327.845 96.3801 328.157 96.5091 328.386 96.7387C328.616 96.9682 328.745 97.2796 328.745 97.6042C328.745 97.9289 328.616 98.2402 328.386 98.4698C328.157 98.6994 327.845 98.8283 327.52 98.8283H319.186C318.861 98.8279 318.549 98.6988 318.32 98.4694C318.09 98.2399 317.961 97.9288 317.96 97.6042Z" fill="#E6E6E6"/>
<path d="M331.687 97.6042C331.687 97.2797 331.816 96.9686 332.046 96.7391C332.276 96.5096 332.587 96.3805 332.912 96.3801H341.246C341.571 96.3801 341.883 96.5091 342.113 96.7387C342.343 96.9682 342.472 97.2796 342.472 97.6042C342.472 97.9289 342.343 98.2402 342.113 98.4698C341.883 98.6994 341.571 98.8283 341.246 98.8283H332.912C332.587 98.8279 332.276 98.6989 332.046 98.4694C331.816 98.2399 331.687 97.9288 331.687 97.6042Z" fill="#E6E6E6"/>
<path d="M414.045 97.6042C414.045 97.2797 414.175 96.9686 414.404 96.7391C414.634 96.5096 414.946 96.3805 415.271 96.3801H423.604C423.93 96.3801 424.241 96.5091 424.471 96.7387C424.701 96.9682 424.83 97.2796 424.83 97.6042C424.83 97.9289 424.701 98.2402 424.471 98.4698C424.241 98.6994 423.93 98.8283 423.604 98.8283H415.271C414.946 98.8279 414.634 98.6989 414.404 98.4694C414.175 98.2399 414.045 97.9288 414.045 97.6042Z" fill="#E6E6E6"/>
<path d="M390.813 299.659C390.813 300.947 390.789 302.23 390.73 303.498H314.887C313.557 303.496 312.283 302.967 311.343 302.029C310.403 301.09 309.874 299.817 309.872 298.489V204.703C332.457 208.348 353.006 219.905 367.837 237.304C382.669 254.703 390.813 276.808 390.813 299.659Z" fill="#F2F2F2"/>
<path d="M388.238 155.035H359.952C358.665 155.035 357.621 156.077 357.621 157.363V160.267C357.621 161.553 358.665 162.595 359.952 162.595H388.238C389.525 162.595 390.568 161.553 390.568 160.267V157.363C390.568 156.077 389.525 155.035 388.238 155.035Z" fill="#D38C88"/>
<path d="M406.215 170.156H341.975C340.688 170.156 339.644 171.198 339.644 172.483V175.388C339.644 176.674 340.688 177.716 341.975 177.716H406.215C407.502 177.716 408.546 176.674 408.546 175.388V172.483C408.546 171.198 407.502 170.156 406.215 170.156Z" fill="#E6E6E6"/>
<path d="M406.215 185.276H341.975C340.688 185.276 339.644 186.318 339.644 187.604V190.509C339.644 191.794 340.688 192.836 341.975 192.836H406.215C407.502 192.836 408.546 191.794 408.546 190.509V187.604C408.546 186.318 407.502 185.276 406.215 185.276Z" fill="#E6E6E6"/>
<path d="M395.215 290.764C394.846 290.781 394.482 290.684 394.17 290.487C393.859 290.29 393.615 290.002 393.473 289.663C393.331 289.323 393.297 288.948 393.375 288.588C393.453 288.228 393.641 287.901 393.911 287.651L394.035 287.162C394.018 287.122 394.002 287.083 393.986 287.044C393.615 286.169 392.993 285.422 392.198 284.899C391.404 284.375 390.472 284.098 389.521 284.101C388.569 284.105 387.64 284.389 386.849 284.919C386.059 285.448 385.442 286.199 385.078 287.077C383.621 290.582 381.766 294.093 381.309 297.798C381.108 299.436 381.193 301.097 381.56 302.706C378.138 295.25 376.361 287.147 376.35 278.946C376.349 276.887 376.464 274.831 376.693 272.786C376.882 271.109 377.145 269.444 377.481 267.791C379.315 258.823 383.253 250.417 388.971 243.264C391.739 241.756 393.977 239.437 395.384 236.619C395.894 235.606 396.254 234.524 396.454 233.408C396.142 233.449 395.824 233.475 395.512 233.495C395.415 233.5 395.312 233.505 395.215 233.511L395.178 233.512C394.835 233.528 394.495 233.444 394.199 233.27C393.902 233.097 393.662 232.842 393.508 232.536C393.353 232.229 393.29 231.885 393.327 231.544C393.364 231.203 393.499 230.879 393.715 230.613C393.85 230.447 393.985 230.282 394.12 230.116C394.325 229.861 394.534 229.61 394.739 229.355C394.763 229.33 394.785 229.305 394.806 229.278C395.041 228.986 395.277 228.7 395.512 228.409C395.082 227.743 394.504 227.185 393.823 226.778C391.464 225.398 388.209 226.354 386.504 228.486C384.795 230.617 384.472 233.608 385.066 236.271C385.65 238.537 386.616 240.688 387.922 242.63C387.794 242.794 387.661 242.952 387.533 243.116C385.194 246.12 383.155 249.346 381.446 252.747C381.862 248.937 381.366 245.082 379.999 241.501C378.614 238.163 376.017 235.352 373.731 232.466C370.984 229 365.352 230.513 364.869 234.906C364.864 234.949 364.859 234.991 364.855 235.034C365.194 235.225 365.527 235.428 365.852 235.643C366.261 235.916 366.577 236.306 366.761 236.761C366.944 237.217 366.985 237.717 366.879 238.196C366.772 238.675 366.523 239.111 366.165 239.447C365.806 239.782 365.354 240.002 364.869 240.077L364.819 240.085C364.94 241.307 365.154 242.519 365.459 243.709C366.342 247.032 367.903 250.136 370.044 252.828C372.185 255.52 374.86 257.74 377.901 259.351C378.1 259.454 378.295 259.556 378.494 259.653C376.777 264.513 375.7 269.575 375.291 274.713C375.058 277.744 375.072 280.788 375.331 283.817L375.316 283.71C374.661 280.342 372.862 277.303 370.224 275.106C366.305 271.891 360.768 270.707 356.54 268.122C356.091 267.834 355.568 267.68 355.034 267.679C354.5 267.678 353.977 267.829 353.526 268.115C353.076 268.401 352.716 268.81 352.491 269.293C352.265 269.776 352.182 270.314 352.252 270.843C352.258 270.88 352.264 270.918 352.269 270.955C352.9 271.212 353.513 271.507 354.107 271.84C354.446 272.031 354.779 272.234 355.104 272.449C355.513 272.722 355.829 273.112 356.013 273.567C356.196 274.023 356.237 274.523 356.131 275.002C356.024 275.481 355.776 275.917 355.417 276.253C355.058 276.588 354.606 276.808 354.121 276.883L354.071 276.89C354.035 276.896 354.004 276.901 353.969 276.906C355.046 279.474 356.557 281.838 358.437 283.894C360.759 286.383 363.565 288.371 366.684 289.738C369.804 291.105 373.169 291.821 376.575 291.843H376.58C377.505 295.856 378.844 299.762 380.577 303.498H394.857C394.908 303.34 394.954 303.176 395 303.018C393.678 303.101 392.352 303.022 391.049 302.782C392.108 301.484 393.168 300.175 394.227 298.877C394.251 298.853 394.273 298.827 394.294 298.8C394.831 298.136 395.374 297.476 395.911 296.812L395.911 296.811C395.94 294.774 395.706 292.742 395.215 290.764L395.215 290.764ZM378.863 258.636L378.87 258.626L378.863 258.646V258.636ZM375.7 287.114L375.577 286.838C375.582 286.639 375.582 286.44 375.577 286.235C375.577 286.179 375.567 286.123 375.567 286.066C375.613 286.419 375.654 286.772 375.705 287.125L375.7 287.114Z" fill="#CCCCCC"/>
<path d="M427.843 123.602H320.83C320.598 123.597 320.378 123.502 320.216 123.337C320.054 123.171 319.964 122.949 319.964 122.718C319.964 122.487 320.054 122.264 320.216 122.099C320.378 121.934 320.598 121.838 320.83 121.833H427.843C428.075 121.838 428.295 121.934 428.457 122.099C428.619 122.264 428.71 122.487 428.71 122.718C428.71 122.949 428.619 123.171 428.457 123.337C428.295 123.502 428.075 123.597 427.843 123.602Z" fill="#CACACA"/>
<path d="M326.539 119.275C327.977 119.275 329.142 118.085 329.142 116.617C329.142 115.149 327.977 113.959 326.539 113.959C325.102 113.959 323.936 115.149 323.936 116.617C323.936 118.085 325.102 119.275 326.539 119.275Z" fill="#3F3D56"/>
<path d="M335.532 119.275C336.969 119.275 338.135 118.085 338.135 116.617C338.135 115.149 336.969 113.959 335.532 113.959C334.094 113.959 332.929 115.149 332.929 116.617C332.929 118.085 334.094 119.275 335.532 119.275Z" fill="#3F3D56"/>
<path d="M344.524 119.275C345.962 119.275 347.127 118.085 347.127 116.617C347.127 115.149 345.962 113.959 344.524 113.959C343.086 113.959 341.921 115.149 341.921 116.617C341.921 118.085 343.086 119.275 344.524 119.275Z" fill="#3F3D56"/>
<path d="M423.66 114.986H417.835C417.72 114.989 417.61 115.036 417.529 115.118C417.448 115.201 417.403 115.312 417.403 115.427C417.403 115.542 417.448 115.653 417.529 115.735C417.61 115.818 417.72 115.865 417.835 115.867H423.66C423.776 115.865 423.886 115.818 423.967 115.735C424.048 115.653 424.093 115.542 424.093 115.427C424.093 115.312 424.048 115.201 423.967 115.118C423.886 115.036 423.776 114.989 423.66 114.986Z" fill="#3F3D56"/>
<path d="M423.66 116.64H417.835C417.72 116.642 417.61 116.69 417.529 116.772C417.448 116.855 417.403 116.965 417.403 117.081C417.403 117.196 417.448 117.307 417.529 117.389C417.61 117.472 417.72 117.519 417.835 117.521H423.66C423.776 117.519 423.886 117.472 423.967 117.389C424.048 117.307 424.093 117.196 424.093 117.081C424.093 116.965 424.048 116.855 423.967 116.772C423.886 116.69 423.776 116.642 423.66 116.64Z" fill="#3F3D56"/>
<path d="M423.66 118.292H417.835C417.72 118.294 417.61 118.341 417.529 118.424C417.448 118.506 417.403 118.617 417.403 118.732C417.403 118.847 417.448 118.958 417.529 119.041C417.61 119.123 417.72 119.17 417.835 119.173H423.66C423.776 119.17 423.886 119.123 423.967 119.041C424.048 118.958 424.093 118.847 424.093 118.732C424.093 118.617 424.048 118.506 423.967 118.424C423.886 118.341 423.776 118.294 423.66 118.292Z" fill="#3F3D56"/>
<path d="M250.032 204.773H187.988C187.111 204.775 186.269 205.124 185.65 205.745C185.03 206.365 184.682 207.206 184.683 208.083V305.976H253.346V208.083C253.346 207.648 253.26 207.218 253.094 206.816C252.928 206.414 252.683 206.05 252.376 205.742C252.068 205.435 251.702 205.191 251.3 205.025C250.898 204.858 250.467 204.773 250.032 204.773ZM219.219 260.395C217.279 260.386 215.42 259.612 214.048 258.242C212.676 256.871 211.902 255.015 211.893 253.077V241.786C211.894 239.847 212.667 237.987 214.041 236.616C215.414 235.245 217.277 234.475 219.219 234.475C221.161 234.475 223.023 235.245 224.397 236.616C225.771 237.987 226.543 239.847 226.545 241.786V253.077C226.536 255.015 225.761 256.871 224.389 258.242C223.017 259.612 221.159 260.386 219.219 260.395Z" fill="#E6E6E6"/>
<path d="M184.47 302.845V312.29C184.471 312.779 184.666 313.248 185.013 313.594C185.359 313.94 185.829 314.135 186.319 314.136H251.71C252.2 314.134 252.668 313.938 253.015 313.593C253.361 313.247 253.556 312.779 253.559 312.29V302.845L184.47 302.845Z" fill="#CCCCCC"/>
<path d="M352.77 52H87.5584C85.2798 52.0036 83.0956 52.9093 81.4844 54.5186C79.8731 56.1278 78.9664 58.3094 78.9627 60.5853V239.337C78.9649 241.613 79.8712 243.796 81.4828 245.405C83.0943 247.015 85.2793 247.92 87.5584 247.922H352.77C355.05 247.92 357.235 247.015 358.846 245.405C360.458 243.796 361.364 241.613 361.366 239.337V60.5853C361.362 58.3094 360.456 56.1278 358.844 54.5186C357.233 52.9093 355.049 52.0036 352.77 52Z" fill="#E6E6E6"/>
<path d="M350.557 58.2009H89.7742C88.5542 58.2036 87.385 58.6895 86.5232 59.552C85.6614 60.4146 85.1774 61.5833 85.1773 62.8019V237.123C85.1794 238.34 85.6644 239.507 86.526 240.367C87.3876 241.228 88.5557 241.712 89.7742 241.714H350.557C351.775 241.712 352.943 241.228 353.805 240.367C354.667 239.507 355.152 238.34 355.154 237.123V62.8019C355.154 61.5833 354.67 60.4146 353.808 59.552C352.946 58.6895 351.777 58.2036 350.557 58.2009Z" fill="white"/>
<path d="M355.154 62.8019V237.123C355.152 238.34 354.667 239.507 353.805 240.367C352.943 241.228 351.775 241.712 350.557 241.714H258.599C248.426 232.292 240.08 221.076 233.98 208.63C233.579 207.828 233.196 207.016 232.833 206.195C227.275 194.149 223.91 181.21 222.894 167.984C222.827 167.173 222.77 166.362 222.732 165.541C222.607 163.441 222.55 161.312 222.55 159.174C222.532 144.953 225.22 130.859 230.473 117.641C230.788 116.82 231.123 116.009 231.467 115.197C242.037 90.3913 261.138 70.1762 285.32 58.2009H350.557C351.777 58.2036 352.946 58.6895 353.808 59.552C354.669 60.4146 355.154 61.5833 355.154 62.8019Z" fill="#D38C88"/>
<path d="M337.448 82.2187H93.4345C93.1807 82.2133 92.9391 82.1088 92.7616 81.9276C92.584 81.7465 92.4846 81.503 92.4846 81.2495C92.4846 80.9959 92.584 80.7525 92.7616 80.5713C92.9391 80.3902 93.1807 80.2857 93.4345 80.2803H337.448C337.701 80.2857 337.943 80.3902 338.121 80.5713C338.298 80.7525 338.398 80.9959 338.398 81.2495C338.398 81.503 338.298 81.7465 338.121 81.9276C337.943 82.1088 337.701 82.2133 337.448 82.2187Z" fill="#CACACA"/>
<path d="M110.045 75.3317C113.186 75.3317 115.732 72.732 115.732 69.5251C115.732 66.3182 113.186 63.7185 110.045 63.7185C106.904 63.7185 104.358 66.3182 104.358 69.5251C104.358 72.732 106.904 75.3317 110.045 75.3317Z" fill="#3F3D56"/>
<path d="M129.69 75.3317C132.831 75.3317 135.377 72.732 135.377 69.5251C135.377 66.3182 132.831 63.7185 129.69 63.7185C126.549 63.7185 124.003 66.3182 124.003 69.5251C124.003 72.732 126.549 75.3317 129.69 75.3317Z" fill="#3F3D56"/>
<path d="M149.336 75.3317C152.476 75.3317 155.022 72.732 155.022 69.5251C155.022 66.3182 152.476 63.7185 149.336 63.7185C146.195 63.7185 143.649 66.3182 143.649 69.5251C143.649 72.732 146.195 75.3317 149.336 75.3317Z" fill="#3F3D56"/>
<path d="M325.619 65.1577H311.664C311.388 65.1632 311.124 65.2768 310.931 65.4741C310.737 65.6714 310.628 65.9368 310.628 66.2131C310.628 66.4894 310.737 66.7548 310.931 66.9521C311.124 67.1494 311.388 67.263 311.664 67.2685H325.619C325.896 67.263 326.159 67.1494 326.353 66.9521C326.547 66.7548 326.655 66.4894 326.655 66.2131C326.655 65.9368 326.547 65.6714 326.353 65.4741C326.159 65.2768 325.896 65.1632 325.619 65.1577Z" fill="#3F3D56"/>
<path d="M325.619 69.1191H311.664C311.388 69.1246 311.124 69.2382 310.931 69.4355C310.737 69.6329 310.628 69.8982 310.628 70.1745C310.628 70.4509 310.737 70.7162 310.931 70.9135C311.124 71.1109 311.388 71.2244 311.664 71.2299H325.619C325.896 71.2244 326.159 71.1109 326.353 70.9135C326.547 70.7162 326.655 70.4509 326.655 70.1745C326.655 69.8982 326.547 69.6329 326.353 69.4355C326.159 69.2382 325.896 69.1246 325.619 69.1191Z" fill="#3F3D56"/>
<path d="M325.619 73.0757H311.664C311.388 73.0812 311.124 73.1947 310.931 73.3921C310.737 73.5894 310.628 73.8547 310.628 74.1311C310.628 74.4074 310.737 74.6727 310.931 74.8701C311.124 75.0674 311.388 75.181 311.664 75.1865H325.619C325.896 75.181 326.159 75.0674 326.353 74.8701C326.547 74.6727 326.655 74.4074 326.655 74.1311C326.655 73.8547 326.547 73.5894 326.353 73.3921C326.159 73.1947 325.896 73.0812 325.619 73.0757Z" fill="#3F3D56"/>
<path d="M168.148 138.841H134.025C132.738 138.841 131.695 139.883 131.695 141.169V144.797C131.695 146.082 132.738 147.124 134.025 147.124H168.148C169.435 147.124 170.479 146.082 170.479 144.797V141.169C170.479 139.883 169.435 138.841 168.148 138.841Z" fill="#D38C88"/>
<path d="M187.845 155.408H114.328C113.041 155.408 111.997 156.45 111.997 157.736V161.364C111.997 162.65 113.041 163.692 114.328 163.692H187.845C189.133 163.692 190.176 162.65 190.176 161.364V157.736C190.176 156.45 189.133 155.408 187.845 155.408Z" fill="#E6E6E6"/>
<path d="M187.845 171.975H114.328C113.041 171.975 111.997 173.018 111.997 174.303V177.931C111.997 179.217 113.041 180.259 114.328 180.259H187.845C189.133 180.259 190.176 179.217 190.176 177.931V174.303C190.176 173.018 189.133 171.975 187.845 171.975Z" fill="#E6E6E6"/>
<path d="M118.378 231.72C118.384 235.132 117.776 238.518 116.582 241.715H89.7742C88.5557 241.713 87.3876 241.228 86.526 240.367C85.6644 239.507 85.1794 238.34 85.1773 237.123V203.446C86.6751 203.205 88.19 203.083 89.7073 203.084C93.4725 203.084 97.2009 203.824 100.68 205.263C104.158 206.702 107.319 208.812 109.981 211.471C112.644 214.13 114.756 217.287 116.196 220.761C117.637 224.236 118.379 227.96 118.378 231.72Z" fill="#D38C88"/>
<path opacity="0.2" d="M355.393 117.641V115.198H314.383V86.876H311.946V115.198H264.945V86.876H262.508V115.198H231.467C231.123 116.009 230.788 116.82 230.473 117.641H262.508V165.541H222.732C222.77 166.362 222.827 167.173 222.894 167.985H262.508V206.196H232.833C233.196 207.017 233.579 207.828 233.98 208.63H262.508V240.75H264.945V208.63H311.946V240.75H314.383V208.63H355.393V206.196H314.383V206.196C314.383 201.178 315.373 196.209 317.295 191.573C319.218 186.937 322.036 182.725 325.589 179.176C329.141 175.628 333.358 172.814 338 170.893C342.641 168.973 347.616 167.985 352.64 167.985H355.393V165.541H314.383V117.641H355.393ZM311.946 206.196H264.945V167.985H311.946V206.196ZM311.946 165.541H264.945V164.586C264.945 152.136 269.897 140.195 278.711 131.391C287.526 122.587 299.481 117.641 311.946 117.641H311.946V165.541Z" fill="black"/>
<path d="M322.374 223.629C321.851 223.653 321.333 223.516 320.89 223.236C320.448 222.957 320.102 222.548 319.9 222.065C319.698 221.583 319.65 221.05 319.761 220.539C319.872 220.028 320.138 219.563 320.523 219.208C320.587 218.952 320.634 218.769 320.698 218.513C320.675 218.458 320.652 218.402 320.628 218.346C318.277 212.747 310.309 212.785 307.977 218.393C305.908 223.371 303.274 228.357 302.625 233.62C302.34 235.946 302.46 238.304 302.981 240.589C298.122 230.001 295.598 218.493 295.582 206.845C295.581 203.922 295.743 201.001 296.069 198.096C296.338 195.715 296.711 193.35 297.188 191.003C299.793 178.266 305.386 166.328 313.507 156.169C317.437 154.027 320.616 150.733 322.614 146.731C323.338 145.293 323.85 143.757 324.134 142.172C323.69 142.23 323.24 142.266 322.796 142.295C322.658 142.303 322.513 142.31 322.374 142.317L322.322 142.319C321.835 142.341 321.352 142.222 320.931 141.976C320.51 141.73 320.169 141.367 319.949 140.932C319.73 140.497 319.641 140.008 319.693 139.524C319.745 139.039 319.937 138.58 320.244 138.202C320.436 137.967 320.627 137.732 320.819 137.496C321.11 137.133 321.408 136.778 321.698 136.415C321.732 136.38 321.764 136.344 321.793 136.306C322.127 135.892 322.462 135.485 322.796 135.072C322.186 134.125 321.365 133.333 320.397 132.756C317.046 130.795 312.424 132.153 310.003 135.181C307.575 138.208 307.117 142.455 307.96 146.238C308.68 149.476 310.25 152.445 312.017 155.269C311.835 155.501 311.646 155.726 311.464 155.959C308.142 160.225 305.247 164.806 302.82 169.637C303.41 164.225 302.706 158.751 300.764 153.665C298.797 148.924 295.109 144.932 291.862 140.834C287.961 135.911 279.963 138.059 279.276 144.299C279.269 144.36 279.263 144.42 279.256 144.481C279.739 144.752 280.211 145.041 280.673 145.346C281.253 145.733 281.703 146.287 281.963 146.934C282.223 147.581 282.281 148.291 282.13 148.971C281.979 149.652 281.626 150.271 281.117 150.748C280.607 151.225 279.966 151.536 279.276 151.643L279.205 151.654C279.377 153.39 279.681 155.111 280.114 156.801C281.369 161.52 283.586 165.929 286.627 169.752C289.667 173.575 293.466 176.729 297.784 179.017C298.068 179.162 298.344 179.307 298.627 179.445C296.189 186.347 294.659 193.537 294.077 200.833C293.748 205.138 293.767 209.462 294.135 213.763L294.114 213.611C293.183 208.828 290.628 204.512 286.881 201.392C281.315 196.826 273.452 195.144 267.448 191.473C264.557 189.706 260.853 191.99 261.358 195.337C261.366 195.39 261.374 195.444 261.382 195.497C262.277 195.861 263.149 196.281 263.992 196.753C264.474 197.025 264.946 197.313 265.408 197.618C265.989 198.006 266.438 198.559 266.698 199.206C266.959 199.853 267.017 200.563 266.866 201.244C266.715 201.924 266.362 202.544 265.852 203.02C265.343 203.497 264.701 203.809 264.012 203.915L263.941 203.926C263.89 203.933 263.846 203.94 263.796 203.948C265.325 207.595 267.471 210.952 270.141 213.872C273.439 217.407 277.425 220.231 281.855 222.173C286.284 224.114 291.064 225.131 295.902 225.162H295.909C297.222 230.861 299.125 236.408 301.586 241.715H321.866C321.938 241.489 322.004 241.257 322.069 241.032C320.192 241.15 318.308 241.038 316.458 240.698C317.962 238.854 319.467 236.995 320.972 235.151C321.005 235.117 321.037 235.081 321.066 235.043C321.829 234.099 322.6 233.162 323.363 232.218L323.363 232.217C323.404 229.324 323.072 226.438 322.374 223.63L322.374 223.629ZM299.151 178L299.161 177.986L299.151 178.015V178ZM294.659 218.446L294.484 218.054C294.492 217.771 294.492 217.488 294.484 217.197C294.484 217.117 294.47 217.038 294.47 216.958C294.535 217.459 294.593 217.96 294.666 218.461L294.659 218.446Z" fill="#2F2E41"/>
<path d="M141.789 176.256V149.033C141.789 144.854 140.127 140.847 137.169 137.892C134.21 134.937 130.198 133.277 126.014 133.277H68.2694C64.0857 133.277 60.0733 134.937 57.1149 137.892C54.1566 140.847 52.4946 144.854 52.4946 149.033V298.38C52.4946 302.559 54.1566 306.567 57.1149 309.521C60.0733 312.476 64.0857 314.136 68.2694 314.136H126.014C128.086 314.136 130.137 313.729 132.051 312.937C133.965 312.145 135.704 310.985 137.169 309.521C138.634 308.058 139.795 306.321 140.588 304.41C141.381 302.498 141.789 300.449 141.789 298.38V195.634C142.053 195.634 142.306 195.529 142.493 195.343C142.679 195.156 142.784 194.904 142.784 194.64V177.25C142.784 176.986 142.679 176.733 142.493 176.547C142.306 176.361 142.053 176.256 141.789 176.256Z" fill="#E6E6E6"/>
<path d="M138.432 149.141V298.273C138.432 301.37 137.209 304.343 135.027 306.545C132.846 308.747 129.883 310 126.782 310.032C126.739 310.037 126.696 310.039 126.653 310.038H68.6267C65.5028 310.037 62.5068 308.798 60.2979 306.592C58.0889 304.385 56.8478 301.393 56.8475 298.273V149.141C56.8478 146.021 58.0889 143.029 60.2979 140.822C62.5069 138.616 65.5028 137.376 68.6267 137.376H75.6685C75.3223 138.225 75.1904 139.146 75.2843 140.058C75.3782 140.97 75.6951 141.845 76.207 142.606C76.719 143.367 77.4104 143.99 78.2203 144.422C79.0302 144.853 79.9339 145.079 80.8517 145.08H113.933C114.85 145.077 115.753 144.85 116.562 144.418C117.37 143.986 118.06 143.362 118.572 142.602C119.083 141.841 119.399 140.967 119.493 140.056C119.587 139.145 119.456 138.225 119.111 137.376H126.653C129.777 137.376 132.772 138.616 134.981 140.822C137.19 143.029 138.432 146.021 138.432 149.141Z" fill="white"/>
<path d="M126.927 305.435C126.927 306.98 126.878 308.512 126.782 310.032C126.739 310.037 126.696 310.039 126.653 310.038H68.6267C65.5028 310.037 62.5068 308.798 60.2979 306.591C58.0889 304.385 56.8478 301.393 56.8475 298.273V231.813C75.7533 232.765 93.5698 240.937 106.613 254.64C119.656 268.343 126.929 286.527 126.927 305.435Z" fill="#F2F2F2"/>
<path d="M52.8137 191.485C52.4577 191.485 52.1164 191.344 51.8647 191.092C51.6129 190.841 51.4713 190.5 51.4709 190.144V181.024C51.4709 180.668 51.6124 180.327 51.8642 180.076C52.116 179.824 52.4576 179.683 52.8137 179.683C53.1698 179.683 53.5114 179.824 53.7632 180.076C54.015 180.327 54.1565 180.668 54.1565 181.024V190.144C54.1561 190.5 54.0145 190.841 53.7628 191.092C53.511 191.344 53.1697 191.485 52.8137 191.485Z" fill="#E6E6E6"/>
<path d="M104.764 184.203H90.515C89.2278 184.203 88.1844 185.246 88.1844 186.531V190.159C88.1844 191.445 89.2278 192.487 90.515 192.487H104.764C106.052 192.487 107.095 191.445 107.095 190.159V186.531C107.095 185.246 106.052 184.203 104.764 184.203Z" fill="#D38C88"/>
<path d="M124.462 200.771H70.8178C69.5307 200.771 68.4872 201.813 68.4872 203.098V206.726C68.4872 208.012 69.5307 209.054 70.8178 209.054H124.462C125.749 209.054 126.792 208.012 126.792 206.726V203.098C126.792 201.813 125.749 200.771 124.462 200.771Z" fill="#E6E6E6"/>
<path d="M124.462 217.338H70.8178C69.5307 217.338 68.4872 218.38 68.4872 219.665V223.293C68.4872 224.579 69.5307 225.621 70.8178 225.621H124.462C125.749 225.621 126.792 224.579 126.792 223.293V219.665C126.792 218.38 125.749 217.338 124.462 217.338Z" fill="#E6E6E6"/>
<path d="M111.554 301.551C111.309 301.562 111.066 301.498 110.858 301.367C110.65 301.235 110.488 301.043 110.393 300.817C110.299 300.591 110.276 300.34 110.328 300.101C110.38 299.861 110.505 299.643 110.686 299.476L110.768 299.15C110.757 299.124 110.746 299.098 110.735 299.072C110.488 298.488 110.073 297.991 109.544 297.642C109.015 297.293 108.394 297.108 107.759 297.111C107.125 297.113 106.506 297.302 105.979 297.655C105.452 298.008 105.041 298.509 104.798 299.094C103.827 301.43 102.591 303.769 102.287 306.239C102.153 307.331 102.209 308.437 102.454 309.51C100.173 304.541 98.9891 299.14 98.9815 293.674C98.981 292.303 99.0573 290.932 99.21 289.569C99.3363 288.452 99.5114 287.342 99.7354 286.241C100.958 280.264 103.582 274.661 107.393 269.894C109.237 268.889 110.729 267.343 111.667 265.465C112.007 264.79 112.247 264.069 112.38 263.326C112.172 263.353 111.96 263.37 111.752 263.384C111.687 263.387 111.619 263.39 111.554 263.394L111.53 263.395C111.301 263.405 111.075 263.349 110.877 263.234C110.679 263.118 110.519 262.948 110.416 262.744C110.313 262.54 110.272 262.31 110.296 262.083C110.321 261.856 110.411 261.64 110.555 261.463C110.645 261.352 110.735 261.242 110.824 261.132C110.961 260.961 111.101 260.794 111.237 260.624C111.253 260.608 111.268 260.591 111.282 260.573C111.438 260.379 111.595 260.188 111.752 259.994C111.466 259.55 111.081 259.178 110.627 258.907C109.054 257.987 106.885 258.624 105.749 260.045C104.61 261.465 104.395 263.459 104.79 265.234C105.18 266.744 105.823 268.177 106.694 269.472C106.608 269.581 106.52 269.686 106.435 269.795C104.876 271.797 103.517 273.947 102.378 276.214C102.655 273.675 102.324 271.106 101.414 268.719C100.49 266.494 98.7598 264.621 97.2359 262.698C96.8329 262.181 96.2856 261.795 95.6631 261.589C95.0406 261.383 94.371 261.366 93.7389 261.54C93.1068 261.715 92.5405 262.072 92.1116 262.567C91.6828 263.063 91.4106 263.674 91.3296 264.324C91.3264 264.352 91.3234 264.381 91.3204 264.409C91.5468 264.537 91.7683 264.672 91.9851 264.815C92.2575 264.997 92.4685 265.257 92.5905 265.56C92.7126 265.864 92.74 266.197 92.6692 266.516C92.5983 266.836 92.4325 267.126 92.1935 267.35C91.9545 267.574 91.6534 267.72 91.3297 267.77L91.2966 267.775C91.3772 268.59 91.5197 269.397 91.7229 270.191C92.3117 272.405 93.3522 274.474 94.7791 276.268C96.206 278.062 97.9886 279.542 100.015 280.616C100.148 280.684 100.278 280.752 100.411 280.817C99.2664 284.056 98.5486 287.43 98.2754 290.853C98.1208 292.873 98.1299 294.903 98.3027 296.921L98.2925 296.85C97.8559 294.605 96.6571 292.58 94.8986 291.116C92.2867 288.973 88.5967 288.184 85.779 286.461C85.4796 286.269 85.1314 286.167 84.7755 286.166C84.4196 286.165 84.071 286.266 83.7706 286.456C83.4702 286.647 83.2306 286.919 83.0801 287.241C82.9297 287.563 82.8746 287.922 82.9213 288.274L82.9328 288.349C83.3529 288.52 83.7618 288.717 84.1573 288.939C84.3837 289.066 84.6053 289.202 84.8221 289.345C85.0944 289.527 85.3054 289.786 85.4275 290.09C85.5495 290.393 85.5769 290.727 85.5061 291.046C85.4353 291.366 85.2695 291.656 85.0304 291.88C84.7914 292.103 84.4903 292.25 84.1666 292.3L84.1335 292.305C84.1096 292.308 84.0891 292.312 84.0652 292.315C84.7829 294.027 85.7902 295.602 87.043 296.972C88.5906 298.631 90.4611 299.956 92.5398 300.867C94.6185 301.778 96.8616 302.256 99.1316 302.27H99.135C99.7512 304.944 100.644 307.548 101.799 310.038H111.316C111.35 309.932 111.38 309.823 111.411 309.717C110.53 309.773 109.646 309.72 108.778 309.561C109.484 308.695 110.19 307.823 110.896 306.958C110.912 306.942 110.927 306.925 110.94 306.907C111.299 306.464 111.66 306.024 112.018 305.581L112.018 305.581C112.038 304.223 111.882 302.869 111.554 301.551L111.554 301.551ZM100.656 280.139L100.661 280.132L100.656 280.146V280.139ZM98.5483 299.119L98.4664 298.935C98.4699 298.802 98.4699 298.669 98.4664 298.533C98.4664 298.495 98.4596 298.458 98.4596 298.42C98.4903 298.655 98.5176 298.89 98.5517 299.125L98.5483 299.119Z" fill="#CCCCCC"/>
<path d="M52.5451 173.782C52.1891 173.781 51.8478 173.64 51.5961 173.388C51.3443 173.137 51.2027 172.796 51.2023 172.44V163.32C51.2023 162.965 51.3438 162.623 51.5956 162.372C51.8475 162.12 52.189 161.979 52.5451 161.979C52.9013 161.979 53.2428 162.12 53.4947 162.372C53.7465 162.623 53.888 162.965 53.888 163.32V172.44C53.8875 172.796 53.7459 173.137 53.4942 173.388C53.2425 173.64 52.9011 173.781 52.5451 173.782Z" fill="#E6E6E6"/>
<path d="M88.2641 138.91C88.2645 138.554 88.4061 138.214 88.6579 137.962C88.9096 137.711 89.2509 137.569 89.6069 137.569H98.7381C99.0942 137.569 99.4358 137.71 99.6876 137.962C99.9394 138.213 100.081 138.554 100.081 138.91C100.081 139.266 99.9394 139.607 99.6876 139.858C99.4358 140.11 99.0942 140.251 98.7381 140.251H89.6069C89.2509 140.251 88.9096 140.109 88.6579 139.858C88.4061 139.607 88.2645 139.266 88.2641 138.91Z" fill="white"/>
<path d="M52.8137 207.043C52.4577 207.043 52.1164 206.902 51.8647 206.65C51.6129 206.399 51.4713 206.058 51.4709 205.702V196.582C51.4709 196.226 51.6124 195.885 51.8642 195.634C52.116 195.382 52.4576 195.241 52.8137 195.241C53.1698 195.241 53.5114 195.382 53.7632 195.634C54.015 195.885 54.1565 196.226 54.1565 196.582V205.702C54.1561 206.058 54.0145 206.399 53.7628 206.65C53.511 206.902 53.1697 207.043 52.8137 207.043Z" fill="#E6E6E6"/>
<path d="M103.841 140.251C104.582 140.251 105.184 139.651 105.184 138.91C105.184 138.169 104.582 137.569 103.841 137.569C103.099 137.569 102.498 138.169 102.498 138.91C102.498 139.651 103.099 140.251 103.841 140.251Z" fill="white"/>
<path d="M197.004 173.302L194.581 173.821C194.565 172.809 194.438 171.801 194.204 170.816C193.983 172.022 193.519 173.171 192.839 174.192L178.94 177.157L165.597 163.091C165.576 156.059 169.486 150.714 176.497 150.714C176.919 150.714 177.357 150.735 177.8 150.775C181.588 150.142 185.474 151.002 188.64 153.173C191.806 155.344 194.005 158.657 194.774 162.415C199.743 167.302 197.941 170.175 197.004 173.302Z" fill="#2F2E41"/>
<path d="M203.837 337.791H208.879L211.277 318.367L203.836 318.368L203.837 337.791Z" fill="#FFB6B6"/>
<path d="M202.587 335.306L210.557 334.831V338.242L218.134 343.468C218.508 343.727 218.79 344.097 218.938 344.527C219.086 344.956 219.093 345.422 218.958 345.856C218.823 346.289 218.552 346.668 218.186 346.937C217.819 347.207 217.376 347.352 216.922 347.352H207.433L205.798 343.978L205.159 347.352H201.582L202.587 335.306Z" fill="#2F2E41"/>
<path d="M144.772 332.309L149.158 334.794L160.84 319.083L154.368 315.416L144.772 332.309Z" fill="#FFB6B6"/>
<path d="M144.912 329.533L152.079 333.048L150.394 336.014L154.401 344.295C154.599 344.704 154.661 345.165 154.578 345.612C154.495 346.058 154.271 346.467 153.939 346.777C153.607 347.088 153.184 347.284 152.733 347.337C152.281 347.391 151.824 347.299 151.428 347.075L143.176 342.398L143.42 338.658L141.198 341.277L138.087 339.514L144.912 329.533Z" fill="#2F2E41"/>
<path d="M222.473 176.705C221.827 176.798 221.209 177.032 220.663 177.39C220.117 177.747 219.657 178.22 219.313 178.775C218.97 179.329 218.753 179.952 218.677 180.6C218.601 181.247 218.668 181.904 218.874 182.522L211.159 189.192L214.074 194.863L224.836 185.292C225.854 184.878 226.685 184.106 227.171 183.121C227.657 182.137 227.764 181.008 227.473 179.95C227.181 178.891 226.512 177.977 225.59 177.379C224.668 176.78 223.559 176.541 222.473 176.705H222.473Z" fill="#FFB6B6"/>
<path d="M214.704 199.64C212.13 203.533 206.363 207.292 197.803 210.625C197.331 210.814 196.824 210.903 196.316 210.887C195.808 210.87 195.308 210.748 194.85 210.529C191.619 209.061 189.549 203.602 189.355 203.072L183.098 194.643C182.987 194.52 180.062 191.204 180.396 187.943C180.472 187.26 180.694 186.601 181.049 186.012C181.403 185.423 181.881 184.918 182.449 184.53C187.185 181.024 197.8 193.203 199.177 194.822L206.104 190.606L211.152 188.357L215.227 183.405L220.964 189.263L215.804 197.463C215.529 198.231 215.159 198.962 214.704 199.64Z" fill="#2F2E41"/>
<path d="M196.711 214.576C196.711 214.576 211.535 238.16 208.849 240.842C206.164 243.525 201.984 244.229 201.984 244.229L192.735 232.259L196.711 214.576Z" fill="#2F2E41"/>
<path d="M183.604 182.365L190.591 187.086C193.838 189.28 196.281 192.472 197.548 196.178C198.815 199.884 198.837 203.901 197.612 207.621L195.645 213.592L183.604 182.365Z" fill="#2F2E41"/>
<path d="M171.25 246.744L170.316 249.993L167.129 289.178L151.205 318.819L158.805 324.241L180.519 296.046L189.108 268.051L202.596 330.025L212.729 329.301L205.691 243.375L192.337 219.189L171.25 246.744Z" fill="#2F2E41"/>
<path d="M182.416 183.552L192.14 191.49C194.274 193.232 195.811 195.596 196.536 198.251C196.865 199.457 197.022 200.704 197.001 201.954L196.711 219.189L205.626 242.988C205.626 242.988 181.456 252.108 178.233 244.061C175.01 236.014 182.416 183.552 182.416 183.552Z" fill="#D38C88"/>
<path d="M185.324 248.238C173.25 248.238 170.307 248.329 170.116 248.291L169.925 248.252V240.998L172.862 227.967C172.519 223.921 171.715 218.586 171.787 214.018C172.051 197.508 171.238 181.38 171.238 181.38L177.629 175.488L180.532 177.375L185.918 182.754C192.177 198.141 197.145 212.627 197.176 213.558L197.57 229.576L195.958 236.014C188.669 241.153 195.329 248.238 185.324 248.238Z" fill="#2F2E41"/>
<path opacity="0.2" d="M173.947 195.763L172.479 204.915L182.416 209.008L173.947 195.763Z" fill="black"/>
<path d="M183.957 173.771C189.331 173.771 193.687 169.42 193.687 164.053C193.687 158.686 189.331 154.336 183.957 154.336C178.584 154.336 174.228 158.686 174.228 164.053C174.228 169.42 178.584 173.771 183.957 173.771Z" fill="#FFB6B6"/>
<path opacity="0.2" d="M167.655 213.36C170.244 216.355 173.757 218.405 177.64 219.189C181.523 219.973 185.557 219.446 189.108 217.691L191.225 216.644L167.655 213.36Z" fill="black"/>
<path d="M201.511 211.123C201.077 210.636 200.541 210.25 199.942 209.992C199.342 209.734 198.693 209.611 198.041 209.63C197.388 209.65 196.748 209.812 196.165 210.106C195.582 210.399 195.071 210.817 194.667 211.329L184.844 208.575L181.712 214.129L195.639 217.824C196.546 218.445 197.649 218.711 198.739 218.574C199.829 218.437 200.831 217.904 201.555 217.078C202.279 216.252 202.674 215.19 202.666 214.092C202.658 212.994 202.247 211.938 201.511 211.123H201.511Z" fill="#FFB6B6"/>
<path d="M178.068 217.287C173.398 217.287 167.079 214.552 159.577 209.255C159.159 208.965 158.805 208.592 158.539 208.16C158.273 207.727 158.099 207.243 158.03 206.74C157.476 203.239 160.896 198.505 161.231 198.051L164.826 188.191C164.867 188.031 166.026 183.765 168.934 182.247C169.546 181.934 170.219 181.756 170.907 181.727C171.594 181.698 172.28 181.817 172.917 182.078C178.457 184.093 174.131 199.651 173.537 201.691L180.877 205.142L185.537 208.109L191.92 208.776L190.187 216.786L180.494 217.004C179.7 217.198 178.885 217.293 178.068 217.287Z" fill="#2F2E41"/>
<path d="M195.624 157.661C194.845 158.673 192.162 159.568 188.975 160.29C188.98 160.224 188.98 160.157 188.98 160.091C188.964 159.079 188.838 158.071 188.604 157.086C188.383 158.292 187.919 159.441 187.239 160.463C187.188 160.539 187.137 160.615 187.081 160.691C184.347 161.23 181.455 161.647 179.19 161.927C180.748 167.531 186.72 172.128 186.073 175.535L168.575 179.104C168.682 177.689 168.569 176.265 168.239 174.884C167.904 176.706 167.019 178.383 165.703 179.689L164.217 179.994L163.774 177.813C159.935 168.604 165.286 159.176 174.053 154.299C175.616 151.959 178.043 150.332 180.804 149.774L182.988 149.326C184.366 149.045 185.785 149.037 187.166 149.303C188.546 149.57 189.861 150.105 191.034 150.879C192.208 151.653 193.217 152.65 194.005 153.814C194.792 154.978 195.342 156.285 195.624 157.661Z" fill="#2F2E41"/>
<path d="M237.425 333.834L237.684 328.023C240.381 326.583 243.39 325.822 246.448 325.807C242.239 329.245 242.765 335.871 239.911 340.493C239.01 341.928 237.797 343.142 236.362 344.045C234.927 344.948 233.307 345.517 231.623 345.71L228.1 347.864C227.616 345.173 227.723 342.409 228.412 339.762C229.101 337.116 230.357 334.65 232.092 332.535C233.077 331.358 234.207 330.31 235.454 329.415C236.298 331.637 237.425 333.834 237.425 333.834Z" fill="#F2F2F2"/>
<path d="M245.965 348H123.295C123.125 347.999 122.963 347.932 122.844 347.812C122.724 347.692 122.657 347.53 122.657 347.361C122.657 347.192 122.724 347.03 122.844 346.91C122.963 346.79 123.125 346.723 123.295 346.722H245.965C246.049 346.722 246.132 346.738 246.21 346.77C246.288 346.802 246.359 346.849 246.418 346.909C246.478 346.968 246.525 347.039 246.557 347.116C246.59 347.194 246.606 347.277 246.606 347.361C246.606 347.445 246.59 347.528 246.557 347.606C246.525 347.684 246.478 347.754 246.418 347.814C246.359 347.873 246.288 347.92 246.21 347.952C246.132 347.984 246.049 348 245.965 348Z" fill="#CACACA"/>
</g>
<defs>
<clipPath id="clip0_100_216">
<rect width="462" height="296" fill="white" transform="translate(0 52)"/>
</clipPath>
</defs>
</svg>
