<svg width="466" height="382" viewBox="0 0 466 382" fill="none" xmlns="http://www.w3.org/2000/svg">
<g clip-path="url(#clip0_100_53)">
<path d="M350.978 348.564L350.03 368.537L350.03 368.537C349.87 371.913 351.058 375.214 353.333 377.714C355.607 380.214 358.782 381.709 362.158 381.869L362.572 381.889L364.124 349.187L350.978 348.564Z" fill="#2F2E41"/>
<path d="M66.9305 314.811C76.4459 333.375 88.5152 351.328 103.786 367.578C104.125 367.945 104.468 368.302 104.813 368.666L140.994 351.543C140.773 351.175 140.53 350.763 140.269 350.311C124.727 323.727 30.9085 161.563 33.873 124.835C33.5277 127.864 22.4073 228.041 66.9305 314.811Z" fill="#E6E6E6"/>
<path d="M96.8059 370.882C97.3124 371.169 97.8316 371.451 98.3543 371.723L125.496 358.878C125.117 358.609 124.675 358.29 124.167 357.932C115.851 351.964 91.1251 334.057 66.9306 314.811C40.9299 294.13 15.5386 271.908 11.7678 261.301C12.5337 263.733 36.3319 337.669 96.8059 370.882Z" fill="#E6E6E6"/>
<path d="M420.851 381.091C397.717 381.091 378.963 362.343 378.963 339.216C378.963 316.089 397.717 297.341 420.851 297.341C443.984 297.341 462.738 316.089 462.738 339.216C462.738 362.343 443.984 381.091 420.851 381.091Z" fill="#D38C88"/>
<path d="M404.072 321.643H437.629C439.112 321.645 440.534 322.235 441.582 323.283C442.631 324.331 443.22 325.752 443.222 327.235V351.197C443.221 352.68 442.631 354.101 441.582 355.149C440.534 356.197 439.112 356.787 437.629 356.788H404.072C402.589 356.787 401.167 356.197 400.119 355.149C399.07 354.101 398.48 352.68 398.479 351.197V327.235C398.48 325.752 399.07 324.331 400.119 323.283C401.167 322.235 402.589 321.645 404.072 321.643ZM404.072 324.838C403.871 324.839 403.672 324.865 403.478 324.916L420.847 338.767L438.114 324.888C437.954 324.855 437.792 324.838 437.629 324.838H404.072ZM404.072 353.593H437.629C438.265 353.593 438.874 353.34 439.323 352.891C439.773 352.442 440.025 351.832 440.026 351.197V327.45L421.852 342.058C421.569 342.286 421.217 342.41 420.853 342.411C420.49 342.412 420.138 342.289 419.854 342.062L401.675 327.565V351.197C401.675 351.832 401.928 352.441 402.377 352.891C402.827 353.34 403.436 353.593 404.072 353.593Z" fill="white"/>
<path d="M259.196 278.759L249.824 278.836C248.876 278.844 247.937 278.645 247.073 278.252C246.21 277.86 245.442 277.285 244.824 276.566C244.206 275.846 243.753 275.001 243.495 274.089C243.237 273.176 243.182 272.219 243.332 271.283C243.494 270.275 243.89 269.32 244.489 268.493C245.088 267.667 245.872 266.993 246.779 266.525C247.686 266.057 248.691 265.808 249.711 265.799C250.732 265.789 251.741 266.02 252.656 266.471L261.494 270.832L291.725 277.571L304.676 264.334L312.116 276.583L294.639 290.081L259.196 278.759Z" fill="#FFB8B8"/>
<path d="M260.953 375.563L271.995 377.686C279.538 353.917 287.71 331.408 287.709 313.999C298.384 325.875 311.62 332.67 327.207 334.803L325.508 308.479L312.767 301.686L293.267 292.689C291.56 291.901 289.718 291.445 287.84 291.347C284.189 291.155 280.596 292.319 277.753 294.617C274.91 296.914 273.018 300.182 272.44 303.791L260.953 375.563Z" fill="#2F2E41"/>
<path d="M313.829 331.619L318.23 334.963C320.123 336.401 322.358 337.319 324.715 337.626C327.072 337.933 329.469 337.619 331.667 336.714C344.272 327.268 353.228 330.055 361.345 344.312C371.081 333.328 373.483 317.463 364.794 301.049L316.59 302.111L306.821 299.139L313.829 331.619Z" fill="#2F2E41"/>
<path d="M329.883 380.811C332.645 381.661 335.618 381.512 338.281 380.39C340.944 379.268 343.128 377.246 344.449 374.676C348.781 370.862 352.436 365.4 355.606 358.759C357.881 353.887 359.834 348.872 361.453 343.745C363.647 336.972 359.979 329.572 353.152 327.546C352.949 327.485 352.743 327.429 352.536 327.375C343.422 325.036 334.062 330.291 330.947 339.167L321.888 364.977C321.353 366.502 321.124 368.117 321.213 369.73C321.302 371.344 321.708 372.924 322.408 374.38C323.108 375.837 324.089 377.141 325.293 378.219C326.497 379.296 327.902 380.127 329.427 380.662C329.578 380.714 329.73 380.764 329.883 380.811Z" fill="#2F2E41"/>
<path opacity="0.2" d="M357.149 355.82C357.149 355.82 346.531 367.708 344.408 374.502L357.149 355.82Z" fill="black"/>
<path d="M398.328 299.715L401.882 308.385C402.242 309.263 402.405 310.208 402.362 311.155C402.319 312.102 402.069 313.028 401.631 313.869C401.193 314.71 400.576 315.445 399.825 316.023C399.073 316.601 398.204 317.009 397.279 317.217C396.283 317.441 395.249 317.428 394.259 317.179C393.269 316.93 392.351 316.453 391.58 315.785C390.808 315.117 390.204 314.277 389.816 313.333C389.428 312.389 389.268 311.368 389.347 310.35L390.113 300.527L385.141 269.965L368.036 262.862L376.647 251.406L395.676 262.612L398.328 299.715Z" fill="#FFB8B8"/>
<path d="M313.404 301.049C325.607 321.54 349.934 329.475 370.77 313.429C367.104 301.39 355.271 268.117 362.916 266.843C379.147 273.648 379.171 257.671 382.207 249.675L345.257 236.088L325.296 241.608L321.204 243.059C318.541 244.004 316.232 245.741 314.586 248.037C312.94 250.334 312.037 253.078 311.998 255.903C320.383 268.013 326.59 280.932 313.404 301.049Z" fill="#D38C88"/>
<path d="M308.732 284.491L323.385 272.39L318.501 244.156L298.539 265.385L308.732 284.491Z" fill="#D38C88"/>
<path d="M65.6041 90.5264H67.6985V33.1861C67.6985 24.3846 71.1959 15.9436 77.4213 9.71999C83.6468 3.49639 92.0903 0 100.894 0H222.414C231.218 0 239.662 3.49639 245.887 9.71999C252.113 15.9436 255.61 24.3846 255.61 33.1861V347.76C255.61 356.562 252.113 365.003 245.887 371.226C239.662 377.45 231.218 380.946 222.414 380.946H100.895C92.0909 380.946 83.6474 377.45 77.4219 371.226C71.1965 365.003 67.699 356.562 67.699 347.76V131.342H65.6046L65.6041 90.5264Z" fill="#3F3D56"/>
<path d="M99.5552 8.63307H115.417C114.688 10.4211 114.409 12.3611 114.606 14.2822C114.803 16.2033 115.469 18.0465 116.547 19.6493C117.624 21.2522 119.079 22.5655 120.784 23.4736C122.489 24.3817 124.391 24.8566 126.323 24.8566H195.94C197.871 24.8564 199.773 24.3814 201.478 23.4734C203.182 22.5653 204.637 21.2522 205.715 19.6495C206.792 18.0469 207.458 16.204 207.655 14.2832C207.853 12.3623 207.574 10.4225 206.845 8.63465H221.662C228.237 8.63465 234.543 11.2458 239.192 15.8937C243.842 20.5415 246.454 26.8454 246.454 33.4185V347.529C246.454 354.102 243.842 360.406 239.192 365.054C234.543 369.702 228.237 372.313 221.662 372.313H99.5599C92.9848 372.313 86.6791 369.702 82.0298 365.054C77.3806 360.406 74.7687 354.102 74.7687 347.529V347.529V33.4169C74.7687 26.8438 77.3806 20.54 82.0298 15.8921C86.6791 11.2442 92.9848 8.63306 99.5599 8.63306H99.5551L99.5552 8.63307Z" fill="white"/>
<path d="M160.399 354.759C152.881 354.759 146.786 348.666 146.786 341.15C146.786 333.634 152.881 327.541 160.399 327.541C167.918 327.541 174.013 333.634 174.013 341.15C174.013 348.666 167.918 354.759 160.399 354.759Z" fill="#E6E6E6"/>
<path d="M215.626 215.29C216.913 215.29 217.96 216.485 217.96 217.953C217.96 219.422 216.913 220.616 215.626 220.616H105.596C104.309 220.616 103.262 219.422 103.262 217.953C103.262 216.485 104.309 215.29 105.596 215.29H215.626Z" fill="#E6E6E6"/>
<path d="M215.626 278.103C216.913 278.103 217.96 279.298 217.96 280.766C217.96 282.234 216.913 283.429 215.626 283.429H105.596C104.309 283.429 103.262 282.234 103.262 280.766C103.262 279.298 104.309 278.103 105.596 278.103H215.626Z" fill="#E6E6E6"/>
<path d="M215.626 231.269C216.913 231.269 217.96 232.464 217.96 233.932C217.96 235.401 216.913 236.596 215.626 236.596H168.28C166.993 236.596 165.946 235.401 165.946 233.932C165.946 232.464 166.993 231.269 168.28 231.269H215.626Z" fill="#E6E6E6"/>
<path d="M215.626 246.5C216.913 246.5 217.96 247.695 217.96 249.164C217.96 250.632 216.913 251.827 215.626 251.827H105.596C104.309 251.827 103.262 250.632 103.262 249.164C103.262 247.695 104.309 246.5 105.596 246.5H215.626Z" fill="#E6E6E6"/>
<path d="M215.626 262.48C216.913 262.48 217.96 263.675 217.96 265.143C217.96 266.611 216.913 267.806 215.626 267.806H168.28C166.993 267.806 165.946 266.611 165.946 265.143C165.946 263.675 166.993 262.48 168.28 262.48H215.626Z" fill="#E6E6E6"/>
<path d="M194.854 94.0242H126.361C125.604 94.0251 124.879 94.3259 124.344 94.8608C123.809 95.3957 123.508 96.1208 123.507 96.8772V168.189C123.508 168.945 123.809 169.671 124.344 170.205C124.879 170.74 125.604 171.041 126.361 171.042H194.854C195.611 171.041 196.336 170.74 196.871 170.205C197.406 169.671 197.707 168.945 197.708 168.189V96.8772C197.707 96.1208 197.406 95.3956 196.871 94.8608C196.336 94.3259 195.611 94.0251 194.854 94.0242Z" fill="#D38C88"/>
<path d="M140.956 156.336C140.701 156.337 140.449 156.287 140.213 156.19C139.978 156.093 139.764 155.951 139.583 155.771C139.403 155.591 139.26 155.377 139.162 155.142C139.064 154.907 139.014 154.655 139.014 154.4C139.014 154.146 139.064 153.894 139.161 153.658C139.259 153.423 139.402 153.209 139.582 153.029C139.762 152.849 139.976 152.707 140.211 152.609C140.447 152.512 140.699 152.462 140.954 152.462H180.26C180.514 152.462 180.767 152.512 181.002 152.609C181.238 152.706 181.452 152.848 181.632 153.028C181.812 153.208 181.955 153.421 182.053 153.657C182.151 153.892 182.201 154.144 182.201 154.398C182.201 154.653 182.151 154.905 182.054 155.14C181.956 155.376 181.814 155.589 181.633 155.769C181.453 155.949 181.239 156.092 181.004 156.189C180.769 156.287 180.516 156.337 180.262 156.336H140.956Z" fill="white"/>
<path d="M140.956 144.924C140.442 144.924 139.949 144.72 139.586 144.357C139.222 143.993 139.018 143.501 139.018 142.987C139.018 142.473 139.222 141.981 139.586 141.617C139.949 141.254 140.442 141.05 140.956 141.05H180.26C180.774 141.05 181.267 141.254 181.63 141.617C181.994 141.98 182.198 142.472 182.198 142.986C182.198 143.5 181.995 143.993 181.631 144.356C181.268 144.719 180.776 144.924 180.262 144.924H140.956Z" fill="white"/>
<path d="M160.608 108.73C158.196 108.73 155.838 109.445 153.832 110.785C151.827 112.124 150.263 114.029 149.34 116.256C148.417 118.484 148.176 120.936 148.646 123.301C149.117 125.666 150.278 127.838 151.984 129.543C153.69 131.249 155.863 132.41 158.229 132.88C160.594 133.351 163.046 133.109 165.275 132.186C167.503 131.264 169.408 129.701 170.748 127.696C172.088 125.691 172.804 123.334 172.804 120.922C172.8 117.69 171.514 114.591 169.228 112.305C166.941 110.019 163.841 108.734 160.608 108.73Z" fill="white"/>
<path d="M316.218 232.392H352.425C353.169 232.391 353.883 232.095 354.41 231.568C354.937 231.042 355.233 230.328 355.234 229.584V213.982C355.234 208.437 353.031 203.12 349.109 199.199C345.187 195.278 339.868 193.076 334.321 193.076C328.775 193.076 323.456 195.278 319.534 199.199C315.612 203.12 313.409 208.437 313.409 213.982V229.584C313.41 230.328 313.706 231.042 314.233 231.568C314.759 232.095 315.473 232.391 316.218 232.392Z" fill="#2F2E41"/>
<path d="M316.871 223.476C312.809 216.049 315.54 206.735 322.97 202.675C330.4 198.615 339.716 201.344 343.777 208.772C347.839 216.2 345.108 225.513 337.678 229.574C330.248 233.634 320.932 230.904 316.871 223.476Z" fill="#FFB6B6"/>
<path d="M308.462 215.542H330.601L330.828 212.365L331.963 215.542H335.372L335.822 209.244L338.072 215.542H344.668V215.23C344.663 210.846 342.919 206.642 339.818 203.542C336.716 200.441 332.512 198.697 328.126 198.692H325.004C320.618 198.697 316.414 200.441 313.312 203.542C310.211 206.642 308.467 210.846 308.462 215.23V215.542Z" fill="#2F2E41"/>
<path d="M330.782 235.304C330.949 235.304 331.115 235.289 331.279 235.26L347.491 232.401V205.616H329.645L330.087 206.131C336.234 213.298 331.603 224.919 328.295 231.209C328.051 231.669 327.943 232.19 327.982 232.709C328.021 233.229 328.206 233.727 328.515 234.146C328.775 234.505 329.115 234.797 329.509 234.998C329.903 235.199 330.34 235.304 330.782 235.304Z" fill="#2F2E41"/>
<path d="M276.808 367.547L256.807 367.546H256.806C253.425 367.546 250.183 368.889 247.793 371.278C245.403 373.668 244.06 376.909 244.059 380.288V380.702L276.807 380.704L276.808 367.547Z" fill="#2F2E41"/>
</g>
<defs>
<clipPath id="clip0_100_53">
<rect width="466" height="382" fill="white" transform="matrix(-1 0 0 1 466 0)"/>
</clipPath>
</defs>
</svg>
