<svg width="802" height="802" viewBox="0 0 802 802" fill="none" xmlns="http://www.w3.org/2000/svg">
<g filter="url(#filter0_d_319_3)">
<path d="M725.12 73.1426V203.002H538.607L531.886 74.0408L725.12 73.1426Z" fill="#E0E0E0"/>
<path d="M531.886 74.0406V202.729H718.399V74.0406H531.886Z" fill="white"/>
<path d="M719.298 203.612H531.004V73.1587H719.298V203.612ZM532.769 201.848H717.518V74.9231H532.769V201.848Z" fill="#E0E0E0"/>
<path d="M698.205 90.0327H552.097V186.738H698.205V90.0327Z" fill="white"/>
<path d="M698.205 90.0327H697.483H695.414H687.394L657.287 90.145L552.113 90.3535L552.53 89.9365C552.53 119.482 552.53 152.22 552.53 186.626L552.081 186.16L698.189 186.257L697.82 186.626C697.9 157.192 697.965 133.068 698.013 116.258C698.013 107.869 698.093 101.309 698.109 96.8016C698.109 94.5881 698.109 92.8879 698.109 91.7009C698.109 90.53 698.109 89.9205 698.109 89.9205C698.109 89.9205 698.109 90.4819 698.109 91.6207C698.109 92.7595 698.109 94.4758 698.109 96.6573C698.109 101.148 698.109 107.677 698.205 116.034C698.205 132.892 698.317 157.096 698.398 186.61V186.979H698.029L551.92 187.075H551.455V186.61C551.455 152.204 551.455 119.466 551.455 89.9205V89.5034H551.888L657.64 89.8242L687.651 89.9365H695.591H697.612L698.205 90.0327Z" fill="#E0E0E0"/>
<path d="M531.886 73.688C533.037 74.2427 534.114 74.9377 535.094 75.7571C537.003 77.1366 539.601 79.0935 542.408 81.3391C545.215 83.5847 547.686 85.702 549.418 87.306C550.424 88.096 551.325 89.0125 552.097 90.0328C548.542 87.5334 545.116 84.8567 541.831 82.0128C538.348 79.445 535.027 76.6648 531.886 73.688Z" fill="#E0E0E0"/>
<path d="M718.415 74.0405C715.343 77.0525 712.063 79.845 708.599 82.3974C705.317 85.1822 701.844 87.7335 698.205 90.0324C701.274 87.0161 704.554 84.2234 708.022 81.6756C711.303 78.8907 714.777 76.3394 718.415 74.0405Z" fill="#E0E0E0"/>
<path d="M718.255 202.746L697.403 185.888L718.255 202.746Z" fill="white"/>
<path d="M697.467 185.888C701.205 188.317 704.774 190.997 708.15 193.908C711.716 196.602 715.092 199.539 718.255 202.698C714.518 200.268 710.949 197.589 707.572 194.678C704.006 191.983 700.63 189.046 697.467 185.888Z" fill="#E0E0E0"/>
<path d="M531.886 202.73C534.924 199.742 538.173 196.976 541.606 194.453C544.844 191.691 548.281 189.171 551.888 186.914C548.851 189.898 545.603 192.659 542.168 195.175C538.928 197.938 535.491 200.463 531.886 202.73Z" fill="#E0E0E0"/>
<path d="M581.755 120.156V152.541H673.696V120.156H581.755Z" fill="#E0E0E0"/>
<path d="M589.759 769.102H755.131L755.131 289.105H589.759V769.102Z" fill="#E0E0E0"/>
<path d="M500.993 769.102H682.053L682.053 289.105H500.993L500.993 769.102Z" fill="#F5F5F5"/>
<path d="M612.151 657.095H563.774C562.859 657.095 561.982 656.731 561.335 656.085C560.689 655.438 560.325 654.561 560.325 653.646V650.775H615.599V653.646C615.599 654.561 615.236 655.438 614.589 656.085C613.942 656.731 613.065 657.095 612.151 657.095Z" fill="#E0E0E0"/>
<path d="M508.997 650.775C508.997 650.775 508.997 651.353 508.997 652.507C508.997 653.662 508.997 655.411 508.997 657.656C508.997 662.228 508.997 668.884 508.901 677.466C508.901 694.709 508.789 719.507 508.708 749.87V750.239H509.077L670.424 750.335H670.969V749.87C670.969 714.807 670.969 681.363 670.969 650.919V650.502H670.472L554.054 650.599L520.835 650.679H512.029H509.767H509.029H509.831H512.125H521.011L554.342 650.823L670.472 651.144L670.039 650.711C670.039 681.187 670.039 714.598 670.039 749.662L670.504 749.213H670.408L509.061 749.309L509.414 749.662C509.334 719.394 509.27 694.661 509.222 677.482C509.222 668.884 509.222 662.18 509.142 657.592C509.142 655.314 509.142 653.582 509.142 652.379C509.142 651.176 508.997 650.775 508.997 650.775Z" fill="#E0E0E0"/>
<path d="M562.507 687.972H610.546V674.995H562.507V687.972Z" fill="#E0E0E0"/>
<path d="M614.348 541.607H565.988C565.073 541.607 564.196 541.244 563.549 540.597C562.902 539.95 562.539 539.073 562.539 538.158V535.287H617.797V538.158C617.797 539.073 617.434 539.95 616.787 540.597C616.14 541.244 615.263 541.607 614.348 541.607Z" fill="#E0E0E0"/>
<path d="M509.446 535.271C509.446 535.271 509.446 535.848 509.446 537.003C509.446 538.158 509.446 539.922 509.446 542.152C509.446 546.723 509.446 553.38 509.35 561.961C509.35 579.204 509.238 604.002 509.158 634.382V634.735H509.527L670.873 634.831H671.418V634.382C671.418 599.302 671.418 565.859 671.418 535.431V534.998H671.001L554.583 535.094L521.364 535.191H512.558H510.297H509.559H510.361H512.654H521.541L554.872 535.351L671.001 535.656L670.568 535.239C670.568 565.715 670.568 599.11 670.568 634.189L671.033 633.724H670.937L509.591 633.82L509.944 634.189C509.864 603.906 509.799 579.188 509.751 562.009C509.751 553.412 509.751 546.707 509.751 542.12C509.751 539.858 509.751 538.11 509.751 536.907C509.751 535.704 509.446 535.271 509.446 535.271Z" fill="#E0E0E0"/>
<path d="M566.132 571.698H614.172V558.721H566.132V571.698Z" fill="#E0E0E0"/>
<path d="M612.247 308.53H563.87C562.955 308.53 562.078 308.166 561.432 307.52C560.785 306.873 560.421 305.996 560.421 305.081V302.21H615.695V305.081C615.695 305.534 615.606 305.982 615.433 306.401C615.26 306.819 615.006 307.199 614.685 307.52C614.365 307.84 613.985 308.094 613.566 308.267C613.148 308.441 612.7 308.53 612.247 308.53Z" fill="#E0E0E0"/>
<path d="M509.077 302.194C509.077 302.194 509.077 302.771 509.077 303.926C509.077 305.081 509.077 306.845 509.077 309.075C509.077 313.646 509.077 320.303 508.997 328.884C508.997 346.127 508.885 370.925 508.805 401.305V401.658H509.158L670.52 401.77H671.065V401.305C671.065 366.225 671.065 332.782 671.065 302.354V301.921H670.472L554.07 302.017L520.835 302.113H512.029H509.783H509.029C509.296 302.127 509.564 302.127 509.831 302.113H512.125H521.027L554.342 302.258L670.472 302.563L670.039 302.145C670.039 332.621 670.039 366.017 670.039 401.096L670.504 400.631L509.142 400.727L509.51 401.096C509.43 370.813 509.366 346.095 509.318 328.916C509.318 320.319 509.238 313.614 509.222 309.027C509.222 306.765 509.222 305.017 509.222 303.814C509.222 302.611 509.077 302.194 509.077 302.194Z" fill="#E0E0E0"/>
<path d="M564.897 336.295H612.937V323.319H564.897V336.295Z" fill="#E0E0E0"/>
<path d="M612.247 425.028H563.87C562.956 425.028 562.078 424.664 561.432 424.018C560.785 423.371 560.422 422.494 560.422 421.579V418.612H615.695V421.483C615.708 421.944 615.629 422.403 615.461 422.832C615.294 423.262 615.042 423.653 614.72 423.984C614.399 424.314 614.014 424.577 613.589 424.756C613.164 424.936 612.708 425.028 612.247 425.028Z" fill="#E0E0E0"/>
<path d="M509.077 418.644C509.077 418.644 509.077 419.222 509.077 420.376C509.077 421.531 509.077 423.28 509.077 425.525C509.077 430.097 509.077 436.753 508.997 445.335C508.997 462.578 508.885 487.376 508.805 517.739V518.092H509.158L670.52 518.188H671.065V517.723C671.065 482.66 671.065 449.216 671.065 418.772V418.355H670.472L554.07 418.452H520.835H512.029H509.783H509.029H509.831H512.125H521.027L554.342 418.596L670.472 418.917L670.039 418.484C670.039 448.96 670.039 482.371 670.039 517.435L670.504 516.985L509.142 517.082L509.51 517.435C509.43 487.167 509.366 462.433 509.318 445.255C509.318 436.657 509.238 429.952 509.222 425.365C509.222 423.087 509.222 421.355 509.222 420.152C509.222 418.949 509.077 418.644 509.077 418.644Z" fill="#E0E0E0"/>
<path d="M564.897 452.761H612.937V439.785H564.897V452.761Z" fill="#E0E0E0"/>
<path d="M246.423 69.9023H73.0464V225.009H246.423V69.9023Z" fill="#FAFAFA"/>
<path d="M246.423 225.009C246.423 225.009 246.423 224.015 246.423 222.122C246.423 220.229 246.423 217.438 246.423 213.813C246.423 206.531 246.423 195.897 246.31 182.327C246.31 155.235 246.198 116.563 246.118 69.9024L246.503 70.2874H73.1424L73.6076 69.8222C73.6076 126.251 73.6076 179.343 73.6076 224.929L73.1906 224.512L198.591 224.72L233.96 224.833H243.327H245.733H246.567H245.781H243.407H234.136L198.848 224.929L73.1906 225.138H72.7896V224.737C72.7896 179.151 72.7896 126.058 72.7896 69.6297V69.1646H73.2707H246.631H247.032V69.5656C246.936 116.274 246.872 155.075 246.824 182.247C246.824 195.768 246.743 206.307 246.727 213.637C246.727 217.23 246.727 220.053 246.727 221.881C246.727 223.71 246.423 225.009 246.423 225.009Z" fill="#E0E0E0"/>
<path d="M139.548 97.4593C139.548 97.7159 130.421 97.9245 119.161 97.9245C107.901 97.9245 98.7905 97.7159 98.7905 97.4593C98.7905 97.2027 107.901 96.9941 119.161 96.9941C130.421 96.9941 139.548 97.2027 139.548 97.4593Z" fill="#E0E0E0"/>
<path d="M212.995 109.072C212.995 109.329 187.925 109.537 157 109.537C126.075 109.537 101.052 109.361 101.052 109.072C101.052 108.783 126.123 108.607 157.048 108.607C187.973 108.607 212.995 108.848 212.995 109.072Z" fill="#E0E0E0"/>
<path d="M106.361 128.833H99.063V136.132H106.361V128.833Z" fill="#E0E0E0"/>
<path d="M124.342 128.833H117.044V136.132H124.342V128.833Z" fill="#E0E0E0"/>
<path d="M142.66 128.497H135.362V135.795H142.66V128.497Z" fill="#E0E0E0"/>
<path d="M160.304 128.833H153.006V136.132H160.304V128.833Z" fill="#E0E0E0"/>
<path d="M178.285 128.833H170.986V136.132H178.285V128.833Z" fill="#E0E0E0"/>
<path d="M196.265 128.833H188.967V136.132H196.265V128.833Z" fill="#E0E0E0"/>
<path d="M214.246 128.833H206.948V136.132H214.246V128.833Z" fill="#EBEBEB"/>
<path d="M106.361 144.36H99.063V151.658H106.361V144.36Z" fill="#EBEBEB"/>
<path d="M124.342 144.36H117.044V151.658H124.342V144.36Z" fill="#E0E0E0"/>
<path d="M142.323 144.36H135.025V151.658H142.323V144.36Z" fill="#EBEBEB"/>
<path d="M160.304 144.36H153.006V151.658H160.304V144.36Z" fill="#E0E0E0"/>
<path d="M178.285 144.36H170.986V151.658H178.285V144.36Z" fill="#E0E0E0"/>
<path d="M196.586 144.023H189.288V151.322H196.586V144.023Z" fill="#E0E0E0"/>
<path d="M214.246 144.36H206.948V151.658H214.246V144.36Z" fill="#E0E0E0"/>
<path d="M106.361 159.887H99.063V167.185H106.361V159.887Z" fill="#E0E0E0"/>
<path d="M124.679 159.55H117.381V166.848H124.679V159.55Z" fill="#E0E0E0"/>
<path d="M142.323 159.887H135.025V167.185H142.323V159.887Z" fill="#E0E0E0"/>
<path d="M160.304 159.887H153.006V167.185H160.304V159.887Z" fill="#EBEBEB"/>
<path d="M178.285 159.887H170.986V167.185H178.285V159.887Z" fill="#E0E0E0"/>
<path d="M196.265 159.887H188.967V167.185H196.265V159.887Z" fill="#E0E0E0"/>
<path d="M214.246 159.887H206.948V167.185H214.246V159.887Z" fill="#E0E0E0"/>
<path d="M106.361 175.414H99.063V182.712H106.361V175.414Z" fill="#E0E0E0"/>
<path d="M124.342 175.414H117.044V182.712H124.342V175.414Z" fill="#E0E0E0"/>
<path d="M142.323 175.414H135.025V182.712H142.323V175.414Z" fill="#E0E0E0"/>
<path d="M160.641 175.093H153.342V182.391H160.641V175.093Z" fill="#E0E0E0"/>
<path d="M178.285 175.414H170.986V182.712H178.285V175.414Z" fill="#E0E0E0"/>
<path d="M196.265 175.414H188.967V182.712H196.265V175.414Z" fill="#EBEBEB"/>
<path d="M214.246 175.414H206.948V182.712H214.246V175.414Z" fill="#E0E0E0"/>
<path d="M106.361 190.94H99.063V198.239H106.361V190.94Z" fill="#E0E0E0"/>
<path d="M124.342 190.94H117.044V198.239H124.342V190.94Z" fill="#EBEBEB"/>
<path d="M142.323 190.94H135.025V198.239H142.323V190.94Z" fill="#E0E0E0"/>
<path d="M160.304 190.94H153.006V198.239H160.304V190.94Z" fill="#E0E0E0"/>
<path d="M178.285 190.94H170.986V198.239H178.285V190.94Z" fill="#E0E0E0"/>
<path d="M196.586 190.62H189.288V197.918H196.586V190.62Z" fill="#E0E0E0"/>
<path d="M214.246 190.94H206.948V198.239H214.246V190.94Z" fill="#E0E0E0"/>
<path d="M392.159 300.848L332.369 323.357L347.543 363.663L407.333 341.154L392.159 300.848Z" fill="#EBEBEB"/>
<path d="M392.531 301.295C392.443 301.56 392.325 301.813 392.178 302.049L391.071 304.134C390.045 305.979 388.617 308.578 386.869 311.754C383.244 318.17 378.271 327.056 372.786 336.856L372.674 337.065H372.433L371.888 336.888L344.17 327.794L335.781 324.97L333.52 324.185C333.247 324.105 332.984 323.998 332.734 323.864C333.011 323.915 333.284 323.985 333.552 324.072L335.862 324.762L344.299 327.409L372.128 336.263L372.674 336.439L372.321 336.583C377.887 326.815 382.891 317.993 386.564 311.561L390.911 304.022L392.13 301.985C392.243 301.744 392.377 301.513 392.531 301.295Z" fill="#E0E0E0"/>
<path d="M347.908 364.108C347.763 364.108 350.169 356.842 353.313 347.988C356.457 339.134 359.103 331.948 359.248 332.06C359.392 332.172 356.986 339.342 353.858 348.1C350.731 356.858 348.068 364.108 347.908 364.108Z" fill="#E0E0E0"/>
<path d="M378.945 324.088C379.025 323.944 385.538 327.762 393.477 332.59C401.417 337.418 407.785 341.46 407.705 341.604C407.625 341.748 401.112 337.931 393.173 333.087C385.233 328.243 378.865 324.217 378.945 324.088Z" fill="#E0E0E0"/>
<path d="M469.587 173.633C471.115 172.706 472.761 171.989 474.479 171.5L475.49 166.688L483.67 166.543L484.857 171.355C486.591 171.779 488.258 172.437 489.814 173.312L493.952 170.602L499.839 176.28L497.272 180.514C498.198 182.014 498.916 183.633 499.406 185.326L504.218 186.321L504.362 194.517L499.55 195.688C499.122 197.423 498.47 199.095 497.609 200.661L500.32 204.783L494.626 210.669L490.407 208.119C488.875 209.034 487.231 209.746 485.515 210.236L484.504 215.048L476.324 215.193L475.137 210.381C473.406 209.95 471.739 209.292 470.181 208.424L466.042 211.135L460.156 205.44L462.722 201.222C461.792 199.696 461.075 198.05 460.589 196.33L455.777 195.319L455.632 187.139L460.444 185.952C460.869 184.221 461.522 182.554 462.385 180.995L459.674 176.857L465.369 170.97L469.587 173.537V173.633ZM473.95 184.524C472.74 185.773 471.927 187.353 471.615 189.064C471.303 190.776 471.505 192.541 472.197 194.137C472.888 195.733 474.038 197.087 475.5 198.03C476.962 198.972 478.671 199.46 480.41 199.43C482.149 199.401 483.84 198.857 485.27 197.866C486.699 196.875 487.802 195.482 488.44 193.864C489.078 192.246 489.221 190.475 488.851 188.775C488.482 187.075 487.617 185.523 486.365 184.316C485.541 183.509 484.566 182.873 483.495 182.444C482.425 182.015 481.281 181.801 480.128 181.814C478.975 181.828 477.835 182.068 476.775 182.522C475.715 182.976 474.755 183.635 473.95 184.46V184.524Z" fill="#E0E0E0"/>
<path d="M473.95 184.46C474.406 183.903 474.947 183.421 475.554 183.033C476.611 182.347 477.801 181.894 479.046 181.703C480.292 181.513 481.563 181.589 482.777 181.927C483.99 182.266 485.118 182.858 486.085 183.665C487.052 184.472 487.836 185.476 488.386 186.61C489.18 188.207 489.476 190.006 489.236 191.774C488.978 193.679 488.125 195.453 486.798 196.843C485.461 198.222 483.719 199.138 481.826 199.458C480.933 199.602 480.023 199.602 479.131 199.458C478.266 199.35 477.422 199.112 476.629 198.752C475.164 198.088 473.902 197.047 472.971 195.736C472.174 194.589 471.657 193.27 471.464 191.887C471.16 189.886 471.568 187.842 472.619 186.112C472.984 185.508 473.445 184.966 473.982 184.508C473.982 184.508 473.453 185.086 472.779 186.289C471.837 188.005 471.498 189.987 471.817 191.919C472.025 193.239 472.542 194.492 473.324 195.576C474.22 196.813 475.426 197.792 476.821 198.415C477.571 198.748 478.365 198.969 479.179 199.073C480.029 199.208 480.895 199.208 481.745 199.073C483.534 198.768 485.18 197.903 486.445 196.602C487.7 195.28 488.509 193.597 488.755 191.79C488.956 190.144 488.684 188.475 487.969 186.978C487.304 185.599 486.285 184.42 485.017 183.562C483.907 182.821 482.638 182.354 481.312 182.199C479.375 181.948 477.409 182.354 475.73 183.353C474.511 183.979 473.998 184.572 473.95 184.46Z" fill="#E0E0E0"/>
<path d="M469.587 173.633L469.315 173.489L468.513 173.024L465.304 171.131H465.401L459.755 177.066V176.905L462.481 181.027C461.625 182.581 460.983 184.243 460.573 185.968V186.064H460.476L455.664 187.267L455.793 187.091C455.793 189.657 455.905 192.4 455.953 195.271L455.809 195.079L460.621 196.073H460.733V196.185C461.223 197.876 461.935 199.494 462.85 200.997V201.11V201.222L460.348 205.665V205.376L466.251 211.054H465.962L470.084 208.328L470.213 208.247L470.341 208.328C471.885 209.184 473.535 209.831 475.249 210.252H475.394V210.397L476.565 215.209L476.324 215.032L484.504 214.888L484.264 215.08C484.585 213.476 484.937 211.872 485.274 210.268V210.124H485.419C487.112 209.649 488.732 208.942 490.231 208.023H490.375H490.503L494.722 210.589H494.417L500.095 204.703V205.007C499.181 203.612 498.267 202.232 497.385 200.869L497.304 200.741V200.612C498.167 199.07 498.82 197.419 499.245 195.704V195.56H499.39L504.202 194.389L504.025 194.629C504.025 191.838 503.977 189.112 503.881 186.449L504.073 186.674L499.261 185.647H499.133V185.503C498.655 183.813 497.954 182.195 497.048 180.691V180.578V180.466L499.614 176.232V176.488L493.743 170.794H493.984L489.846 173.489H489.749H489.653C488.104 172.628 486.449 171.975 484.729 171.548H484.633V171.452C484.216 169.703 483.831 168.131 483.462 166.64L483.622 166.752L475.426 166.848H475.538C475.121 168.773 474.784 170.361 474.495 171.66C473.204 172.012 471.951 172.496 470.758 173.104L469.876 173.553L469.571 173.713C469.653 173.637 469.745 173.573 469.844 173.521L470.71 173.024C471.9 172.389 473.153 171.878 474.447 171.5C474.704 170.184 475.025 168.596 475.41 166.688V166.591H475.506L483.686 166.415H483.815V166.527C484.184 168.019 484.585 169.591 485.018 171.339L484.889 171.227C486.643 171.652 488.331 172.31 489.91 173.184H489.717L493.856 170.473L493.984 170.377L494.096 170.489L499.983 176.167L500.111 176.28L500.015 176.424L497.465 180.659V180.434C498.403 181.975 499.126 183.637 499.614 185.374L499.454 185.214L504.266 186.208H504.442V186.385C504.442 189.047 504.554 191.774 504.603 194.565V194.758H504.41L499.598 195.945L499.774 195.768C499.343 197.522 498.68 199.21 497.802 200.789V200.5L500.528 204.638L500.625 204.799L500.496 204.943L494.802 210.83L494.674 210.974L494.497 210.878L490.263 208.312H490.519C488.978 209.248 487.316 209.971 485.579 210.461L485.756 210.268C485.403 211.872 485.066 213.589 484.745 215.08V215.289H484.553L476.372 215.417H476.18V215.225C475.763 213.621 475.362 211.921 474.993 210.413L475.169 210.589C473.417 210.152 471.73 209.489 470.149 208.616H470.405L466.267 211.327L466.106 211.423L465.978 211.295L460.091 205.601L459.963 205.488L460.059 205.328C460.958 203.852 461.824 202.409 462.626 201.11V201.334C461.694 199.786 460.977 198.119 460.492 196.378L460.637 196.522L455.825 195.512H455.664V195.351C455.664 192.48 455.568 189.753 455.536 187.171V187.026H455.664L460.476 185.856L460.348 186.064C460.78 184.315 461.444 182.632 462.321 181.06V181.22C461.343 179.728 460.444 178.333 459.626 177.066L465.337 171.211L468.545 173.136L469.331 173.649C469.507 173.553 469.587 173.617 469.587 173.633Z" fill="#E0E0E0"/>
<path d="M72.9819 752.79C70.0466 750.287 63.5183 742.316 68.5549 733.06C70.3995 729.676 74.3293 727.992 77.8741 726.5C81.419 725.008 85.1563 723.709 88.0916 721.207C93.6414 716.491 95.1652 708.664 98.8384 702.376C103.073 695.158 110.949 689.736 119.273 690.121C128.897 690.554 136.757 698.35 140.366 707.22C143.975 716.09 144.103 725.955 144.167 735.547C144.167 740.856 143.975 746.775 140.077 750.416C136.5 753.72 131.095 753.752 126.235 753.624L74.1208 752.02" fill="#F5F5F5"/>
<path d="M172.639 609.52H35.6089L60.2944 756.703C60.8016 759.771 62.17 762.632 64.2402 764.952C66.3104 767.272 68.9972 768.956 71.9876 769.808L72.4688 769.952C72.8698 770.048 73.2708 770.193 73.6878 770.257C74.607 770.445 75.5409 770.553 76.4788 770.578V770.722L77.1525 770.61H138.249C139.374 770.61 140.497 770.503 141.601 770.289C145.175 769.733 148.468 768.02 150.975 765.412C153.481 762.805 155.062 759.446 155.476 755.853L167.361 654.432L167.907 650.39L172.623 610.29L172.639 609.52ZM146.798 703.386H132.731L134.143 660.672H150.439L146.798 703.386ZM151.803 660.672H165.212L160.192 703.386H148.162L151.803 660.672ZM111.703 750.752L110.853 713.636H131.031L129.796 750.752H111.703ZM89.7278 713.636H109.409L110.259 750.752H92.615L89.7278 713.636ZM91.3318 750.752H74.7625C73.1585 740.727 71.1535 727.703 68.94 713.636H88.3644L91.3318 750.752ZM89.0221 703.386L85.7018 660.672H108.19L109.168 703.386H89.0221ZM110.612 703.386L109.633 660.672H132.779L131.368 703.386H110.612ZM109.393 650.454L108.479 610.899H134.447L133.132 650.422L109.393 650.454ZM108.029 650.454H84.8196L81.8041 610.867H107.051L108.029 650.454ZM83.4081 650.422H58.9792C58.113 644.968 57.295 639.788 56.5411 635.136C53.9907 619.096 53.0283 613.129 52.499 610.867H80.3765L83.4081 650.422ZM84.2101 660.672L87.5304 703.386H67.3681C66.6784 699.055 65.9886 694.676 65.2989 690.281L60.6313 660.672H84.2101ZM65.9566 703.386H52.7236L45.5697 660.672H59.2198C61.305 673.873 63.6308 688.565 65.9566 703.386ZM67.5606 713.636C69.5816 726.468 71.5545 739.139 73.3831 750.752H60.6794L54.4398 713.636H67.5606ZM131.159 750.752L132.394 713.636H145.964L142.756 750.752H131.159ZM134.479 650.422L135.795 610.867H154.69L151.321 650.422H134.479ZM51.1998 610.867C51.7451 613.722 54.2474 629.297 57.6158 650.422H43.8534L37.2129 610.867H51.1998ZM154.706 750.752H144.103L147.311 713.636H159.085L154.706 750.752ZM166.479 650.422H152.685L156.069 610.867H171.115L166.479 650.422Z" fill="#E0E0E0"/>
<path d="M730.622 769.102C730.622 769.343 583.76 769.519 402.62 769.519C221.48 769.519 74.5859 769.343 74.5859 769.102C74.5859 768.861 221.416 768.685 402.62 768.685C583.824 768.685 730.622 768.878 730.622 769.102Z" fill="#263238"/>
<path d="M590.897 403.935C590.897 403.935 609.841 382.137 616.994 360.323C624.148 338.508 620.748 341.075 620.748 341.075C620.748 341.075 611.124 362.247 603.778 372.481C596.431 382.714 583.391 397.728 583.391 397.728L590.897 403.935Z" fill="#455A64"/>
<path d="M587.064 344.411C587.193 344.19 587.394 344.02 587.634 343.931C587.874 343.841 588.138 343.838 588.38 343.921C588.622 344.005 588.828 344.169 588.963 344.387C589.097 344.605 589.152 344.863 589.117 345.117C587.962 352.784 585.46 370.781 585.556 382.41C585.685 397.552 585.556 403.406 585.556 403.406H577.665C577.665 403.406 579.076 372.096 580.873 362.552C582.037 356.235 584.124 350.123 587.064 344.411Z" fill="#455A64"/>
<path d="M582.829 400.872C579.52 393.384 577.331 385.45 576.333 377.325C575.692 371.743 576.847 364.204 578.563 354.163C579.23 350.458 579.568 346.7 579.573 342.935C579.564 342.52 579.419 342.119 579.16 341.794C578.9 341.47 578.541 341.239 578.138 341.139C577.735 341.039 577.31 341.074 576.929 341.239C576.547 341.404 576.231 341.69 576.028 342.053C574.121 345.573 572.645 349.311 571.634 353.185C569.725 363.113 567.559 368.07 569.211 377.501C570.864 386.933 576.975 401.417 576.975 401.417L582.829 400.872Z" fill="#455A64"/>
<path d="M575.724 401.497C575.724 401.497 554.872 356.794 553.476 350.17C552.081 343.545 547.14 328.243 546.563 329.109C545.986 329.975 545.119 338.059 548.873 347.282C552.626 356.505 568.618 402.861 568.618 402.861H575.724" fill="#455A64"/>
<path d="M585.107 399.508C585.107 399.508 585.315 399.38 585.684 399.107C586.053 398.834 586.615 398.433 587.288 397.872C589.23 396.32 591.093 394.671 592.87 392.932C598.711 387.164 603.769 380.655 607.916 373.571C612.084 366.493 615.554 359.026 618.278 351.276C619.336 348.308 620.09 345.886 620.587 344.186C620.844 343.352 621.021 342.694 621.133 342.245C621.212 342.022 621.265 341.791 621.293 341.556C621.293 341.556 621.197 341.78 621.053 342.213L620.427 344.138C619.882 345.742 619.064 348.228 617.989 351.18C615.203 358.874 611.724 366.299 607.595 373.363C603.454 380.426 598.437 386.936 592.662 392.739C590.448 394.953 588.539 396.637 587.192 397.776L585.588 399.059C585.415 399.194 585.254 399.345 585.107 399.508Z" fill="#263238"/>
<path d="M582.829 378.063C582.932 377.631 582.996 377.191 583.022 376.747C583.118 375.817 583.246 374.614 583.391 373.155C583.727 370.139 584.241 365.969 584.995 361.381C585.748 356.794 586.599 352.671 587.192 349.704L587.946 346.175C588.062 345.75 588.137 345.315 588.171 344.876C588.013 345.291 587.88 345.714 587.77 346.143C587.545 346.961 587.24 348.148 586.871 349.64C586.166 352.591 585.267 356.713 584.562 361.317C583.856 365.92 583.359 370.091 583.102 373.122C582.974 374.646 582.893 375.881 582.861 376.731C582.806 377.173 582.795 377.619 582.829 378.063Z" fill="#263238"/>
<path d="M577.953 341.78C577.857 341.96 577.777 342.148 577.713 342.342L577.087 343.946C576.815 344.667 576.494 345.55 576.189 346.608C575.884 347.667 575.483 348.838 575.178 350.185C575.018 350.859 574.842 351.565 574.665 352.286C574.489 353.008 574.376 353.794 574.216 354.596C573.863 356.2 573.655 357.9 573.414 359.697C572.956 363.63 572.79 367.592 572.917 371.551C573.073 375.512 573.513 379.457 574.232 383.356C574.617 385.136 574.954 386.837 575.403 388.392C575.628 389.178 575.804 389.997 576.029 390.654L576.686 392.723C577.087 394.039 577.568 395.193 577.953 396.22C578.338 397.247 578.707 398.113 579.044 398.802L579.782 400.406C579.86 400.597 579.957 400.78 580.071 400.952C580.071 400.952 580.071 400.743 579.862 400.358C579.654 399.973 579.477 399.396 579.188 398.754C578.9 398.113 578.547 397.15 578.194 396.14C577.841 395.129 577.36 393.958 576.991 392.643L576.349 390.574C576.141 389.868 575.964 389.098 575.756 388.312C575.323 386.708 575.002 385.104 574.633 383.292C573.945 379.416 573.511 375.499 573.334 371.567C573.221 367.631 573.376 363.692 573.799 359.777C574.04 357.981 574.232 356.264 574.553 354.692C574.713 353.89 574.826 353.088 574.986 352.399C575.146 351.709 575.323 350.955 575.467 350.298C575.756 348.95 576.125 347.763 576.414 346.705C576.702 345.646 576.991 344.764 577.232 344.026L577.777 342.342C577.858 342.162 577.917 341.974 577.953 341.78Z" fill="#263238"/>
<path d="M546.804 330.007C546.804 330.007 546.804 330.007 546.804 330.215V330.793C546.9 331.306 547.012 332.06 547.221 333.022C547.622 334.947 548.296 337.706 549.338 341.042C550.381 344.379 551.792 348.325 553.476 352.655C555.161 356.986 557.101 361.702 558.946 366.722C560.791 371.743 562.266 376.619 563.63 381.062C564.993 385.505 566.244 389.483 567.479 392.787C568.408 395.389 569.479 397.938 570.687 400.422C571.104 401.305 571.489 402.026 571.746 402.427L572.035 402.941C572.066 402.998 572.103 403.052 572.147 403.101C572.127 403.035 572.1 402.97 572.067 402.909L571.826 402.379C571.602 401.914 571.249 401.24 570.848 400.358C569.647 397.854 568.576 395.29 567.64 392.675C566.437 389.371 565.202 385.393 563.87 380.95C562.539 376.507 561.095 371.599 559.219 366.514C557.342 361.429 555.401 356.778 553.717 352.463C552.033 348.148 550.509 344.234 549.483 340.898C548.456 337.562 547.702 334.803 547.237 332.878C547.012 331.932 546.868 331.178 546.756 330.681L546.611 330.103L546.804 330.007Z" fill="#263238"/>
<path d="M610.948 320.142C611.236 319.871 611.605 319.702 611.999 319.662C612.393 319.623 612.789 319.714 613.126 319.923C613.462 320.131 613.721 320.445 613.86 320.815C614 321.186 614.014 321.592 613.899 321.971C613.175 324.266 612.301 326.511 611.284 328.692C608.413 334.771 600.056 356.569 596.078 368.551C592.101 380.533 586.615 402.861 586.615 402.861L578.21 401.497C578.21 401.497 585.893 364.798 593.4 351.565C599.431 340.93 605.462 325.612 610.948 320.142Z" fill="#455A64"/>
<path d="M593.785 376.042C593.603 376.356 593.458 376.69 593.352 377.036C593.111 377.694 592.774 378.64 592.389 379.86C591.619 382.249 590.673 385.602 589.71 389.323C588.748 393.044 587.962 396.413 587.417 398.867C587.16 400.038 586.952 401 586.791 401.786C586.692 402.137 586.633 402.497 586.615 402.861C586.766 402.527 586.879 402.177 586.952 401.818C587.16 401.064 587.417 400.086 587.722 398.947L590.144 389.435C591.09 385.714 591.988 382.362 592.694 379.956C593.015 378.817 593.303 377.855 593.512 377.101C593.644 376.76 593.735 376.404 593.785 376.042Z" fill="#263238"/>
<path d="M582.396 402.187V401.962L582.493 401.305C582.573 400.711 582.653 399.861 582.829 398.754C583.134 396.541 583.696 393.365 584.594 389.499C585.665 384.958 586.976 380.476 588.524 376.074C590.24 371.101 592.405 365.728 594.859 360.162C599.8 349.046 604.724 339.198 607.964 331.9C609.568 328.275 610.883 325.307 611.717 323.238C612.134 322.196 612.439 321.394 612.664 320.848C612.76 320.592 612.824 320.383 612.888 320.223C612.953 320.062 612.969 319.998 612.888 319.998L612.792 320.207C612.712 320.367 612.632 320.559 612.519 320.816C612.263 321.377 611.926 322.163 611.493 323.158C610.611 325.211 609.295 328.162 607.627 331.771C604.307 339.021 599.335 348.854 594.378 359.986C591.924 365.552 589.775 370.941 588.074 375.946C586.535 380.359 585.249 384.858 584.225 389.419C583.534 392.497 582.999 395.607 582.621 398.738C582.477 399.829 582.428 400.711 582.364 401.289V401.946C582.375 402.107 582.386 402.187 582.396 402.187Z" fill="#263238"/>
<path d="M578.21 401.498C578.345 401.036 578.442 400.564 578.499 400.086C578.659 399.108 578.884 397.808 579.156 396.236C579.734 393.028 580.616 388.489 581.883 383.613C583.15 378.737 584.562 374.39 585.652 371.278C586.182 369.77 586.631 368.535 586.968 367.589C587.149 367.147 587.293 366.691 587.401 366.226C587.171 366.643 586.973 367.078 586.807 367.525C586.438 368.375 585.925 369.61 585.348 371.166C583.84 375.209 582.539 379.326 581.45 383.501C580.183 388.313 579.349 392.9 578.835 396.172C578.595 397.776 578.418 399.14 578.322 400.07C578.248 400.542 578.211 401.02 578.21 401.498Z" fill="#263238"/>
<path d="M560.983 440.234H593.753V400.294H560.983V440.234Z" fill="#D38C88"/>
<g opacity="0.3">
<path opacity="0.3" d="M560.983 440.234H593.753V400.294H560.983V440.234Z" fill="black"/>
</g>
<path d="M571.425 440.234H600.505V400.294H571.425V440.234Z" fill="#D38C88"/>
<path d="M299.234 71.3653L238.388 90.8423L251.517 131.859L312.363 112.383L299.234 71.3653Z" fill="#D38C88"/>
<path d="M299.595 71.7627C299.484 72.0202 299.349 72.2672 299.194 72.5005C298.889 73.0138 298.488 73.6875 297.975 74.5216L293.403 81.9321L278.085 106.297L277.957 106.489H277.732L277.203 106.281L249.935 95.8227L241.707 92.6147L239.477 91.7165C239.21 91.6222 238.953 91.5041 238.707 91.3636C238.981 91.4179 239.25 91.4984 239.509 91.6042L241.787 92.4062L250.079 95.4698L277.347 105.784L277.893 105.976L277.54 106.104L293.018 81.8198C294.991 78.7722 296.595 76.286 297.75 74.5216L299.049 72.5487C299.207 72.2706 299.39 72.0076 299.595 71.7627Z" fill="#263238"/>
<path d="M251.828 132.266C251.683 132.266 254.458 125.112 258.019 116.434C261.58 107.757 264.612 100.763 264.756 100.828C264.9 100.892 262.141 107.981 258.564 116.659C254.988 125.337 252.02 132.33 251.828 132.266Z" fill="#263238"/>
<path d="M284.87 93.834C284.966 93.7056 291.286 97.844 298.953 103.073C306.62 108.302 312.812 112.697 312.716 112.697C312.619 112.697 306.3 108.703 298.633 103.474C290.965 98.245 284.774 93.9783 284.87 93.834Z" fill="#263238"/>
<path d="M568.072 160.288L522.791 141.152C521.312 140.503 520.146 139.299 519.546 137.799C518.946 136.298 518.959 134.622 519.583 133.132L546.146 70.4477C546.791 68.9651 547.995 67.7968 549.497 67.1962C550.998 66.5957 552.676 66.6113 554.166 67.2397L582.893 79.398L595.405 111.735L576.157 157.176C575.49 158.654 574.267 159.81 572.754 160.393C571.24 160.976 569.558 160.938 568.072 160.288Z" fill="#D38C88"/>
<path d="M582.877 79.2378L575.403 96.8818C575.107 97.5735 574.951 98.3168 574.943 99.0691C574.936 99.8213 575.077 100.568 575.358 101.265C575.64 101.963 576.057 102.598 576.585 103.134C577.113 103.67 577.741 104.096 578.434 104.389L595.389 111.574L582.877 79.2378Z" fill="#D38C88"/>
<g opacity="0.2">
<path opacity="0.2" d="M574.97 98.5337C574.426 99.8753 574.352 101.361 574.76 102.75C575.167 104.139 576.033 105.35 577.215 106.185C577.374 106.317 577.54 106.44 577.713 106.554C579.766 107.885 593.239 116.659 593.384 116.322L595.389 111.51L578.434 104.324C578.434 104.324 574.232 102.447 574.97 98.5337Z" fill="black"/>
</g>
<g opacity="0.3">
<path opacity="0.3" d="M582.877 79.2378L575.403 96.8818C575.107 97.5735 574.951 98.3168 574.943 99.0691C574.936 99.8213 575.077 100.568 575.358 101.265C575.64 101.963 576.057 102.598 576.585 103.134C577.113 103.67 577.741 104.096 578.434 104.389L595.389 111.574L582.877 79.2378Z" fill="white"/>
</g>
<path d="M571.906 94.6359C568.256 93.5735 564.695 92.2274 561.256 90.6098C557.701 89.268 554.254 87.6594 550.942 85.7979C554.6 86.85 558.167 88.1964 561.608 89.8239C565.162 91.1555 568.605 92.7645 571.906 94.6359Z" fill="#FAFAFA"/>
<path d="M581.209 110.259C581.113 110.483 573.317 107.404 563.79 103.362C554.262 99.3195 546.627 95.887 546.723 95.6464C546.819 95.4058 554.615 98.5175 564.142 102.544C573.67 106.57 581.305 110.034 581.209 110.259Z" fill="#FAFAFA"/>
<path d="M580.792 119.915C580.696 120.139 572.194 116.707 561.817 112.36C551.439 108.013 543.098 104.26 543.194 103.987C543.29 103.714 551.776 107.195 562.17 111.542C572.563 115.889 580.888 119.674 580.792 119.915Z" fill="#FAFAFA"/>
<path d="M577.44 127.775C577.343 127.999 568.858 124.567 558.48 120.22C548.102 115.873 539.762 112.071 539.842 111.847C539.922 111.622 548.439 115.055 558.817 119.402C569.195 123.749 577.552 127.534 577.44 127.775Z" fill="#FAFAFA"/>
<path d="M574.136 135.618C574.039 135.859 565.538 132.41 555.16 128.08C544.782 123.749 536.442 119.931 536.538 119.707C536.634 119.482 545.119 122.915 555.513 127.262C565.907 131.608 574.232 135.394 574.136 135.618Z" fill="#FAFAFA"/>
<path d="M570.799 143.478C570.703 143.718 562.202 140.27 551.824 135.939C541.446 131.608 533.105 127.791 533.202 127.566C533.298 127.342 541.799 130.774 552.177 135.105C562.555 139.436 570.895 143.253 570.799 143.478Z" fill="#FAFAFA"/>
<path d="M415.789 173.585C448.876 173.585 475.698 146.763 475.698 113.676C475.698 80.5885 448.876 53.7661 415.789 53.7661C382.702 53.7661 355.879 80.5885 355.879 113.676C355.879 146.763 382.702 173.585 415.789 173.585Z" fill="white"/>
<path d="M475.698 113.675C475.698 113.675 475.698 113.355 475.602 112.713C475.506 112.071 475.49 111.109 475.41 109.858C475.41 109.232 475.329 108.543 475.281 107.773C475.233 107.003 475.041 106.169 474.912 105.27C474.644 103.185 474.226 101.121 473.661 99.0951C472.262 93.492 470.023 88.1328 467.021 83.1994C462.671 75.9522 456.836 69.7081 449.9 64.8783C442.963 60.0485 435.083 56.7424 426.776 55.1776C424.292 54.7156 421.778 54.4262 419.254 54.3114C417.97 54.3114 416.671 54.135 415.372 54.151L411.426 54.3595C410.768 54.3595 410.095 54.3595 409.437 54.4878L407.448 54.7926C406.133 55.0172 404.785 55.1776 403.454 55.4502C397.993 56.6768 392.715 58.607 387.751 61.1926C386.5 61.8662 385.297 62.6682 384.046 63.4061C383.436 63.791 382.795 64.1279 382.201 64.561L380.453 65.8762C375.596 69.4031 371.349 73.6996 367.877 78.596L366.514 80.4245L365.311 82.3814L364.108 84.2741C363.684 84.9189 363.309 85.5944 362.985 86.2952C362.328 87.6906 361.654 89.0861 360.964 90.4976L359.36 94.8926C357.403 100.965 356.365 107.296 356.281 113.675C356.365 120.05 357.403 126.375 359.36 132.442C359.89 133.918 360.435 135.394 360.964 136.853C361.494 138.313 362.312 139.66 362.985 141.04C363.305 141.747 363.68 142.429 364.108 143.077L365.311 145.05L366.498 147.007L367.877 148.835C369.657 151.266 371.602 153.571 373.7 155.732C375.822 157.794 378.077 159.712 380.453 161.475L382.201 162.79C382.795 163.223 383.436 163.56 384.046 163.945C385.297 164.683 386.5 165.549 387.751 166.158C392.715 168.744 397.993 170.674 403.454 171.901C404.785 172.189 406.133 172.334 407.464 172.558L409.437 172.863C410.111 172.863 410.768 172.863 411.426 172.991L415.436 173.232C416.735 173.232 418.035 173.12 419.318 173.088C421.843 172.967 424.356 172.673 426.84 172.205C435.149 170.646 443.032 167.343 449.969 162.512C456.906 157.682 462.74 151.435 467.085 144.184C470.062 139.256 472.279 133.908 473.661 128.32C474.226 126.294 474.644 124.23 474.912 122.145C475.041 121.246 475.201 120.412 475.281 119.642C475.361 118.872 475.378 118.183 475.41 117.557C475.495 116.317 475.559 115.37 475.602 114.718C475.602 114.076 475.698 113.74 475.698 113.74C475.698 113.74 475.698 114.076 475.698 114.718C475.698 115.36 475.698 116.322 475.602 117.557C475.602 118.199 475.602 118.888 475.506 119.674C475.41 120.46 475.297 121.278 475.169 122.177C474.922 124.25 474.525 126.303 473.982 128.32C472.623 133.969 470.411 139.378 467.422 144.36C463.076 151.711 457.215 158.053 450.23 162.965C443.244 167.876 435.293 171.245 426.905 172.847C424.394 173.319 421.853 173.619 419.302 173.745C418.002 173.745 416.687 173.922 415.372 173.906L411.378 173.713C410.704 173.713 410.031 173.713 409.357 173.585L407.416 173.232C406.069 173.007 404.705 172.863 403.358 172.574C400.634 171.978 397.955 171.195 395.338 170.232C392.638 169.269 390.006 168.122 387.462 166.8C386.195 166.11 384.96 165.308 383.709 164.554C383.083 164.153 382.426 163.816 381.832 163.383L380.068 162.052C377.661 160.268 375.373 158.328 373.219 156.246C371.089 154.052 369.111 151.715 367.3 149.252L365.905 147.408L364.685 145.419L363.482 143.414C363.047 142.762 362.666 142.075 362.344 141.36C361.67 139.949 360.98 138.537 360.307 137.11L358.703 132.635C356.725 126.484 355.676 120.072 355.591 113.611C355.64 107.172 356.651 100.776 358.59 94.636L360.194 90.1768L362.247 85.9102C362.568 85.1977 362.943 84.5112 363.37 83.8571L364.589 81.8681L365.792 79.8792L367.188 78.0185C369.003 75.5637 370.981 73.2327 373.106 71.0411C375.26 68.9583 377.548 67.0186 379.956 65.2346L381.72 63.9033C382.313 63.4702 382.971 63.1334 383.597 62.7324C384.848 61.9946 386.083 61.1284 387.35 60.5028C392.382 57.8951 397.73 55.9488 403.262 54.7124C404.609 54.4397 405.972 54.2793 407.32 54.0548L409.325 53.75C409.998 53.75 410.672 53.75 411.346 53.6217L415.34 53.4292C416.655 53.4292 417.954 53.5415 419.254 53.5896C421.81 53.723 424.355 54.0231 426.873 54.4878C435.261 56.0897 443.212 59.4584 450.197 64.37C457.183 69.2817 463.044 75.6237 467.39 82.9749C470.379 87.9572 472.591 93.366 473.95 99.0149C474.492 101.058 474.883 103.138 475.121 105.238C475.249 106.153 475.394 106.987 475.458 107.757L475.554 109.858C475.554 111.093 475.634 112.039 475.65 112.713C475.666 113.387 475.698 113.675 475.698 113.675Z" fill="#263238"/>
<path d="M444.196 111.991C443.412 112.279 442.607 112.51 441.79 112.681L435.101 114.285C429.439 115.6 421.579 117.38 412.789 119.305L412.292 119.418V117.092C412.292 107.708 412.292 99.2071 412.404 93.0317C412.404 90.0804 412.517 87.6262 412.549 85.7496C412.525 84.859 412.578 83.9681 412.709 83.0869C412.83 83.9691 412.883 84.8592 412.869 85.7496C412.869 87.6262 412.95 90.0804 412.998 93.0317C412.998 99.1911 413.126 107.692 413.126 117.092V118.84L412.613 118.423C421.403 116.514 429.278 114.83 434.973 113.611L441.709 112.28C442.527 112.107 443.36 112.01 444.196 111.991Z" fill="#263238"/>
<path d="M479.981 138.377C480.038 138.042 480.13 137.715 480.253 137.398C480.43 136.773 480.799 135.794 481.12 134.672C482.151 131.307 482.934 127.87 483.461 124.39C485.295 112.891 484.198 101.116 480.273 90.1532C476.348 79.1907 469.721 69.3954 461.005 61.6736C458.394 59.3379 455.617 57.1937 452.697 55.2576C451.67 54.5358 450.82 54.0546 450.291 53.6536C449.997 53.4843 449.718 53.2911 449.457 53.0762C449.782 53.1732 450.09 53.3193 450.371 53.5093C450.932 53.8301 451.814 54.2631 452.873 54.9528C455.888 56.8075 458.742 58.9107 461.406 61.2405C470.307 68.9419 477.065 78.8148 481.022 89.8999C484.98 100.985 486.002 112.905 483.991 124.502C483.422 127.977 482.569 131.4 481.44 134.736C481.055 135.923 480.638 136.821 480.414 137.431C480.306 137.761 480.161 138.079 479.981 138.377Z" fill="#263238"/>
<path d="M491.465 108.895C491.337 108.895 491.257 106.505 490.776 102.688C490.133 97.7238 489.005 92.8349 487.407 88.0913C485.795 83.3677 483.715 78.8166 481.2 74.5055C479.243 71.1852 477.832 69.2604 477.992 69.1802C478.424 69.5415 478.802 69.9628 479.115 70.4313C479.772 71.2975 480.719 72.5646 481.745 74.1847C484.474 78.4501 486.682 83.0274 488.322 87.8187C489.973 92.6093 491.05 97.579 491.53 102.624C491.706 104.548 491.754 106.12 491.754 107.211C491.747 107.784 491.649 108.352 491.465 108.895Z" fill="#263238"/>
<path d="M355.976 78.981C355.88 79.301 355.745 79.6081 355.575 79.8952C355.286 80.4887 354.789 81.3228 354.276 82.4616C348.235 94.4616 345.798 107.954 347.258 121.309C348.718 134.663 354.013 147.31 362.504 157.721C364.714 160.454 367.116 163.027 369.69 165.421C370.588 166.287 371.294 166.896 371.823 167.345C372.081 167.562 372.322 167.798 372.545 168.051C372.244 167.894 371.964 167.7 371.711 167.474C371.198 167.073 370.412 166.495 369.481 165.661C366.802 163.346 364.318 160.813 362.055 158.09C354.485 149.074 349.379 138.251 347.235 126.676C345.09 115.101 345.979 103.167 349.816 92.0375C350.948 88.685 352.359 85.4334 354.035 82.3173C354.596 81.1945 355.142 80.3764 355.462 79.815C355.61 79.5233 355.782 79.2443 355.976 78.981Z" fill="#263238"/>
<path d="M339.952 106.265C340.096 106.265 339.791 108.655 339.663 112.504C339.493 117.503 339.831 122.507 340.673 127.437C341.533 132.373 342.887 137.209 344.716 141.873C346.111 145.45 347.202 147.584 347.073 147.648C346.713 147.214 346.41 146.734 346.175 146.22C345.646 145.274 344.94 143.878 344.17 142.098C342.156 137.476 340.702 132.629 339.839 127.662C338.988 122.673 338.729 117.602 339.069 112.552C339.214 110.611 339.406 109.056 339.583 107.981C339.628 107.395 339.752 106.817 339.952 106.265Z" fill="#263238"/>
<path d="M465.385 123.508C463.123 123.043 461.294 122.642 461.294 122.626C461.294 122.609 463.139 122.962 465.401 123.428C467.662 123.893 469.491 124.278 469.475 124.294C469.459 124.31 467.63 124.037 465.385 123.508Z" fill="#263238"/>
<path d="M459.578 138.666C457.589 137.495 455.985 136.532 455.985 136.516C455.985 136.5 457.589 137.431 459.61 138.602C461.631 139.772 463.203 140.735 463.187 140.751C463.171 140.767 461.551 139.837 459.578 138.666Z" fill="#263238"/>
<path d="M449.12 151.048C447.612 149.284 446.409 147.84 446.425 147.84C446.441 147.84 447.677 149.236 449.168 151.048C450.66 152.861 451.879 154.256 451.847 154.256C451.815 154.256 450.724 152.797 449.12 151.048Z" fill="#263238"/>
<path d="M435.309 159.389C434.459 157.24 433.786 155.492 433.802 155.492C433.818 155.492 434.523 157.208 435.406 159.357C436.288 161.507 436.929 163.239 436.897 163.255C436.865 163.271 436.159 161.523 435.309 159.389Z" fill="#263238"/>
<path d="M419.494 162.774C419.398 160.464 419.334 158.604 419.35 158.604C419.366 158.604 419.478 160.464 419.574 162.774C419.67 165.084 419.751 166.944 419.735 166.944C419.719 166.944 419.606 165.084 419.494 162.774Z" fill="#263238"/>
<path d="M403.438 160.833C404.08 158.619 404.609 156.839 404.641 156.839C404.673 156.839 404.16 158.651 403.518 160.865C402.877 163.078 402.331 164.859 402.299 164.859C402.267 164.859 402.78 163.046 403.438 160.833Z" fill="#263238"/>
<path d="M388.858 153.807C390.189 151.915 391.28 150.407 391.312 150.423C391.344 150.439 390.253 152.027 388.922 153.856C387.591 155.684 386.564 157.192 386.564 157.192C386.564 157.192 387.526 155.684 388.858 153.807Z" fill="#263238"/>
<path d="M377.389 142.419C379.25 141.055 380.774 139.981 380.79 139.997C380.806 140.013 379.298 141.12 377.421 142.483C375.544 143.846 374.037 144.905 374.021 144.889C374.005 144.873 375.512 143.766 377.389 142.419Z" fill="#263238"/>
<path d="M370.203 127.919C372.417 127.245 374.213 126.716 374.213 126.732C374.213 126.748 372.433 127.325 370.219 127.999C368.006 128.673 366.225 129.186 366.225 129.17C366.225 129.154 368.006 128.592 370.203 127.919Z" fill="#263238"/>
<path d="M368.134 111.879C370.444 111.879 372.304 112.039 372.304 112.071C372.304 112.103 370.428 112.071 368.134 111.959C365.84 111.847 363.947 111.783 363.963 111.767C363.98 111.751 365.824 111.783 368.134 111.879Z" fill="#263238"/>
<path d="M371.374 96.015C373.54 96.8491 375.272 97.5228 375.272 97.619C375.272 97.7153 373.508 96.9774 371.342 96.1594C369.177 95.3413 367.46 94.6516 367.46 94.6356C367.46 94.6195 369.225 95.197 371.374 96.015Z" fill="#263238"/>
<path d="M379.603 82.0764C381.367 83.5682 382.811 84.7872 382.811 84.8033C382.811 84.8193 381.351 83.6323 379.603 82.1406C377.854 80.6489 376.395 79.4459 376.395 79.4298C376.395 79.4138 377.822 80.6008 379.603 82.0764Z" fill="#263238"/>
<path d="M391.889 71.5864C393.076 73.5593 394.038 75.1633 394.022 75.1794C394.006 75.1954 393.012 73.5754 391.825 71.6185C390.638 69.6616 389.676 68.0415 389.692 68.0255C389.708 68.0095 390.702 69.6135 391.889 71.5864Z" fill="#263238"/>
<path d="M406.919 65.6197C407.4 67.8813 407.785 69.7099 407.769 69.7099C407.753 69.7099 407.336 67.8974 406.838 65.6357C406.341 63.3741 405.972 61.5616 406.004 61.5455C406.036 61.5295 406.437 63.3741 406.919 65.6197Z" fill="#263238"/>
<path d="M423.071 64.8814C422.798 67.1751 422.557 69.0197 422.541 69.0197C422.525 69.0197 422.718 67.1591 423.007 64.8654C423.295 62.5716 423.52 60.7271 423.536 60.7271C423.552 60.7271 423.36 62.5556 423.071 64.8814Z" fill="#263238"/>
<path d="M438.614 69.4208C437.619 71.49 436.785 73.1742 436.769 73.1581C436.753 73.1421 437.539 71.4579 438.534 69.3727C439.528 67.2875 440.362 65.6193 440.394 65.6354C440.426 65.6514 439.608 67.3677 438.614 69.4208Z" fill="#263238"/>
<path d="M451.815 78.756C450.211 80.36 448.863 81.7073 448.847 81.6913C448.831 81.6752 450.147 80.3279 451.767 78.6918C453.387 77.0557 454.718 75.7405 454.734 75.7565C454.75 75.7725 453.451 77.1199 451.815 78.756Z" fill="#263238"/>
<path d="M461.278 91.8607C459.209 92.8873 457.525 93.7053 457.525 93.6893C457.525 93.6732 459.129 92.8231 461.246 91.7966C463.363 90.77 465 89.952 465 89.968C465 89.984 463.347 90.8342 461.278 91.8607Z" fill="#263238"/>
<path d="M465.994 107.339L461.84 107.837C461.84 107.837 463.684 107.548 465.978 107.259C468.272 106.97 470.116 106.73 470.116 106.746C470.116 106.762 468.272 107.035 465.994 107.339Z" fill="#263238"/>
<path d="M495.636 101.806C494.746 104.514 493.597 107.13 492.203 109.617L492.107 109.794L491.786 110.451L491.385 109.842C489.772 107.589 488.385 105.182 487.247 102.656C489.097 104.726 490.741 106.971 492.155 109.361H491.434L491.53 109.168C492.657 106.587 494.032 104.121 495.636 101.806Z" fill="#263238"/>
<path d="M522.904 237.264H334.386C329.957 237.264 325.71 239.023 322.579 242.154C319.447 245.286 317.688 249.533 317.688 253.961C317.688 258.39 319.447 262.637 322.579 265.768C325.71 268.9 329.957 270.659 334.386 270.659H422.606L442.351 289.474V270.659H522.904C525.097 270.659 527.268 270.227 529.294 269.388C531.32 268.549 533.16 267.319 534.711 265.768C536.261 264.218 537.491 262.377 538.33 260.351C539.17 258.325 539.601 256.154 539.601 253.961C539.601 251.769 539.17 249.597 538.33 247.571C537.491 245.546 536.261 243.705 534.711 242.154C533.16 240.604 531.32 239.374 529.294 238.535C527.268 237.696 525.097 237.264 522.904 237.264Z" fill="#FAFAFA"/>
<path d="M522.904 237.264H523.514C524.126 237.27 524.737 237.318 525.342 237.408C527.724 237.727 530.007 238.565 532.031 239.862C533.966 241.094 535.629 242.71 536.916 244.609C538.204 246.508 539.089 248.65 539.517 250.904C539.945 253.158 539.908 255.476 539.406 257.715C538.905 259.953 537.951 262.066 536.602 263.922C534.779 266.459 532.293 268.446 529.416 269.664C527.874 270.288 526.256 270.704 524.604 270.899C522.888 271.028 521.188 270.98 519.423 270.996H496.711H442.319L442.688 270.627C442.688 276.529 442.688 282.913 442.688 289.442V290.324L442.046 289.714L422.285 270.899L422.558 271.012H347.587H334.498C330.129 271.057 325.908 269.428 322.702 266.459C319.496 263.49 317.548 259.407 317.259 255.047C316.969 250.687 318.36 246.381 321.145 243.014C323.931 239.648 327.9 237.475 332.237 236.943C334.322 236.718 336.327 236.83 338.348 236.798H367.701L448.478 236.895L503.014 237.023L517.819 237.103H521.669C522.535 237.103 522.984 237.103 522.984 237.103H521.669H517.819L503.014 237.183L448.478 237.328H367.701H338.348C336.343 237.328 334.29 237.328 332.349 237.472C328.331 237.971 324.646 239.957 322.019 243.038C319.996 245.412 318.696 248.317 318.275 251.407C317.854 254.498 318.328 257.645 319.642 260.474C320.956 263.302 323.055 265.695 325.688 267.367C328.321 269.038 331.379 269.919 334.498 269.905H347.587H422.558H422.718L422.83 270.001L442.576 288.832L441.934 289.105C441.934 282.577 441.934 276.193 441.934 270.29V269.937H442.287H496.679H519.391C521.14 269.937 522.872 269.937 524.524 269.937C526.136 269.758 527.716 269.364 529.224 268.766C532.549 267.367 535.327 264.92 537.135 261.798C538.943 258.676 539.682 255.049 539.241 251.469C538.8 247.888 537.203 244.549 534.691 241.959C532.18 239.369 528.891 237.67 525.326 237.119C523.738 237.28 522.904 237.392 522.904 237.264Z" fill="#263238"/>
<path d="M416.832 265.767H334.274C332.723 265.769 331.187 265.465 329.753 264.873C328.32 264.28 327.018 263.411 325.921 262.314C324.825 261.217 323.955 259.915 323.363 258.482C322.77 257.048 322.466 255.512 322.468 253.961C322.477 250.837 323.725 247.845 325.938 245.64C328.152 243.436 331.15 242.2 334.274 242.204H416.832C418.381 242.202 419.916 242.505 421.348 243.097C422.78 243.688 424.082 244.557 425.178 245.651C426.275 246.746 427.145 248.047 427.738 249.478C428.332 250.91 428.637 252.444 428.637 253.994C428.635 255.542 428.328 257.074 427.733 258.504C427.139 259.933 426.269 261.232 425.173 262.325C424.076 263.418 422.776 264.285 421.344 264.876C419.913 265.466 418.38 265.769 416.832 265.767Z" fill="#D38C88"/>
<path d="M423.745 220.053L420.954 228.586H418.837L416.96 222.812L415.019 228.586H412.918L410.111 220.053H412.228L414.153 226.052L416.158 220.053H417.986L419.943 226.1L421.916 220.053H423.745Z" fill="#263238"/>
<path d="M424.21 224.319C424.158 223.387 424.388 222.461 424.869 221.66C425.349 220.859 426.059 220.221 426.906 219.828C427.753 219.435 428.699 219.306 429.62 219.456C430.542 219.606 431.398 220.029 432.076 220.67C432.755 221.312 433.226 222.142 433.428 223.054C433.629 223.965 433.553 224.917 433.209 225.785C432.864 226.652 432.267 227.397 431.495 227.922C430.723 228.447 429.811 228.729 428.877 228.73C428.277 228.765 427.676 228.677 427.11 228.471C426.545 228.265 426.028 227.946 425.591 227.533C425.154 227.12 424.806 226.621 424.568 226.069C424.331 225.516 424.209 224.921 424.21 224.319ZM431.54 224.319C431.527 223.796 431.361 223.287 431.06 222.858C430.76 222.429 430.34 222.097 429.853 221.906C429.365 221.714 428.832 221.67 428.32 221.78C427.807 221.89 427.339 222.148 426.973 222.523C426.607 222.898 426.36 223.372 426.262 223.887C426.164 224.402 426.221 224.934 426.424 225.417C426.627 225.899 426.969 226.312 427.405 226.601C427.841 226.891 428.354 227.046 428.877 227.046C429.23 227.047 429.578 226.975 429.902 226.837C430.226 226.698 430.519 226.495 430.762 226.24C431.005 225.985 431.193 225.683 431.316 225.353C431.439 225.023 431.493 224.671 431.476 224.319H431.54Z" fill="#263238"/>
<path d="M440.474 228.586L438.87 226.212H437.058V228.586H435.085V220.053H438.774C441.052 220.053 442.479 221.24 442.479 223.148C442.505 223.726 442.348 224.297 442.031 224.78C441.715 225.264 441.254 225.635 440.715 225.843L442.64 228.586H440.474ZM438.614 221.657H437.01V224.64H438.614C439.817 224.64 440.426 224.079 440.426 223.148C440.426 222.218 439.817 221.657 438.614 221.657Z" fill="#263238"/>
<path d="M447.099 225.234L445.944 226.421V228.586H443.987V220.053H445.912V224.031L449.698 220.053H451.895L448.35 223.854L452.104 228.586H449.794L447.099 225.234Z" fill="#263238"/>
<path d="M501.282 257.089H498.844L498.25 260.169H496.518L497.144 257.089H490.214L490.439 255.854L498.363 247.689H500.448L492.861 255.565H497.561L498.106 252.854H499.71L499.165 255.565H501.539L501.282 257.089Z" fill="#263238"/>
<path d="M506.415 249.246L505.388 252.662H506.591C509.799 252.662 511.227 253.977 511.227 255.998C511.227 258.581 509.11 260.297 505.918 260.297C505.119 260.344 504.32 260.225 503.569 259.949C502.819 259.673 502.133 259.246 501.555 258.693L502.501 257.314C502.963 257.777 503.518 258.137 504.129 258.372C504.739 258.607 505.392 258.711 506.046 258.677C508.195 258.677 509.446 257.731 509.446 256.143C509.446 254.908 508.564 254.17 506.238 254.17H503.223L505.164 247.642H512.189L511.901 249.246H506.415Z" fill="#263238"/>
<path d="M513.28 251.667C513.227 251.174 513.274 250.675 513.419 250.2C513.563 249.725 513.802 249.284 514.121 248.903C514.44 248.523 514.833 248.211 515.275 247.986C515.718 247.761 516.201 247.627 516.696 247.593C517.047 247.579 517.396 247.641 517.721 247.775C518.045 247.91 518.336 248.113 518.574 248.371C518.812 248.628 518.991 248.935 519.099 249.269C519.207 249.602 519.241 249.956 519.199 250.304C519.254 250.797 519.209 251.296 519.066 251.771C518.923 252.245 518.686 252.687 518.368 253.067C518.051 253.448 517.659 253.76 517.217 253.986C516.776 254.211 516.293 254.344 515.798 254.378C515.447 254.392 515.097 254.33 514.772 254.196C514.447 254.062 514.155 253.859 513.916 253.601C513.677 253.344 513.496 253.038 513.386 252.704C513.277 252.37 513.24 252.017 513.28 251.667ZM524.347 247.69H525.775L514.884 260.169H513.424L524.347 247.69ZM518.092 250.4C518.092 249.213 517.546 248.604 516.648 248.604C515.205 248.604 514.499 250.208 514.499 251.571C514.499 252.935 515.044 253.368 515.942 253.368C517.37 253.432 518.092 251.828 518.092 250.4ZM520.065 257.554C520.009 257.061 520.055 256.562 520.199 256.087C520.343 255.612 520.582 255.171 520.901 254.791C521.221 254.412 521.615 254.101 522.058 253.878C522.502 253.656 522.986 253.526 523.481 253.496C523.831 253.481 524.18 253.544 524.504 253.678C524.827 253.812 525.118 254.016 525.354 254.274C525.591 254.532 525.769 254.839 525.875 255.172C525.98 255.506 526.012 255.859 525.967 256.207C526.023 256.699 525.978 257.197 525.835 257.671C525.692 258.145 525.454 258.585 525.136 258.964C524.818 259.344 524.427 259.654 523.985 259.878C523.543 260.102 523.061 260.233 522.567 260.265C522.214 260.284 521.862 260.226 521.534 260.094C521.207 259.961 520.913 259.759 520.672 259.5C520.432 259.241 520.251 258.933 520.144 258.597C520.036 258.26 520.003 257.904 520.049 257.554H520.065ZM524.877 256.287C524.877 255.116 524.315 254.49 523.433 254.49C522.006 254.49 521.268 256.094 521.268 257.474C521.268 258.853 521.845 259.27 522.711 259.27C524.075 259.27 524.797 257.65 524.797 256.287H524.877Z" fill="#263238"/>
<g opacity="0.3">
<path opacity="0.3" d="M337.466 242.172L329.814 265.767H337.466L344.651 242.172H337.466Z" fill="white"/>
</g>
<g opacity="0.3">
<path opacity="0.3" d="M356.361 242.172L348.709 265.767H356.361L363.547 242.172H356.361Z" fill="white"/>
</g>
<g opacity="0.3">
<path opacity="0.3" d="M375.24 242.172L367.604 265.767H375.24L382.441 242.172H375.24Z" fill="white"/>
</g>
<g opacity="0.3">
<path opacity="0.3" d="M394.135 242.172L386.5 265.767H394.135L401.337 242.172H394.135Z" fill="white"/>
</g>
<g opacity="0.3">
<path opacity="0.3" d="M413.03 242.172L405.379 265.767H413.03L420.232 242.172H413.03Z" fill="white"/>
</g>
<path d="M126.716 576.125C126.716 576.125 167.345 594.427 209.659 594.427C248.828 594.427 290.292 574.713 290.292 574.713L126.716 576.125Z" fill="#E0E0E0"/>
<path d="M214.07 576.478H197.292V752.228H214.07V576.478Z" fill="#E0E0E0"/>
<path d="M280.122 741.914H131.207V752.212H280.122V741.914Z" fill="#E0E0E0"/>
<path d="M149.428 755.597C149.435 757.848 148.773 760.05 147.526 761.925C146.28 763.8 144.505 765.262 142.427 766.128C140.348 766.993 138.06 767.222 135.851 766.785C133.643 766.349 131.613 765.267 130.02 763.676C128.427 762.085 127.342 760.057 126.903 757.849C126.463 755.641 126.689 753.353 127.551 751.273C128.413 749.193 129.873 747.416 131.746 746.167C133.619 744.918 135.821 744.253 138.072 744.256C141.08 744.261 143.963 745.456 146.092 747.582C148.22 749.707 149.42 752.589 149.428 755.597Z" fill="#263238"/>
<path d="M215.609 755.597C215.609 757.846 214.942 760.045 213.693 761.915C212.443 763.785 210.667 765.242 208.589 766.103C206.511 766.964 204.224 767.189 202.018 766.75C199.812 766.312 197.786 765.228 196.196 763.638C194.605 762.048 193.522 760.021 193.083 757.815C192.644 755.609 192.87 753.323 193.73 751.244C194.591 749.166 196.049 747.39 197.919 746.141C199.789 744.891 201.988 744.224 204.237 744.224C207.253 744.224 210.146 745.422 212.279 747.555C214.411 749.688 215.609 752.58 215.609 755.597Z" fill="#263238"/>
<path d="M292.265 755.597C292.265 757.846 291.598 760.045 290.348 761.915C289.099 763.785 287.322 765.242 285.244 766.103C283.166 766.964 280.88 767.189 278.674 766.75C276.468 766.312 274.441 765.228 272.851 763.638C271.26 762.048 270.177 760.021 269.739 757.815C269.3 755.609 269.525 753.323 270.386 751.244C271.246 749.166 272.704 747.39 274.574 746.141C276.444 744.891 278.643 744.224 280.892 744.224C283.909 744.224 286.801 745.422 288.934 747.555C291.067 749.688 292.265 752.58 292.265 755.597Z" fill="#263238"/>
<path d="M209.643 639.724H186.818V649.171H209.643V639.724Z" fill="#E0E0E0"/>
<path d="M190.972 633.115H182.663V655.78H190.972V633.115Z" fill="#E0E0E0"/>
<path d="M122.738 308.626H190.876V553.765H104.131V327.216C104.14 322.286 106.103 317.56 109.591 314.075C113.079 310.59 117.807 308.63 122.738 308.626Z" fill="#455A64"/>
<path d="M123.315 550.044C123.091 550.044 122.898 496.855 122.898 431.252C122.898 365.648 123.091 312.443 123.315 312.443C123.54 312.443 123.732 365.632 123.732 431.252C123.732 496.871 123.508 550.044 123.315 550.044Z" fill="#263238"/>
<path d="M104.131 553.268H318.763V579.926H116.883C113.48 579.926 110.216 578.574 107.81 576.168C105.403 573.761 104.051 570.497 104.051 567.094V553.204L104.131 553.268Z" fill="#455A64"/>
<path d="M225.618 211.728L216.315 300.413C214.711 315.507 215.497 337.979 239.461 339.39C260.313 339.053 267.627 319.982 269.087 305.915C269.792 299.226 270.37 293.66 270.498 292.987C270.498 292.987 293.291 293.227 297.269 271.044C299.194 260.329 301.343 237.937 303.059 217.663C303.947 207.156 300.845 196.7 294.371 188.377C287.898 180.055 278.526 174.475 268.124 172.751L265.975 172.382C242.637 169.848 227.463 188.277 225.618 211.728Z" fill="#FFBE9D"/>
<path d="M270.498 292.939C260.237 291.205 250.69 286.562 242.99 279.562C242.99 279.562 247.337 296.965 269.841 298.665L270.498 292.939Z" fill="#EB996E"/>
<path d="M264.002 223.245C263.521 223.646 261.131 221.336 257.394 220.887C253.656 220.438 250.689 222.026 250.336 221.513C250.16 221.272 250.705 220.486 251.94 219.748C253.682 218.794 255.681 218.417 257.65 218.673C259.6 218.918 261.42 219.778 262.847 221.128C263.954 222.17 264.243 223.052 264.002 223.245Z" fill="#263238"/>
<path d="M263.633 231.826C263.51 232.611 263.086 233.316 262.451 233.792C261.816 234.269 261.02 234.478 260.233 234.377C259.847 234.343 259.473 234.232 259.13 234.052C258.788 233.872 258.485 233.625 258.238 233.327C257.992 233.028 257.807 232.684 257.696 232.313C257.584 231.943 257.546 231.554 257.586 231.169C257.713 230.386 258.138 229.684 258.772 229.208C259.406 228.732 260.2 228.521 260.987 228.618C261.372 228.653 261.747 228.763 262.09 228.943C262.432 229.123 262.735 229.37 262.981 229.669C263.228 229.967 263.412 230.312 263.524 230.682C263.636 231.052 263.673 231.441 263.633 231.826Z" fill="#263238"/>
<path d="M270.979 250.224C272.872 249.964 274.79 249.937 276.69 250.144C277.572 250.144 278.438 250.144 278.679 249.599C278.898 248.705 278.842 247.766 278.518 246.904L277.059 239.846C275.038 229.789 273.738 221.593 274.155 221.513C274.572 221.433 276.513 229.533 278.518 239.558C278.999 242.044 279.449 244.37 279.882 246.663C280.254 247.808 280.208 249.047 279.753 250.16C279.582 250.442 279.348 250.681 279.07 250.859C278.792 251.037 278.477 251.149 278.149 251.187C277.644 251.253 277.131 251.253 276.626 251.187C274.711 251.099 272.815 250.775 270.979 250.224Z" fill="#263238"/>
<path d="M263.713 209.017C263.264 209.819 260.329 208.905 256.72 208.761C253.111 208.616 250.095 209.13 249.743 208.296C249.598 207.895 250.224 207.189 251.523 206.563C253.209 205.788 255.061 205.446 256.912 205.569C258.766 205.666 260.567 206.217 262.158 207.173C263.361 207.863 263.906 208.632 263.713 209.017Z" fill="#263238"/>
<path d="M298.632 219.235C298.183 219.877 295.328 218.85 291.799 218.417C288.271 217.984 285.287 218.16 284.966 217.422C284.838 217.07 285.48 216.524 286.763 216.091C288.49 215.586 290.306 215.455 292.088 215.706C293.887 215.937 295.618 216.538 297.173 217.471C298.344 218.224 298.841 218.93 298.632 219.235Z" fill="#263238"/>
<path d="M224.688 228.442C224.335 228.201 210.172 221.384 208.135 236.654C206.098 251.924 221.849 250.817 221.929 250.384C222.01 249.951 224.688 228.442 224.688 228.442Z" fill="#FFBE9D"/>
<path d="M218.048 243.984C218.048 243.984 217.743 244.129 217.278 244.273C216.606 244.459 215.887 244.379 215.273 244.049C213.669 243.247 212.723 240.504 213.027 237.745C213.159 236.426 213.587 235.154 214.278 234.024C214.484 233.565 214.8 233.165 215.197 232.857C215.594 232.549 216.061 232.344 216.556 232.259C216.87 232.218 217.188 232.289 217.455 232.459C217.722 232.629 217.92 232.888 218.016 233.189C218.176 233.639 218.016 233.943 218.112 233.975C218.208 234.008 218.481 233.767 218.433 233.109C218.407 232.722 218.242 232.357 217.968 232.083C217.587 231.706 217.075 231.494 216.54 231.489C215.896 231.533 215.274 231.74 214.733 232.091C214.191 232.442 213.748 232.925 213.444 233.494C212.615 234.725 212.103 236.141 211.953 237.617C211.648 240.712 212.835 243.808 214.952 244.738C215.346 244.912 215.774 244.995 216.204 244.981C216.635 244.967 217.056 244.857 217.438 244.658C217.968 244.353 218.144 244.016 218.048 243.984Z" fill="#EB996E"/>
<path d="M266.376 260.442C266.585 260.073 263.665 258.838 261.805 255.87C261.044 254.556 260.456 253.149 260.056 251.684C259.719 250.529 259.447 249.791 259.27 249.823C259.094 249.855 259.078 250.625 259.27 251.86C259.461 253.514 260.008 255.106 260.874 256.528C261.755 257.96 263.016 259.12 264.515 259.88C265.542 260.458 266.264 260.57 266.376 260.442Z" fill="#263238"/>
<path d="M206.595 201.735C210.3 196.618 211.632 190.235 213.942 184.364C216.251 178.493 220.181 172.558 226.292 170.987L226.421 171.067C231.922 169.463 238.467 169.992 242.461 174.082C244.273 166.207 251.844 160.545 259.816 159.229C267.788 157.914 280.139 160.272 287.325 164.041C292.874 166.896 298.007 172.157 304.134 179.776C306.732 182.979 309.06 186.391 311.096 189.978L315.908 211.488L309.107 221.898C308.694 222.626 308.244 223.332 307.759 224.015L300.413 246.615C300.654 240.295 303.14 218.449 303.381 212.113C298.661 211.536 294.107 210.01 289.992 207.629C285.877 205.247 282.285 202.059 279.433 198.255C276.353 194.132 274.092 189.112 269.697 186.417C264.05 182.936 256.865 184.412 250.336 186.016L250.625 185.791C247.225 187.001 244.088 188.853 241.386 191.245C241.636 203.795 239.18 216.252 234.184 227.768C233.43 229.5 231.505 233.029 229.677 233.559C226.116 234.569 225.506 230.976 223.614 228.923C222.218 227.415 219.973 227.014 217.486 226.806C216.258 221.432 215.348 215.99 214.76 210.509C212.636 210.947 210.44 210.886 208.344 210.333L210.766 205.777C209.889 206.306 208.911 206.645 207.894 206.772C207.364 206.838 206.827 206.732 206.362 206.469C205.897 206.206 205.528 205.801 205.312 205.312C204.911 204.077 205.825 202.81 206.595 201.735Z" fill="#263238"/>
<path d="M249.293 177.29C248.438 177.847 247.624 178.463 246.855 179.135C244.893 181.107 243.478 183.556 242.749 186.24C242.191 188.075 241.821 189.961 241.642 191.87C241.45 193.94 241.418 196.153 241.353 198.495C241.336 200.952 241.164 203.406 240.84 205.841C240.649 207.133 240.365 208.408 239.99 209.659C239.665 211.006 239.003 212.248 238.065 213.268C237.641 213.659 237.123 213.935 236.561 214.07C236 214.205 235.413 214.194 234.857 214.038C233.777 213.735 232.828 213.08 232.163 212.177C231.111 210.394 230.557 208.361 230.559 206.29L231.008 206.387C230.159 208.015 229.079 209.512 227.8 210.83C226.585 212.047 224.947 212.748 223.228 212.787C222.433 212.793 221.651 212.582 220.967 212.177C220.334 211.77 219.837 211.184 219.539 210.493C219.263 209.852 219.163 209.148 219.25 208.456C219.352 207.836 219.663 207.27 220.133 206.852L220.341 207.092C218.495 208.888 216.184 210.133 213.668 210.685C213.492 210.74 213.308 210.768 213.123 210.766C213.289 210.697 213.461 210.644 213.636 210.605C213.989 210.493 214.503 210.348 215.144 210.092C216.999 209.365 218.69 208.274 220.116 206.884L220.341 207.124C219.931 207.559 219.666 208.111 219.583 208.703C219.499 209.294 219.602 209.898 219.876 210.429C220.149 211.045 220.602 211.565 221.175 211.92C221.796 212.289 222.507 212.478 223.228 212.466C224.832 212.403 226.352 211.732 227.479 210.589C228.697 209.293 229.724 207.83 230.526 206.242L230.911 205.553V206.338C230.946 208.323 231.499 210.264 232.515 211.969C233.126 212.746 233.969 213.308 234.921 213.573C235.401 213.713 235.909 213.726 236.396 213.61C236.882 213.495 237.33 213.255 237.696 212.915C238.56 211.957 239.172 210.8 239.477 209.546C239.851 208.318 240.135 207.063 240.327 205.793C240.65 203.379 240.826 200.947 240.856 198.511C240.856 196.169 240.985 193.956 241.193 191.87C241.395 189.932 241.793 188.019 242.38 186.16C243.161 183.437 244.656 180.973 246.711 179.022C247.468 178.303 248.341 177.718 249.293 177.29Z" fill="#455A64"/>
<path d="M316.453 205.441L316.26 205.569L315.667 205.922C315.349 206.122 315.016 206.299 314.672 206.451C314.255 206.628 313.79 206.868 313.245 207.045C310.117 208.119 306.773 208.405 303.509 207.879C298.653 207.105 294.124 204.943 290.468 201.655C286.073 197.597 282.553 192.685 280.122 187.219C278.743 184.364 277.668 181.461 276.449 178.766C275.352 176.143 273.877 173.695 272.07 171.5C270.46 169.505 268.368 167.954 265.991 166.993C264.917 166.584 263.786 166.346 262.639 166.287C261.561 166.245 260.482 166.347 259.431 166.592C256.256 167.356 253.489 169.293 251.683 172.013C251.078 173.025 250.589 174.101 250.224 175.221C250.213 175.147 250.213 175.071 250.224 174.997C250.224 174.804 250.32 174.596 250.384 174.323C250.64 173.461 251.007 172.636 251.475 171.869C252.221 170.648 253.17 169.563 254.282 168.661C255.754 167.473 257.467 166.619 259.302 166.159C261.541 165.581 263.901 165.699 266.071 166.496C268.521 167.477 270.684 169.06 272.359 171.099C274.198 173.324 275.706 175.804 276.834 178.461C278.069 181.188 279.144 184.075 280.507 186.914C282.921 192.311 286.389 197.17 290.709 201.206C294.303 204.465 298.756 206.624 303.541 207.43C306.756 207.986 310.058 207.755 313.165 206.756C315.346 206.098 316.421 205.312 316.453 205.441Z" fill="#455A64"/>
<path d="M298.007 227.768C297.526 228.185 295.136 225.859 291.398 225.426C287.661 224.993 284.694 226.549 284.357 226.036C284.18 225.795 284.71 225.025 285.961 224.271C287.705 223.324 289.704 222.954 291.671 223.213C293.621 223.442 295.445 224.297 296.868 225.651C297.959 226.725 298.247 227.624 298.007 227.768Z" fill="#263238"/>
<path d="M294.831 234.73C294.712 235.516 294.289 236.223 293.653 236.701C293.017 237.178 292.219 237.386 291.431 237.28C291.046 237.246 290.671 237.135 290.33 236.955C289.988 236.774 289.686 236.528 289.441 236.229C289.196 235.93 289.013 235.585 288.903 235.215C288.793 234.845 288.758 234.456 288.8 234.072C288.923 233.291 289.345 232.588 289.976 232.112C290.608 231.636 291.4 231.425 292.184 231.522C292.57 231.556 292.945 231.666 293.287 231.846C293.63 232.027 293.933 232.273 294.179 232.572C294.425 232.87 294.61 233.215 294.722 233.585C294.834 233.956 294.871 234.345 294.831 234.73Z" fill="#263238"/>
<path d="M309.572 187.139C311.176 189.849 313.887 192.448 317.046 192.448C318.205 192.327 319.352 192.118 320.479 191.822C321.506 192.592 320.864 196.314 319.998 197.26C319.196 198.061 318.327 198.791 317.399 199.441C320.864 201.799 324.313 201.174 328.371 200.163C327.631 203.459 326.04 206.504 323.758 208.994C321.476 211.485 318.581 213.334 315.362 214.359C314.362 214.767 313.279 214.932 312.203 214.84C311.126 214.748 310.087 214.402 309.171 213.829C307.837 212.456 307.055 210.641 306.973 208.729C305.915 201.829 305.716 194.825 306.38 187.877L309.572 187.139Z" fill="#263238"/>
<path d="M268.14 313.743C268.14 313.743 282.256 319.469 290.292 339.006C295.938 352.736 327.344 396.076 327.344 396.076L410.848 414.618L413.703 441.261L280.138 440.154L261.58 381.046L268.14 313.743Z" fill="#D38C88"/>
<path d="M211.904 289.121L197.083 295.345C183.369 301.087 165.822 314.32 159.935 327.986C145.804 360.9 133.004 403.198 128.095 440.619C123.139 478.361 133.004 534.213 133.004 534.213L258.34 462.594L251.01 457.477L274.765 328.259L270.338 312.62L273.29 299.387C273.29 299.387 240.039 286.042 215.818 276.466L211.904 289.121Z" fill="#D38C88"/>
<g opacity="0.3">
<path opacity="0.3" d="M199.938 496.871C200.398 490.455 200.858 484.002 201.318 477.511C199.848 478.911 197.924 479.736 195.896 479.837C199.032 476.844 201.814 473.502 204.189 469.876L198.479 472.33C200.493 470.781 202.136 468.803 203.291 466.54C200.227 464.15 195.912 464.551 192.063 464.936C172.253 466.941 152.267 465.609 132.378 464.278C130.386 464.164 128.442 463.617 126.684 462.674C126.684 462.674 126.283 457.22 127.165 455.183C128.047 453.146 129.427 453.74 131.512 452.986C133.629 452.342 135.827 452.007 138.04 451.991C162.244 450.708 186.497 452.697 210.653 454.702C212.159 454.679 213.638 455.104 214.904 455.921C216.877 457.525 216.7 460.541 216.363 463.059C215.123 472.106 213.893 481.147 212.674 490.183" fill="black"/>
</g>
<path d="M273.29 323.062C273.288 323.471 273.25 323.879 273.177 324.281L272.664 327.73C272.215 330.713 271.493 335.044 270.547 340.369C268.654 351.036 265.815 365.712 262.527 381.881C259.239 398.049 255.902 412.661 253.512 423.216C252.309 428.429 251.331 432.679 250.625 435.711C250.288 437.122 250.016 438.245 249.807 439.095C249.732 439.497 249.614 439.89 249.454 440.266C249.496 439.862 249.56 439.46 249.647 439.063C249.807 438.197 250.032 437.058 250.32 435.647C250.946 432.583 251.924 428.332 252.935 423.087L261.628 381.752C264.997 365.584 267.932 350.923 269.969 340.289C270.948 335.044 271.766 330.761 272.343 327.698C272.616 326.286 272.84 325.147 273.001 324.281C273.056 323.866 273.153 323.458 273.29 323.062Z" fill="#263238"/>
<path d="M159.935 506.511C160.159 506.235 160.412 505.982 160.688 505.758L162.934 503.688C163.896 502.79 165.115 501.715 166.575 500.48C168.035 499.245 169.639 497.866 171.531 496.438C175.237 493.471 179.808 490.151 185.021 486.67C190.234 483.189 196.249 479.66 202.553 476.26C208.857 472.86 215.257 470.036 221.063 467.646C226.869 465.257 232.195 463.412 236.734 462.032C238.98 461.279 241.065 460.733 242.877 460.22C244.69 459.707 246.262 459.306 247.545 459.001L250.528 458.327C250.867 458.22 251.217 458.155 251.571 458.135C251.247 458.286 250.909 458.405 250.561 458.488L247.625 459.322C246.358 459.675 244.802 460.108 243.006 460.669C241.209 461.231 239.156 461.808 236.911 462.594C232.419 464.054 227.126 465.994 221.352 468.368C215.577 470.742 209.338 473.645 202.954 476.998C196.57 480.35 190.683 483.911 185.438 487.312C180.193 490.712 175.622 494.016 171.884 496.936C169.976 498.331 168.34 499.71 166.864 500.865C165.388 502.02 164.153 503.079 163.143 503.929L160.801 505.87C160.536 506.114 160.245 506.329 159.935 506.511Z" fill="#263238"/>
<path d="M224.271 459.209C224.383 459.418 212.193 466.267 197.003 474.511C181.813 482.756 169.494 489.284 169.382 489.076C169.27 488.867 181.46 482.034 196.65 473.774C211.84 465.513 224.159 459.017 224.271 459.209Z" fill="#263238"/>
<g opacity="0.3">
<path opacity="0.3" d="M180.225 360.21C188.004 393.894 211.792 423.953 243.455 437.668C220.677 413.286 199.553 387.409 180.225 360.21Z" fill="black"/>
</g>
<g opacity="0.3">
<path opacity="0.3" d="M271.3 334.61C274.364 348.854 272.086 366.69 264.884 379.314L263.104 375.625C265.622 364.926 269.231 345.951 271.236 334.61" fill="black"/>
</g>
<path d="M337.931 674.498L322.901 719.699C322.901 719.699 363.819 750.175 361.846 758.789L273.145 732.804L293.66 661.394L337.931 674.498Z" fill="#455A64"/>
<g opacity="0.3">
<path opacity="0.3" d="M337.931 674.498L322.901 719.699C322.901 719.699 363.819 750.175 361.846 758.789L273.145 732.804L293.66 661.394L337.931 674.498Z" fill="black"/>
</g>
<path d="M296.596 707.829C295.667 707.837 294.774 708.189 294.089 708.817C293.405 709.445 292.978 710.305 292.89 711.23C292.863 712.158 293.194 713.061 293.816 713.751C294.437 714.441 295.301 714.865 296.227 714.935C297.212 714.923 298.158 714.545 298.881 713.876C299.604 713.206 300.053 712.291 300.14 711.31C300.066 710.34 299.619 709.436 298.891 708.79C298.164 708.144 297.215 707.805 296.243 707.845" fill="#E0E0E0"/>
<g opacity="0.6">
<path opacity="0.6" d="M273.145 732.803L275.487 725.682L359.665 753.254C359.665 753.254 363.113 756.126 361.846 758.788L273.145 732.803Z" fill="white"/>
</g>
<path d="M324.473 719.667C324.329 720.1 322.115 719.667 319.565 720.437C317.014 721.207 315.362 722.682 315.009 722.394C314.657 722.105 316.036 719.795 319.132 718.929C322.228 718.063 324.682 719.298 324.473 719.667Z" fill="#263238"/>
<path d="M332.653 726.243C332.653 726.692 330.536 726.885 328.531 728.28C326.526 729.676 325.532 731.488 325.098 731.344C324.665 731.2 325.098 728.681 327.649 726.981C330.199 725.281 332.766 725.826 332.653 726.243Z" fill="#263238"/>
<path d="M334.674 738.931C334.257 738.931 334.289 736.573 336.086 734.52C337.882 732.467 340.208 732.114 340.272 732.531C340.336 732.948 338.668 733.846 337.273 735.546C335.877 737.247 335.123 739.011 334.674 738.931Z" fill="#263238"/>
<path d="M326.751 708.968C326.462 709.321 324.649 708.134 322.147 707.589C319.645 707.043 317.511 707.252 317.335 706.803C317.159 706.354 319.5 705.359 322.436 706.049C325.371 706.739 327.071 708.712 326.751 708.968Z" fill="#263238"/>
<path d="M363.803 694.676L361.926 742.283C361.926 742.283 409.693 760.168 410.191 769.006L317.768 768.685L317.592 694.388L363.803 694.676Z" fill="#455A64"/>
<path d="M333.359 738.177C332.467 738.442 331.705 739.028 331.22 739.822C330.734 740.616 330.559 741.561 330.729 742.476C330.964 743.376 331.537 744.151 332.328 744.641C333.119 745.13 334.068 745.297 334.979 745.106C335.92 744.822 336.721 744.199 337.228 743.357C337.735 742.515 337.911 741.515 337.722 740.551C337.385 739.638 336.706 738.892 335.829 738.47C334.952 738.048 333.946 737.983 333.022 738.289" fill="#E0E0E0"/>
<g opacity="0.6">
<path opacity="0.6" d="M317.768 768.685L318.041 761.194L406.566 764.29C406.566 764.29 410.672 766.103 410.191 769.006L317.768 768.685Z" fill="white"/>
</g>
<path d="M363.434 741.818C363.434 742.267 361.156 742.46 358.927 743.903C356.697 745.347 355.51 747.24 355.093 747.111C354.676 746.983 355.366 744.32 358.093 742.62C360.82 740.92 363.53 741.401 363.434 741.818Z" fill="#263238"/>
<path d="M373.106 745.86C373.202 746.293 371.245 747.047 369.706 748.956C368.166 750.865 367.717 752.886 367.268 752.854C366.818 752.822 366.546 750.287 368.503 747.945C370.459 745.604 373.106 745.427 373.106 745.86Z" fill="#263238"/>
<path d="M378.544 757.473C378.127 757.569 377.517 755.308 378.672 752.853C379.827 750.399 381.96 749.405 382.153 749.774C382.345 750.143 381.03 751.474 380.1 753.511C379.169 755.548 379.025 757.441 378.544 757.473Z" fill="#263238"/>
<path d="M362.648 730.911C362.456 731.328 360.387 730.702 357.836 730.911C355.286 731.12 353.297 731.873 353.024 731.488C352.752 731.103 354.628 729.499 357.724 729.339C360.82 729.179 362.873 730.558 362.648 730.911Z" fill="#263238"/>
<path d="M253.079 461.551C253.079 461.551 363.867 490.423 377.63 509.527C389.243 525.743 328.259 691.324 328.259 691.324L280.139 687.17L300.894 548.616L176.761 509.158L195.512 461.487L253.079 461.551Z" fill="#263238"/>
<path d="M261.019 487.504C261.019 487.504 374.277 515.012 385.73 534.565C391.071 543.692 387.558 573.655 385.569 587.802C384.222 597.33 364.204 730.654 364.204 730.654H315.234L316.309 580.071L198.639 556.348C198.639 556.348 135.474 561.16 133.003 534.212L159.373 498.475L221.608 467.727L261.019 487.504Z" fill="#263238"/>
<path d="M252.389 484.039C252.389 484.039 252.95 484.167 253.993 484.472L258.805 485.803L277.283 490.968C285.303 493.214 295.12 495.957 306.46 499.325C317.8 502.694 330.648 506.768 344.587 512.045C351.57 514.654 358.777 517.627 366.209 520.963L371.823 523.497C373.714 524.421 375.556 525.444 377.341 526.561C379.166 527.704 380.888 529.003 382.489 530.443C384.153 531.905 385.548 533.648 386.612 535.592C390.429 552.947 388.119 571.922 385.28 591.315C384.045 601.083 382.457 611.044 380.966 621.229C379.474 631.415 377.886 641.841 376.298 652.427C373.09 673.616 369.882 695.558 366.481 718.014C365.84 722.265 365.214 726.5 364.573 730.702V731.071H314.849V730.654C315.282 673.584 315.683 621.903 316.004 580.087L316.26 580.391L232.58 563.373L209.755 558.689L203.82 557.454C202.473 557.165 201.799 556.989 201.799 556.989L203.836 557.358L209.803 558.513L232.724 563.004L316.373 579.718H316.629V579.99C316.356 621.807 316.02 673.487 315.651 730.574L315.234 730.157H364.188L363.787 730.51C364.412 726.291 365.054 722.073 365.679 717.822L375.512 652.234C377.116 641.627 378.677 631.227 380.196 621.037C381.703 610.851 383.307 600.89 384.559 591.122C385.222 586.246 385.869 581.434 386.499 576.686C387.175 572.013 387.592 567.306 387.751 562.587C387.911 557.935 387.911 553.353 387.751 548.841C387.654 546.579 387.526 544.349 387.333 542.136C387.315 539.965 386.874 537.818 386.034 535.816C385.014 533.944 383.673 532.267 382.072 530.86C380.508 529.448 378.823 528.176 377.036 527.058C375.277 525.941 373.456 524.923 371.582 524.011L366 521.46C358.59 518.14 351.388 515.141 344.426 512.526C330.52 507.217 317.672 503.159 306.364 499.694C295.055 496.229 285.239 493.503 277.235 491.209L258.789 486.012L253.977 484.6C252.934 484.232 252.389 484.039 252.389 484.039Z" fill="#455A64"/>
<path d="M409.244 415.934C409.966 414.843 419.317 404.048 421.836 404.048C424.354 404.048 427.241 406.935 427.241 406.935C428.925 406.162 430.802 405.911 432.631 406.213C434.796 406.935 444.869 415.565 444.869 418.805V424.21C445.097 425.639 445.097 427.096 444.869 428.525C444.516 431.043 438.453 435.358 438.453 435.358H403.855C403.855 435.358 397.263 430.915 398.081 426.728C398.899 422.542 409.244 415.934 409.244 415.934Z" fill="#FFBE9D"/>
<path d="M427.241 406.935C427.992 407.278 428.711 407.686 429.391 408.154L435.101 411.763C435.761 412.146 436.393 412.575 436.994 413.046C437.63 413.635 438.11 414.374 438.389 415.196C438.608 416.066 438.711 416.961 438.694 417.858L438.838 420.617C439.031 424.387 439.223 428.525 439.432 432.856L439.528 434.813V435.165L439.191 435.246L437.074 435.759H436.978C435.988 435.729 435.035 435.374 434.267 434.748C433.56 434.162 432.967 433.449 432.518 432.647C431.705 431.186 431.096 429.621 430.706 427.996C430.033 425.278 429.635 422.5 429.519 419.703L429.711 419.96L423.664 417.586C422.916 417.322 422.191 416.995 421.499 416.607C422.276 416.765 423.039 416.99 423.777 417.281L429.904 419.414H430.08V419.607C430.266 422.359 430.712 425.087 431.412 427.755C431.805 429.303 432.404 430.792 433.192 432.182C433.538 432.915 434.066 433.546 434.726 434.015C435.386 434.484 436.156 434.775 436.962 434.861H436.865L438.983 434.331L438.662 434.764L438.566 432.792C438.389 428.461 438.197 424.338 438.036 420.553C438.036 419.607 438.036 418.692 437.94 417.794C437.956 416.959 437.875 416.125 437.699 415.308C437.477 414.592 437.074 413.945 436.528 413.431C435.959 412.971 435.365 412.543 434.748 412.148L429.182 408.331C428.497 407.921 427.847 407.455 427.241 406.935Z" fill="#EB996E"/>
<path d="M403.855 434.123C404.615 433.959 405.388 433.857 406.165 433.818L412.468 433.321H412.565C414.909 433.872 417.281 434.3 419.67 434.604C421.048 434.792 422.435 434.904 423.825 434.941C424.5 435.052 425.191 435.011 425.848 434.823C426.506 434.634 427.113 434.302 427.626 433.85C428.056 433.237 428.266 432.496 428.22 431.749C428.22 430.963 428.107 430.145 428.075 429.311C427.983 428.631 427.654 428.006 427.145 427.546C426.638 427.037 426.06 426.605 425.429 426.263C423.14 425.11 420.564 424.653 418.018 424.948C417.106 425.033 416.187 424.9 415.336 424.56C414.485 424.22 413.728 423.682 413.126 422.991C412.372 421.916 412.436 421.13 412.485 421.146C412.696 421.726 412.999 422.267 413.383 422.75C413.984 423.351 414.713 423.807 415.516 424.085C416.319 424.363 417.175 424.455 418.018 424.354C420.675 423.96 423.389 424.385 425.798 425.573C426.497 425.945 427.14 426.415 427.706 426.969C428.374 427.572 428.796 428.4 428.893 429.295C428.893 430.032 429.054 430.899 429.054 431.733C429.098 432.673 428.82 433.601 428.268 434.363C427.709 435.011 426.944 435.447 426.102 435.598C425.347 435.74 424.576 435.789 423.809 435.743C422.333 435.743 420.922 435.55 419.574 435.374C417.158 435.026 414.764 434.539 412.404 433.914H412.501L406.197 434.139C405.418 434.216 404.633 434.211 403.855 434.123Z" fill="#EB996E"/>
<path d="M439.062 433.978C439.864 431.833 440.796 429.738 441.853 427.707C442.667 425.55 443.745 423.503 445.062 421.611C444.509 423.838 443.696 425.991 442.639 428.027C441.822 430.213 440.609 432.231 439.062 433.978Z" fill="#EB996E"/>
<path d="M364.108 441.276L488.723 442.88L528.823 330.376C529.251 329.25 529.232 328.002 528.77 326.89C528.307 325.777 527.437 324.884 526.337 324.393C525.744 324.118 525.101 323.969 524.448 323.956C523.795 323.942 523.147 324.064 522.544 324.315C521.94 324.565 521.396 324.938 520.944 325.41C520.493 325.882 520.144 326.442 519.921 327.056L480.382 433.593L363.996 434.748C363.145 434.748 362.329 435.086 361.727 435.688C361.126 436.289 360.788 437.105 360.788 437.956C360.772 438.396 360.847 438.835 361.008 439.245C361.17 439.655 361.414 440.027 361.725 440.339C362.037 440.65 362.409 440.894 362.819 441.056C363.229 441.217 363.668 441.292 364.108 441.276Z" fill="#263238"/>
<path d="M178.413 357.692C178.413 357.692 239.365 440.555 248.812 440.555H337.754V406.871L270.498 391.007C270.498 391.007 237.392 322.517 230.045 313.743C222.699 304.969 203.114 293.147 188.47 306.364C173.825 319.581 178.413 357.692 178.413 357.692Z" fill="#D38C88"/>
<path d="M337.69 410.191L352.27 409.02C352.27 409.02 352.575 403.615 355.767 401.706C358.959 399.797 358.622 395.659 360.579 395.98C361.638 396.188 362.728 396.188 363.787 395.98L375.865 385.81L386.051 379.138L394.07 377.534C394.07 377.534 398.882 378.801 394.07 383.244L388.97 386.115L384.527 390.574L394.696 385.57C395.164 385.344 395.676 385.227 396.196 385.227C396.715 385.227 397.228 385.344 397.696 385.57C400.447 386.759 403.07 388.226 405.523 389.949C405.743 390.154 405.918 390.403 406.037 390.679C406.157 390.954 406.219 391.252 406.219 391.553C406.219 391.853 406.157 392.151 406.037 392.427C405.918 392.703 405.743 392.951 405.523 393.157L409.966 396.974C409.966 396.974 410.929 402.075 405.828 400.792L401.706 399.845L396.188 405.203C396.188 405.203 414.65 401.385 415.917 401.995C417.184 402.604 418.788 405.491 415.917 408.026C413.046 410.56 401.914 409.934 399.38 412.485C396.845 415.035 380.003 430.402 375.865 431.348C371.727 432.294 337.786 440.587 337.786 440.587L337.69 410.191Z" fill="#FFBE9D"/>
<path d="M409.838 396.926C408.966 396.394 408.13 395.804 407.336 395.162C406.582 394.6 405.732 393.943 404.641 393.237C404.128 392.884 403.593 392.531 403.037 392.178C402.538 391.808 401.953 391.571 401.337 391.489C400.073 391.762 398.871 392.267 397.792 392.98C396.701 393.574 395.739 394.135 394.921 394.584C394.08 395.175 393.177 395.67 392.226 396.06C392.899 395.283 393.696 394.621 394.584 394.103C395.37 393.558 396.316 392.932 397.407 392.291C397.952 391.97 398.53 391.649 399.139 391.328C399.802 390.945 400.542 390.715 401.305 390.654C401.527 390.61 401.756 390.61 401.978 390.654C402.165 390.717 402.347 390.792 402.524 390.879C402.85 391.036 403.166 391.213 403.47 391.408C404.064 391.777 404.609 392.146 405.074 392.531C406.085 393.269 406.967 393.991 407.689 394.616C409.148 395.932 409.934 396.846 409.838 396.926Z" fill="#EB996E"/>
<path d="M365.167 394.745C365.295 394.937 363.787 396.252 361.959 397.953C360.13 399.653 358.751 401.064 358.574 400.888C359.25 399.522 360.207 398.314 361.381 397.343C362.411 396.179 363.711 395.287 365.167 394.745Z" fill="#EB996E"/>
<path d="M230.045 313.743C231.353 315.354 232.533 317.064 233.574 318.859C235.675 322.34 238.643 327.537 242.204 334.258C249.373 347.699 259.238 367.188 270.803 390.911L270.578 390.719L337.85 406.534H338.171V441.1H333.728H258.131H249.534C249.16 441.123 248.785 441.123 248.411 441.1C248.033 441.026 247.666 440.902 247.32 440.731C246.648 440.378 246.01 439.964 245.412 439.496C244.294 438.663 243.223 437.769 242.204 436.818C238.308 433.15 234.608 429.279 231.12 425.221C224.287 417.457 218.288 409.967 212.754 403.102C201.815 389.339 193.266 377.967 187.395 370.107L180.674 360.997C179.936 359.954 179.375 359.168 178.958 358.607C178.541 358.045 178.396 357.772 178.396 357.772C178.396 357.772 178.621 358.029 179.038 358.558L180.819 360.9L187.668 369.883C193.618 377.694 202.248 389.002 213.235 402.717C218.737 409.55 224.816 417.008 231.649 424.756C235.138 428.777 238.832 432.616 242.717 436.256C243.735 437.189 244.806 438.062 245.925 438.871C246.472 439.266 247.052 439.615 247.657 439.913C248.25 440.199 248.911 440.316 249.566 440.25H258.163H333.76H337.786L337.369 440.667C337.369 429.118 337.369 417.826 337.369 406.983L337.674 407.384L270.418 391.376H270.258L270.177 391.232C258.693 367.477 248.908 347.924 241.851 334.466C238.338 327.714 235.435 322.501 233.382 318.988C232.339 317.255 231.553 315.908 230.927 315.074C230.302 314.24 230.045 313.743 230.045 313.743Z" fill="#263238"/>
<path d="M221.191 308.321C221.191 308.466 219.106 307.632 215.706 306.862C213.708 306.419 211.682 306.113 209.643 305.947C207.149 305.756 204.645 305.756 202.152 305.947C199.666 306.208 197.204 306.664 194.79 307.311C192.815 307.85 190.88 308.525 188.999 309.332C185.791 310.727 183.963 311.914 183.882 311.786C184.244 311.421 184.654 311.108 185.101 310.856C186.27 310.085 187.492 309.399 188.758 308.802C190.636 307.899 192.583 307.148 194.581 306.557C197.03 305.856 199.537 305.378 202.072 305.129C204.611 304.896 207.167 304.896 209.707 305.129C211.78 305.341 213.833 305.711 215.85 306.236C217.201 306.589 218.525 307.04 219.812 307.583C220.726 307.968 221.223 308.257 221.191 308.321Z" fill="#263238"/>
<path d="M258.244 406.39C259.237 403.512 260.778 400.854 262.783 398.562C264.566 396.09 266.817 393.992 269.408 392.387C269.568 392.579 266.488 395.21 263.425 399.075C260.361 402.941 258.484 406.502 258.244 406.39Z" fill="#263238"/>
<path d="M256.207 396.06C259.615 393.041 264.055 391.45 268.605 391.617C268.605 391.873 265.67 392.178 262.189 393.429C258.709 394.68 256.351 396.268 256.207 396.06Z" fill="#263238"/>
<path d="M313.357 569.035C312.074 566.357 308.962 565.186 306.123 564.223C250.095 546.162 189.978 537.501 132.057 548.023C125.096 549.29 117.91 550.942 112.376 555.369C106.842 559.796 103.522 567.816 106.473 574.232L118.359 578.05C177.667 571.448 237.546 571.868 296.756 579.301C300.75 579.814 304.952 580.311 308.641 578.74C312.331 577.168 315.106 572.628 313.357 569.035Z" fill="#455A64"/>
<path d="M248.347 550.509C248.22 550.533 248.089 550.533 247.962 550.509L246.887 550.365L242.733 549.755C239.14 549.178 233.927 548.344 227.447 547.606C210.597 545.614 193.627 544.805 176.664 545.184C171.708 545.28 166.864 545.521 162.228 545.906C157.593 546.29 153.069 546.515 148.755 546.9C148.221 546.944 147.684 546.944 147.151 546.9C146.649 546.853 146.144 546.853 145.643 546.9C144.627 546.97 143.619 547.12 142.627 547.349L136.821 548.568C133.083 549.402 129.651 550.317 126.555 551.343C121.665 552.867 116.995 555.024 112.665 557.759C111.061 558.738 110.002 559.588 109.248 560.181L108.382 560.839C108.189 560.983 108.077 561.063 108.061 561.047L108.318 560.775L109.136 560.053C110.203 559.133 111.322 558.276 112.488 557.486C116.785 554.606 121.459 552.334 126.379 550.734C129.755 549.599 133.187 548.635 136.66 547.846L142.483 546.595C143.535 546.331 144.609 546.165 145.691 546.098C146.225 546.052 146.761 546.052 147.295 546.098C147.828 546.159 148.366 546.159 148.899 546.098C153.149 545.697 157.705 545.424 162.372 545.055C167.04 544.686 171.996 544.414 176.808 544.318C193.757 543.931 210.711 544.816 227.527 546.964C233.943 547.782 239.204 548.713 242.781 549.386L246.919 550.156L247.978 550.381L248.347 550.509Z" fill="#263238"/>
<path d="M107.933 459.209L203.435 462.545C203.768 462.558 204.094 462.64 204.393 462.787C204.692 462.933 204.957 463.141 205.17 463.397C205.383 463.653 205.54 463.95 205.631 464.271C205.722 464.591 205.744 464.927 205.697 465.256L191.951 579.782H213.476L224.576 453.707C224.701 452.69 224.613 451.658 224.319 450.677C224.024 449.695 223.528 448.785 222.863 448.006C222.198 447.226 221.378 446.593 220.455 446.147C219.532 445.701 218.527 445.452 217.502 445.415L105.367 441.405L107.933 459.209Z" fill="#455A64"/>
<path d="M615.487 450.868H600.521V454.188L633.468 769.102H648.834L615.487 450.868Z" fill="#455A64"/>
<path d="M281.373 450.868H296.339V454.253L265.622 769.005H250.256L281.373 450.868Z" fill="#455A64"/>
<path d="M281.373 450.868C281.373 450.868 281.373 451.43 281.245 452.472C281.117 453.515 280.988 455.183 280.796 457.284C280.395 461.503 279.818 467.726 279.064 475.714C277.46 491.754 275.294 514.9 272.551 543.612C266.97 600.971 259.254 680.449 250.657 768.99L250.256 768.524H265.622L265.205 768.909C279.769 621.053 292.104 495.796 296.21 454.189C296.21 452.585 296.21 451.686 296.21 450.804L296.323 450.916H285.095H282.336H281.422H282.304H285.031L296.387 450.836H296.499V450.965C296.499 451.847 296.499 452.777 296.499 454.349C292.473 495.957 280.363 621.165 266.023 769.118V769.503H249.823V769.038C258.549 680.401 266.392 600.826 272.054 543.403C274.925 514.74 277.219 491.61 278.823 475.618C279.625 467.598 280.251 461.503 280.668 457.284C280.892 455.215 281.053 453.627 281.165 452.472C281.277 451.317 281.373 450.868 281.373 450.868Z" fill="#263238"/>
<path d="M673.664 440.619H245.364V454.172H673.664V440.619Z" fill="#455A64"/>
<path d="M628.062 454.189C628.062 454.413 542.697 454.606 437.427 454.606C332.156 454.606 246.759 454.413 246.759 454.189C246.759 453.964 332.108 453.771 437.427 453.771C542.745 453.771 628.062 453.932 628.062 454.189Z" fill="#263238"/>
</g>
<defs>
<filter id="filter0_d_319_3" x="-4" y="0" width="810" height="810" filterUnits="userSpaceOnUse" color-interpolation-filters="sRGB">
<feFlood flood-opacity="0" result="BackgroundImageFix"/>
<feColorMatrix in="SourceAlpha" type="matrix" values="0 0 0 0 0 0 0 0 0 0 0 0 0 0 0 0 0 0 127 0" result="hardAlpha"/>
<feOffset dy="4"/>
<feGaussianBlur stdDeviation="2"/>
<feComposite in2="hardAlpha" operator="out"/>
<feColorMatrix type="matrix" values="0 0 0 0 0 0 0 0 0 0 0 0 0 0 0 0 0 0 0.25 0"/>
<feBlend mode="normal" in2="BackgroundImageFix" result="effect1_dropShadow_319_3"/>
<feBlend mode="normal" in="SourceGraphic" in2="effect1_dropShadow_319_3" result="shape"/>
</filter>
</defs>
</svg>
