<svg width="35" height="35" viewBox="0 0 35 35" fill="none" xmlns="http://www.w3.org/2000/svg">
<path d="M25.1771 12.5662L18.3741 0.756133C18.079 0.252044 17.582 0 17.085 0C16.588 0 16.091 0.252044 15.7959 0.774136L8.99292 12.5662H1.55318C0.698932 12.5662 0 13.3763 0 14.3665C0 14.5286 0.0155318 14.6906 0.0621272 14.8526L4.00721 31.5415C4.36444 33.0538 5.56039 34.17 6.98932 34.17H27.1807C28.6096 34.17 29.8056 33.0538 30.1783 31.5415L34.1234 14.8526L34.17 14.3665C34.17 13.3763 33.4711 12.5662 32.6168 12.5662H25.1771ZM12.4255 12.5662L17.085 4.64482L21.7445 12.5662H12.4255ZM17.085 26.9687C15.3765 26.9687 13.9786 25.3484 13.9786 23.3681C13.9786 21.3878 15.3765 19.7675 17.085 19.7675C18.7935 19.7675 20.1914 21.3878 20.1914 23.3681C20.1914 25.3484 18.7935 26.9687 17.085 26.9687Z" fill="white"/>
</svg>
