<svg width="733" height="733" viewBox="0 0 733 733" fill="none" xmlns="http://www.w3.org/2000/svg">
<path d="M121.661 105.108C126.021 84.1083 112.532 63.5499 91.5324 59.1897C70.5327 54.8294 49.9744 68.3183 45.6141 89.318C41.2538 110.318 54.7427 130.876 75.7424 135.236C96.7421 139.597 117.3 126.108 121.661 105.108Z" fill="#F5F5F5"/>
<path d="M101.257 98.3975C100.802 98.4751 100.34 98.5094 99.8786 98.5002H96.1109C92.9151 98.5002 88.4438 98.5734 83.4154 98.5734H83.1662V98.3242C83.1662 97.5179 83.1662 96.6677 83.1662 95.8174C83.1662 90.1879 83.1662 85.1009 83.2395 81.4066C83.2395 79.6327 83.2395 78.1667 83.3274 77.0086C83.3095 76.4739 83.3439 75.9387 83.43 75.4106C83.5152 75.9735 83.5593 76.5419 83.562 77.1112C83.562 78.24 83.562 79.706 83.65 81.5092C83.65 85.2035 83.65 90.3052 83.65 95.92V98.4269L83.4154 98.2216C88.4438 98.2216 92.9151 98.2216 96.1109 98.3096H99.8786C100.34 98.3017 100.8 98.3311 101.257 98.3975Z" fill="#E0E0E0"/>
<path d="M83.562 64.7529C83.8052 65.8245 83.8892 66.9261 83.8112 68.0221C83.8899 69.1133 83.8059 70.2101 83.562 71.2766C83.3095 70.2115 83.2254 69.1133 83.3128 68.0221C83.226 66.9261 83.3101 65.8232 83.562 64.7529Z" fill="#E0E0E0"/>
<path d="M101.227 69.9868C100.653 70.9061 99.9467 71.736 99.1309 72.4497C98.4172 73.2655 97.5873 73.9718 96.668 74.5461C97.2423 73.6268 97.9486 72.7969 98.7644 72.0832C99.4782 71.2674 100.308 70.5611 101.227 69.9868Z" fill="#E0E0E0"/>
<path d="M111.563 81.2896C110.756 82.0007 109.859 82.6021 108.894 83.0781C108.023 83.7089 107.078 84.2307 106.08 84.632C106.797 83.8168 107.663 83.1452 108.631 82.6529C109.513 82.0179 110.508 81.5553 111.563 81.2896Z" fill="#E0E0E0"/>
<path d="M117.632 98.0605C116.18 98.3094 114.705 98.393 113.234 98.3097C111.763 98.3937 110.288 98.3101 108.836 98.0605C110.289 97.8199 111.763 97.7363 113.234 97.8113C114.705 97.7363 116.179 97.8199 117.632 98.0605Z" fill="#E0E0E0"/>
<path d="M55.9572 97.4743C54.5689 97.7183 53.1572 97.8019 51.7498 97.7235C50.3473 97.8023 48.9403 97.7187 47.557 97.4743C48.9393 97.2211 50.3473 97.1374 51.7498 97.2251C53.1572 97.138 54.57 97.2216 55.9572 97.4743Z" fill="#E0E0E0"/>
<path d="M60.3112 109.95C59.3808 111.044 58.3282 112.027 57.174 112.882C56.1046 113.836 54.9347 114.672 53.6849 115.374C54.618 114.272 55.6813 113.288 56.8515 112.442C57.8981 111.472 59.0601 110.635 60.3112 109.95Z" fill="#E0E0E0"/>
<path d="M71.0717 119.611C70.4464 120.916 69.721 122.171 68.902 123.364C68.2293 124.642 67.4599 125.868 66.6004 127.029C67.028 125.647 67.6605 124.338 68.4769 123.144C69.1598 121.843 70.0346 120.652 71.0717 119.611Z" fill="#E0E0E0"/>
<path d="M83.562 132.071C83.3131 130.62 83.2295 129.144 83.3128 127.673C83.2186 126.159 83.3023 124.639 83.562 123.144C83.8026 124.596 83.8862 126.071 83.8112 127.542C83.8958 129.056 83.8122 130.575 83.562 132.071Z" fill="#E0E0E0"/>
<path d="M102.708 126.076C101.343 125.463 100.098 124.615 99.0283 123.569C97.8706 122.65 96.879 121.539 96.0963 120.285C97.2514 121.204 98.3573 122.182 99.4095 123.217C100.556 124.114 101.657 125.068 102.708 126.076Z" fill="#E0E0E0"/>
<path d="M111.695 116.444C110.615 115.708 109.63 114.842 108.763 113.864C107.781 113.001 106.914 112.015 106.182 110.932C107.265 111.671 108.25 112.543 109.114 113.527C110.093 114.387 110.96 115.367 111.695 116.444Z" fill="#E0E0E0"/>
<path d="M59.9008 85.5117C58.9333 84.8916 58.0595 84.1362 57.3059 83.2687C56.4351 82.5017 55.6797 81.6129 55.063 80.6299C56.0331 81.2463 56.9074 82.0021 57.6578 82.8729C58.5319 83.6366 59.2878 84.5259 59.9008 85.5117Z" fill="#E0E0E0"/>
<path d="M71.013 73.8128C70.0558 73.2198 69.1954 72.4831 68.4622 71.6285C67.6039 70.8906 66.8581 70.0313 66.2485 69.0776C67.207 69.6808 68.0714 70.4217 68.814 71.2766C69.6632 72.0139 70.4035 72.8678 71.013 73.8128Z" fill="#E0E0E0"/>
<path d="M694.561 60.9707H609.797V136.807H694.561V60.9707Z" fill="#FAFAFA"/>
<path d="M694.561 136.807C694.561 136.807 694.561 136.309 694.561 135.341C694.561 134.374 694.561 133.039 694.561 131.266C694.561 127.703 694.561 122.47 694.561 115.873C694.561 102.679 694.561 83.6939 694.459 60.9122L694.649 61.1028H609.885L610.105 60.8829C610.105 88.473 610.105 114.421 610.105 136.719L609.915 136.514L671.223 136.616H688.507H693.095H688.551H671.311L609.856 136.998H609.651V136.807C609.651 114.509 609.651 88.561 609.651 60.9709V60.7363H609.856H694.62H694.811V60.9416C694.811 83.7672 694.737 102.752 694.708 116.034C694.708 122.646 694.708 127.762 694.708 131.383C694.708 133.142 694.708 134.476 694.708 135.4C694.708 136.323 694.561 136.807 694.561 136.807Z" fill="#E0E0E0"/>
<path d="M642.299 74.4431C642.299 74.5603 637.901 74.663 632.33 74.663C626.759 74.663 622.376 74.5603 622.376 74.4431C622.376 74.3258 626.774 74.2085 632.33 74.2085C637.886 74.2085 642.299 74.3111 642.299 74.4431Z" fill="#E0E0E0"/>
<path d="M678.216 80.1315C678.216 80.2635 665.96 80.3661 650.845 80.3661C635.731 80.3661 623.46 80.2635 623.46 80.1315C623.46 79.9996 635.716 79.9116 650.845 79.9116C665.974 79.9116 678.216 80.0142 678.216 80.1315Z" fill="#E0E0E0"/>
<path d="M626.085 89.7778H622.508V93.3549H626.085V89.7778Z" fill="#E0E0E0"/>
<path d="M634.881 89.7778H631.304V93.3549H634.881V89.7778Z" fill="#E0E0E0"/>
<path d="M643.838 89.6162H640.261V93.1932H643.838V89.6162Z" fill="#E0E0E0"/>
<path d="M652.458 89.7778H648.881V93.3549H652.458V89.7778Z" fill="#E0E0E0"/>
<path d="M661.254 89.7778H657.677V93.3549H661.254V89.7778Z" fill="#E0E0E0"/>
<path d="M670.05 89.7778H666.473V93.3549H670.05V89.7778Z" fill="#E0E0E0"/>
<path d="M678.831 89.7778H675.254V93.3549H678.831V89.7778Z" fill="#EBEBEB"/>
<path d="M626.085 97.3716H622.508V100.949H626.085V97.3716Z" fill="#EBEBEB"/>
<path d="M634.881 97.3716H631.304V100.949H634.881V97.3716Z" fill="#E0E0E0"/>
<path d="M643.677 97.3716H640.1V100.949H643.677V97.3716Z" fill="#EBEBEB"/>
<path d="M652.458 97.3716H648.881V100.949H652.458V97.3716Z" fill="#E0E0E0"/>
<path d="M661.254 97.3716H657.677V100.949H661.254V97.3716Z" fill="#E0E0E0"/>
<path d="M670.211 97.2104H666.634V100.787H670.211V97.2104Z" fill="#E0E0E0"/>
<path d="M678.831 97.3716H675.254V100.949H678.831V97.3716Z" fill="#E0E0E0"/>
<path d="M626.085 104.965H622.508V108.542H626.085V104.965Z" fill="#E0E0E0"/>
<path d="M635.042 104.804H631.465V108.381H635.042V104.804Z" fill="#E0E0E0"/>
<path d="M643.677 104.965H640.1V108.542H643.677V104.965Z" fill="#E0E0E0"/>
<path d="M652.458 104.965H648.881V108.542H652.458V104.965Z" fill="#EBEBEB"/>
<path d="M661.254 104.965H657.677V108.542H661.254V104.965Z" fill="#E0E0E0"/>
<path d="M670.05 104.965H666.473V108.542H670.05V104.965Z" fill="#E0E0E0"/>
<path d="M678.831 104.965H675.254V108.542H678.831V104.965Z" fill="#E0E0E0"/>
<path d="M626.085 112.559H622.508V116.136H626.085V112.559Z" fill="#E0E0E0"/>
<path d="M634.881 112.559H631.304V116.136H634.881V112.559Z" fill="#E0E0E0"/>
<path d="M643.677 112.559H640.1V116.136H643.677V112.559Z" fill="#E0E0E0"/>
<path d="M652.619 112.398H649.042V115.975H652.619V112.398Z" fill="#E0E0E0"/>
<path d="M661.254 112.559H657.677V116.136H661.254V112.559Z" fill="#E0E0E0"/>
<path d="M670.05 112.559H666.473V116.136H670.05V112.559Z" fill="#EBEBEB"/>
<path d="M678.831 112.559H675.254V116.136H678.831V112.559Z" fill="#E0E0E0"/>
<path d="M626.085 120.153H622.508V123.73H626.085V120.153Z" fill="#E0E0E0"/>
<path d="M634.881 120.153H631.304V123.73H634.881V120.153Z" fill="#EBEBEB"/>
<path d="M643.677 120.153H640.1V123.73H643.677V120.153Z" fill="#E0E0E0"/>
<path d="M652.458 120.153H648.881V123.73H652.458V120.153Z" fill="#E0E0E0"/>
<path d="M661.254 120.153H657.677V123.73H661.254V120.153Z" fill="#E0E0E0"/>
<path d="M670.211 119.977H666.634V123.554H670.211V119.977Z" fill="#E0E0E0"/>
<path d="M678.831 120.153H675.254V123.73H678.831V120.153Z" fill="#E0E0E0"/>
<path d="M712.666 238.958C714.284 249.887 712.623 261.051 707.892 271.036C703.162 281.02 695.575 289.376 686.092 295.046C676.609 300.716 665.658 303.445 654.623 302.887C643.589 302.329 632.968 298.509 624.106 291.911C615.244 285.313 608.539 276.234 604.84 265.823C601.141 255.413 600.614 244.138 603.326 233.428C606.039 222.717 611.868 213.053 620.077 205.657C628.285 198.262 638.504 193.469 649.438 191.885C656.681 190.82 664.063 191.193 671.162 192.983C678.26 194.772 684.937 197.944 690.809 202.316C696.681 206.688 701.634 212.174 705.385 218.461C709.135 224.749 711.61 231.714 712.666 238.958Z" fill="#F5F5F5"/>
<path d="M699.517 240.878C700.74 249.2 699.467 257.697 695.86 265.295C692.252 272.893 686.472 279.251 679.251 283.563C672.029 287.875 663.691 289.948 655.291 289.52C646.891 289.092 638.807 286.182 632.061 281.158C625.315 276.134 620.211 269.222 617.395 261.297C614.578 253.371 614.176 244.789 616.239 236.635C618.302 228.48 622.737 221.122 628.983 215.489C635.229 209.856 643.006 206.202 651.329 204.991C662.477 203.368 673.813 206.235 682.848 212.964C691.883 219.693 697.878 229.733 699.517 240.878Z" fill="#EBEBEB"/>
<path d="M699.282 239.559C699.018 239.559 698.578 237.785 697.435 234.662C695.832 230.272 693.557 226.157 690.691 222.465C686.473 217.031 680.993 212.709 674.726 209.872C672.929 209.053 671.071 208.372 669.17 207.835C667.203 207.251 665.193 206.82 663.16 206.544C661.051 206.26 658.924 206.137 656.797 206.178C652.408 206.25 648.058 207.022 643.911 208.465C641.892 209.154 639.931 210.002 638.047 211.001C634.476 212.882 631.201 215.277 628.328 218.111C625.721 220.674 623.454 223.561 621.584 226.702C619.957 229.48 618.644 232.43 617.67 235.498C616.251 239.949 615.534 244.593 615.544 249.264C615.544 252.592 615.749 254.453 615.544 254.497C615.339 254.541 614.723 252.738 614.327 249.337C613.811 244.478 614.209 239.566 615.5 234.853C617.402 227.771 621.104 221.302 626.246 216.073C630.9 211.315 636.589 207.693 642.87 205.489C647.338 203.916 652.032 203.079 656.768 203.011C659.063 202.984 661.357 203.136 663.629 203.466C665.824 203.783 667.991 204.273 670.109 204.932C672.12 205.544 674.081 206.314 675.973 207.234C679.504 208.922 682.793 211.076 685.751 213.64C688.306 215.872 690.585 218.402 692.538 221.175C695.374 225.154 697.438 229.629 698.622 234.369C699.487 237.624 699.502 239.529 699.282 239.559Z" fill="#E0E0E0"/>
<path d="M665.842 271.415L667.015 278.745L660.477 279.786L659.333 272.661C652.81 273.306 646.286 272.28 642.24 270.052L644.556 261.505C648.727 263.52 653.348 264.419 657.97 264.115L656.226 253.193C648.69 252.592 640.202 251.478 638.707 242.139C637.593 235.205 641.639 228.461 651.813 225.632L650.64 218.302L657.178 217.261L658.322 224.386C663.037 223.894 667.801 224.532 672.22 226.248L670.24 234.809C666.876 233.542 663.293 232.959 659.7 233.094L661.474 244.206C668.994 244.734 677.351 245.878 678.831 255.084C679.916 261.857 675.899 268.527 665.842 271.415ZM654.686 243.561L653.22 234.296C649.878 235.63 648.822 237.741 649.159 239.896C649.497 242.051 651.666 243.136 654.686 243.576V243.561ZM668.437 257.518C668.071 255.231 665.989 254.292 663.013 253.75L664.479 262.766C667.616 261.549 668.774 259.614 668.496 257.532L668.437 257.518Z" fill="#E0E0E0"/>
<path d="M317.125 208.172C318.134 215 317.094 221.974 314.139 228.211C311.183 234.448 306.444 239.669 300.521 243.212C294.598 246.756 287.757 248.463 280.863 248.117C273.97 247.772 267.333 245.39 261.794 241.272C256.255 237.155 252.061 231.487 249.743 224.985C247.426 218.484 247.089 211.441 248.775 204.748C250.461 198.055 254.094 192.012 259.215 187.384C264.336 182.756 270.714 179.751 277.543 178.749C282.074 178.078 286.694 178.308 291.136 179.424C295.579 180.54 299.758 182.521 303.435 185.254C307.111 187.986 310.212 191.417 312.562 195.35C314.911 199.282 316.461 203.639 317.125 208.172Z" fill="#F5F5F5"/>
<path d="M308.916 209.433C309.685 214.639 308.892 219.956 306.638 224.711C304.384 229.467 300.77 233.446 296.252 236.147C291.735 238.847 286.519 240.146 281.263 239.88C276.007 239.613 270.948 237.794 266.727 234.651C262.506 231.508 259.312 227.184 257.55 222.225C255.788 217.266 255.537 211.896 256.828 206.794C258.12 201.692 260.896 197.089 264.805 193.566C268.714 190.042 273.581 187.758 278.789 187.003C285.758 185.984 292.847 187.774 298.496 191.98C304.146 196.186 307.894 202.464 308.916 209.433Z" fill="#EBEBEB"/>
<path d="M308.784 208.597C308.29 207.625 307.901 206.603 307.625 205.548C306.651 202.797 305.246 200.219 303.462 197.91C300.826 194.511 297.398 191.809 293.479 190.037C292.359 189.525 291.203 189.099 290.019 188.762C288.786 188.395 287.526 188.125 286.251 187.956C284.934 187.781 283.607 187.702 282.278 187.721C280.907 187.752 279.54 187.884 278.188 188.117C276.816 188.345 275.463 188.679 274.142 189.114C272.886 189.545 271.665 190.075 270.492 190.697C269.35 191.295 268.257 191.981 267.222 192.749C266.228 193.471 265.291 194.27 264.422 195.139C262.79 196.739 261.371 198.542 260.2 200.505C257.695 204.764 256.393 209.623 256.433 214.564C256.539 215.651 256.539 216.746 256.433 217.833C255.95 216.825 255.69 215.725 255.67 214.607C255.348 211.573 255.597 208.505 256.403 205.562C256.952 203.52 257.745 201.551 258.764 199.698C259.956 197.553 261.436 195.58 263.162 193.834C265.062 191.9 267.235 190.256 269.612 188.952C272.181 187.561 274.958 186.596 277.836 186.094C279.289 185.837 280.759 185.695 282.234 185.669C285.061 185.622 287.877 186.028 290.576 186.871C291.845 187.26 293.08 187.75 294.27 188.337C296.477 189.394 298.532 190.739 300.383 192.339C301.975 193.736 303.397 195.315 304.62 197.045C306.394 199.535 307.686 202.334 308.432 205.298C308.784 206.36 308.904 207.485 308.784 208.597Z" fill="#E0E0E0"/>
<path d="M287.849 228.505L288.582 233.079L284.507 233.739L283.788 229.341C280.144 229.813 276.44 229.249 273.101 227.713L274.567 222.363C277.174 223.625 280.063 224.19 282.953 224.004L281.853 217.173C277.147 216.806 271.84 216.103 270.917 210.268C270.213 205.87 272.764 201.721 279.097 200.006L278.379 195.476L282.454 194.816L283.173 199.214C286.116 198.904 289.092 199.302 291.851 200.373L290.62 205.723C288.523 204.915 286.284 204.536 284.038 204.609L285.152 211.543C289.843 211.881 295.076 212.599 295.985 218.346C296.66 222.538 294.138 226.717 287.849 228.505ZM280.886 211.104L279.947 205.313C277.866 206.149 277.206 207.468 277.411 208.817C277.616 210.165 278.994 210.84 280.886 211.104ZM289.476 219.9C289.256 218.434 288.01 217.877 286.09 217.539L286.999 223.184C288.963 222.348 289.696 221.146 289.476 219.9Z" fill="#E0E0E0"/>
<path d="M560.349 65.9698C561.235 71.9618 560.323 78.0819 557.728 83.5554C555.134 89.0289 550.974 93.6096 545.775 96.7178C540.577 99.826 534.572 101.322 528.523 101.016C522.474 100.71 516.651 98.6168 511.792 95.0002C506.933 91.3837 503.256 86.4069 501.227 80.6997C499.198 74.9926 498.907 68.8117 500.392 62.9395C501.878 57.0673 505.072 51.7677 509.57 47.7115C514.069 43.6554 519.67 41.0251 525.664 40.1535C529.636 39.5701 533.685 39.7751 537.579 40.7568C541.472 41.7386 545.134 43.4779 548.355 45.8753C551.576 48.2728 554.293 51.2814 556.351 54.7293C558.409 58.1771 559.768 61.9967 560.349 65.9698Z" fill="#F5F5F5"/>
<path d="M553.136 67.0546C553.812 71.6222 553.117 76.2876 551.139 80.4598C549.161 84.632 545.989 88.1232 542.026 90.4912C538.062 92.8592 533.484 93.9975 528.873 93.7618C524.262 93.5261 519.824 91.9271 516.122 89.1672C512.421 86.4074 509.621 82.6109 508.079 78.2588C506.537 73.9067 506.321 69.1948 507.459 64.7199C508.597 60.245 511.037 56.2086 514.471 53.1219C517.905 50.0352 522.178 48.0372 526.748 47.3809C532.856 46.4921 539.067 48.0653 544.016 51.7546C548.964 55.4438 552.245 60.9471 553.136 67.0546Z" fill="#EBEBEB"/>
<path d="M553.034 66.3214C552.59 65.4694 552.246 64.5693 552.008 63.6386C550.555 59.5595 548.022 55.9516 544.678 53.2007C543.118 51.9378 541.403 50.8787 539.576 50.0488C537.562 49.1462 535.429 48.5342 533.243 48.231C532.087 48.0737 530.92 48.0051 529.754 48.0257C528.55 48.0564 527.349 48.174 526.162 48.3776C524.985 48.5977 523.825 48.8965 522.688 49.2718C521.581 49.6759 520.507 50.1661 519.477 50.7378C518.479 51.2644 517.523 51.8672 516.618 52.541C515.746 53.1771 514.923 53.8779 514.156 54.6374C512.729 56.0477 511.487 57.634 510.461 59.3579C509.564 60.864 508.841 62.4674 508.306 64.1371C507.529 66.5779 507.138 69.1253 507.148 71.687C507.254 72.6369 507.254 73.5957 507.148 74.5457C506.718 73.6635 506.488 72.6975 506.474 71.7163C506.196 69.0555 506.414 66.3661 507.119 63.7852C507.603 61.9879 508.302 60.2553 509.2 58.6249C510.792 55.718 512.981 53.1801 515.622 51.1776C516.59 50.439 517.614 49.7772 518.685 49.1985C519.796 48.6254 520.948 48.1353 522.131 47.7325C523.355 47.3125 524.61 46.9841 525.884 46.7503C527.163 46.5346 528.456 46.4121 529.754 46.3838C532.236 46.3521 534.708 46.7032 537.084 47.4247C538.197 47.7721 539.285 48.1984 540.338 48.7001C542.271 49.6236 544.07 50.802 545.689 52.2038C547.09 53.4293 548.34 54.8171 549.413 56.3379C550.923 58.4855 552.031 60.8897 552.682 63.4334C553.004 64.36 553.123 65.3447 553.034 66.3214Z" fill="#E0E0E0"/>
<path d="M534.665 83.7963L535.31 87.7985L531.733 88.3703L531.102 84.4707C527.904 84.8744 524.657 84.3662 521.735 83.0047L522.996 78.3135C525.271 79.4273 527.797 79.9324 530.326 79.7795L529.373 73.7982C525.238 73.461 520.577 72.86 519.77 67.729C519.155 63.932 521.398 60.2377 526.954 58.6838L526.294 54.7109L529.886 54.1392L530.501 58.0387C533.088 57.7695 535.701 58.1213 538.125 59.0649L537.04 63.7561C535.198 63.0497 533.236 62.7111 531.264 62.7592L532.231 68.8578C536.365 69.151 540.939 69.7814 541.746 74.8244C542.42 78.5481 540.192 82.2131 534.665 83.7963ZM528.552 68.5353L527.76 63.4483C525.928 64.1813 525.341 65.3394 525.532 66.5269C525.722 67.7143 526.895 68.2861 528.552 68.5353ZM536.102 76.2318C535.896 74.9857 534.753 74.4726 533.17 74.1794L533.961 79.1198C535.647 78.3868 536.277 77.3313 536.102 76.2318Z" fill="#E0E0E0"/>
<path d="M147.45 211.705H33.0143V282.528H147.45V211.705Z" fill="#FAFAFA"/>
<path d="M119.831 262.912C111.9 259.907 102.767 268.234 94.9968 264.833C90.4668 262.868 88.4144 257.737 86.2008 253.325C83.9871 248.912 80.1609 244.265 75.2498 244.778C70.3387 245.291 66.2925 251.023 61.5134 249.645C58.4934 248.78 56.9834 245.423 56.2358 242.388C55.4881 239.354 54.9457 235.967 52.6587 233.827C50.3718 231.687 45.5633 232.273 45.1968 235.381V272.94H134.681C134.681 272.94 122.572 263.968 119.831 262.912Z" fill="#EBEBEB"/>
<path d="M137.071 272.94C137.071 272.94 115.374 273.072 88.693 273.072C62.0118 273.072 40.2417 273.071 40.2417 272.94C40.2417 272.808 61.9385 272.793 88.693 272.793C115.448 272.793 137.071 272.852 137.071 272.94Z" fill="#E0E0E0"/>
<path d="M137.071 256.55C137.071 256.55 115.374 256.697 88.693 256.697C62.0118 256.697 40.1684 256.55 40.1684 256.55C40.1684 256.55 61.8652 256.403 88.6197 256.403C115.374 256.403 137.071 256.447 137.071 256.55Z" fill="#E0E0E0"/>
<path d="M137.071 240.131C137.071 240.219 115.374 240.277 88.693 240.277C62.0118 240.277 40.2417 240.277 40.2417 240.131C40.2417 239.984 61.9385 239.984 88.693 239.984C115.448 239.984 137.071 240.057 137.071 240.131Z" fill="#E0E0E0"/>
<path d="M137.071 224.547C137.071 224.62 115.374 224.694 88.693 224.694C62.0118 224.694 40.2417 224.62 40.2417 224.547C40.2417 224.474 61.9385 224.4 88.693 224.4C115.448 224.4 137.071 224.459 137.071 224.547Z" fill="#E0E0E0"/>
<path d="M303.257 132.453L311.012 130.225C311.26 131.111 311.684 131.939 312.259 132.658C312.833 133.377 313.547 133.973 314.356 134.411C315.166 134.849 316.056 135.119 316.972 135.206C317.889 135.292 318.813 135.194 319.691 134.916C321.007 134.589 322.189 133.86 323.072 132.83C323.955 131.8 324.495 130.52 324.616 129.169C324.736 128.034 324.584 126.886 324.174 125.821C323.764 124.756 323.106 123.803 322.256 123.041C320.321 121.253 316.876 120.109 311.906 122.528L306.892 105.039L314.56 102.84L317.492 113.102C320.903 113.115 324.215 114.249 326.919 116.328C329.623 118.407 331.57 121.317 332.459 124.61C335.714 135.957 326.302 141.513 321.948 142.759C318.62 143.668 307.039 146.189 303.257 132.453Z" fill="#EBEBEB"/>
<path d="M311.531 91.9157L303.753 94.1489L305.841 101.42L313.619 99.1865L311.531 91.9157Z" fill="#EBEBEB"/>
<path d="M447.672 126.472L443.421 124.126C443.692 123.643 443.862 123.11 443.923 122.56C443.984 122.01 443.933 121.453 443.775 120.922C443.616 120.392 443.353 119.898 443 119.472C442.647 119.045 442.212 118.693 441.72 118.438C441.02 118.019 440.206 117.828 439.392 117.891C438.578 117.954 437.804 118.268 437.176 118.79C436.647 119.225 436.227 119.778 435.95 120.404C435.672 121.03 435.545 121.712 435.578 122.396C435.578 123.979 436.619 125.944 439.771 127.014L434.464 136.602L430.256 134.271L433.364 128.656C431.918 127.198 430.99 125.304 430.726 123.267C430.461 121.23 430.873 119.162 431.898 117.382C435.343 111.181 441.706 112.823 444.095 114.143C445.928 115.154 451.895 119.024 447.672 126.472Z" fill="#EBEBEB"/>
<path d="M426.902 140.22L431.159 142.578L433.361 138.603L429.104 136.244L426.902 140.22Z" fill="#EBEBEB"/>
<path d="M189.891 508.071L155.719 568.06H227.45L189.891 508.071Z" fill="#EBEBEB"/>
<path d="M178.075 561.976C178.075 561.976 165.643 600.737 212.291 632.667C258.94 664.596 305.514 654.657 321.596 686.337H354.948C354.948 686.337 339.804 658.483 304.781 645.817C278.657 636.361 203.994 630.38 203.994 561.976H178.075Z" fill="#EBEBEB"/>
<path d="M559.939 509.435L594.111 569.423H522.38L559.939 509.435Z" fill="#EBEBEB"/>
<path d="M573.66 561.976C573.66 561.976 586.092 600.737 539.459 632.667C492.825 664.596 446.221 654.657 430.139 686.337H396.788C396.788 686.337 411.931 658.483 446.954 645.817C473.093 636.361 547.742 630.38 547.742 561.976H573.66Z" fill="#EBEBEB"/>
<path d="M459.532 357.939C459.005 358.028 458.47 358.067 457.934 358.056L453.39 358.144L436.633 358.32L381.365 358.467H376.967V357.939C376.967 337.298 377.085 318.797 377.128 305.309C377.202 298.698 377.246 293.332 377.29 289.491C377.29 287.717 377.363 286.281 377.392 285.211C377.375 284.72 377.409 284.228 377.495 283.745C377.561 284.23 377.59 284.72 377.583 285.211C377.583 286.281 377.583 287.717 377.686 289.491C377.686 293.332 377.774 298.698 377.847 305.309C377.847 318.797 377.949 337.298 378.008 357.939L377.495 357.426H381.424L436.692 357.572L453.448 357.748L457.993 357.836C458.508 357.839 459.022 357.873 459.532 357.939Z" fill="white"/>
<path d="M450.399 301.732C449.649 302.576 448.83 303.356 447.951 304.063L441.031 310.147C435.167 315.249 426.973 322.256 417.898 329.924L416.535 331.096L416.183 331.39L415.846 331.067L405.584 321.523H406.229L391.129 333.97L386.731 337.473C386.225 337.919 385.674 338.312 385.089 338.646C385.527 338.109 386.018 337.618 386.555 337.18L390.762 333.457L405.613 320.717L405.935 320.439L406.258 320.732L416.593 330.231H415.904L417.268 329.073C426.342 321.391 434.596 314.487 440.592 309.532L447.731 303.668C448.568 302.953 449.46 302.306 450.399 301.732Z" fill="white"/>
<path d="M450.399 318.928C450.117 317.238 449.999 315.525 450.047 313.812C449.959 310.631 449.886 306.233 449.886 301.322L450.399 301.849H449.52C444.418 301.849 439.785 301.849 436.443 301.688C434.632 301.746 432.82 301.624 431.033 301.322C432.82 301.02 434.632 300.897 436.443 300.955C439.785 300.867 444.418 300.809 449.52 300.809H450.986V301.322C450.986 306.233 450.986 310.631 450.824 313.812C450.863 315.528 450.721 317.243 450.399 318.928Z" fill="white"/>
<path d="M346.665 670.944L350.227 700.499C350.227 700.499 321.464 713.414 321.596 718.956L379.064 714.734L375.399 668.496L346.665 670.944Z" fill="#D38C88"/>
<path d="M367.438 696.643C368.009 696.769 368.513 697.1 368.856 697.573C369.199 698.045 369.357 698.627 369.3 699.209C369.203 699.786 368.886 700.304 368.416 700.653C367.946 701.003 367.36 701.158 366.779 701.085C366.172 700.955 365.635 700.603 365.272 700.1C364.909 699.596 364.746 698.975 364.814 698.358C364.982 697.768 365.372 697.266 365.903 696.958C366.433 696.649 367.062 696.557 367.658 696.702" fill="#E0E0E0"/>
<path d="M379.064 714.734L378.77 711.04L323.062 716.259C322.581 716.616 322.178 717.069 321.878 717.588C321.578 718.108 321.387 718.683 321.318 719.279L379.064 714.734Z" fill="#263238"/>
<path d="M349.714 700.748C349.714 701.026 351.18 701.041 352.646 701.833C354.112 702.624 354.963 703.753 355.212 703.621C355.461 703.489 354.904 701.891 353.101 700.953C351.298 700.015 349.626 700.484 349.714 700.748Z" fill="#263238"/>
<path d="M343.85 703.768C343.85 704.047 345.067 704.413 346.137 705.542C347.207 706.671 347.603 707.902 347.867 707.858C348.131 707.814 348.19 706.202 346.841 704.838C345.492 703.475 343.836 703.489 343.85 703.768Z" fill="#263238"/>
<path d="M341.006 711.333C341.27 711.333 341.549 709.867 340.684 708.401C339.819 706.935 338.455 706.407 338.353 706.656C338.25 706.905 339.144 707.668 339.819 708.899C340.493 710.13 340.728 711.333 341.006 711.333Z" fill="#263238"/>
<path d="M349.656 693.858C349.788 694.107 351.122 693.609 352.661 693.579C354.2 693.55 355.593 693.96 355.696 693.697C355.798 693.433 354.537 692.538 352.646 692.597C350.755 692.656 349.494 693.653 349.656 693.858Z" fill="#263238"/>
<path d="M348.087 687.554C349.069 687.744 350.084 687.657 351.019 687.305C352.041 687.023 353.025 686.619 353.951 686.103C354.51 685.803 355.044 685.46 355.549 685.077C355.862 684.874 356.139 684.621 356.37 684.329C356.525 684.116 356.608 683.859 356.608 683.596C356.608 683.333 356.525 683.076 356.37 682.863C356.209 682.682 356.009 682.54 355.786 682.446C355.563 682.352 355.322 682.309 355.08 682.321C354.709 682.355 354.344 682.439 353.995 682.57C353.39 682.768 352.806 683.023 352.25 683.332C351.305 683.859 350.449 684.532 349.714 685.326C348.483 686.675 348.102 687.774 348.248 687.818C348.395 687.862 348.967 686.968 350.257 685.824C351.002 685.159 351.83 684.592 352.72 684.138C353.242 683.877 353.787 683.661 354.347 683.493C354.948 683.274 355.461 683.23 355.652 683.493C355.842 683.757 355.725 683.625 355.652 683.816C355.479 684.03 355.277 684.217 355.051 684.373C354.579 684.735 354.09 685.072 353.585 685.385C352.722 685.9 351.814 686.337 350.872 686.689C349.924 686.908 348.993 687.197 348.087 687.554Z" fill="#263238"/>
<g opacity="0.3">
<path opacity="0.3" d="M376.879 686.22L377.334 692.803L349.553 694.943L349.099 688.962L376.879 686.22Z" fill="black"/>
</g>
<path d="M428.526 667.558L431.004 714.074L405.935 715.906L403.37 669.317L428.526 667.558Z" fill="#D38C88"/>
<path d="M418.528 713.224C418.323 713.224 417.737 703.05 417.224 690.486C416.71 677.923 416.476 667.719 416.681 667.719C416.886 667.719 417.473 677.893 417.986 690.457C418.499 703.021 418.733 713.209 418.528 713.224Z" fill="#263238"/>
<path d="M430.828 710.863L405.759 712.622L405.935 715.906L431.004 714.074L430.828 710.863Z" fill="#263238"/>
<path d="M405.114 701.012C405.114 701.012 405.276 700.602 405.716 699.971C406.336 699.069 407.043 698.229 407.827 697.464C408.993 696.308 410.315 695.322 411.755 694.532C413.528 693.545 415.505 692.983 417.531 692.891C419.368 692.797 421.203 693.083 422.924 693.731C424.644 694.379 426.212 695.376 427.53 696.658C428.32 697.434 428.996 698.317 429.538 699.282C429.767 699.623 429.922 700.007 429.992 700.411C429.168 699.205 428.236 698.077 427.207 697.039C424.579 694.686 421.128 693.463 417.605 693.638C414.094 693.923 410.788 695.403 408.237 697.831C406.185 699.678 405.232 701.1 405.114 701.012Z" fill="#263238"/>
<g opacity="0.3">
<path opacity="0.3" d="M429.729 686.337L429.773 692.744L404.675 692.89L404.352 687.085L429.729 686.337Z" fill="black"/>
</g>
<path d="M367.966 145.867L368.758 145.677C370.011 143.537 371.779 141.746 373.902 140.466C376.025 139.185 378.434 138.457 380.911 138.347C385.882 138.248 390.699 140.076 394.354 143.448C396.919 145.706 398.943 148.535 401.523 150.778C404.103 153.021 407.519 154.722 410.861 154.018C411.272 155.264 408.941 156.012 409.087 157.317C409.156 157.623 409.321 157.9 409.558 158.106C409.796 158.312 410.093 158.436 410.407 158.46C411.324 158.541 412.246 158.541 413.163 158.46C413.622 158.43 414.079 158.544 414.47 158.785C414.862 159.027 415.168 159.385 415.347 159.809C415.425 160.251 415.384 160.706 415.23 161.128C414.363 165.082 412.495 168.747 409.806 171.771C408.448 173.267 406.747 174.41 404.85 175.102C402.952 175.794 400.915 176.014 398.913 175.744C395.747 175.143 393.049 173.076 390.586 171.068L376.278 159.604C373.999 157.928 371.953 155.956 370.194 153.74C368.451 151.508 367.651 148.682 367.966 145.867Z" fill="#263238"/>
<path d="M370.898 146.6C368.978 144.984 366.694 143.857 364.242 143.317C363.017 143.048 361.75 143.03 360.518 143.264C359.286 143.498 358.114 143.98 357.074 144.68C355.313 146.216 353.826 148.04 352.676 150.075C352.097 151.085 351.321 151.97 350.395 152.675C349.468 153.38 348.409 153.892 347.281 154.18C346.871 154.182 346.472 154.31 346.137 154.546C345.609 155.045 345.991 156.012 346.65 156.305C347.339 156.54 348.087 156.54 348.776 156.305C347.623 157.646 346.035 158.539 344.29 158.827C344.389 159.254 344.573 159.658 344.831 160.013C345.089 160.368 345.416 160.668 345.792 160.895C346.168 161.122 346.585 161.271 347.02 161.334C347.454 161.397 347.897 161.372 348.322 161.26C347.542 163.936 347.099 166.699 347.002 169.485C346.907 172.292 347.858 175.035 349.67 177.181C351.767 179.439 355.153 180.685 356.062 183.617" fill="#263238"/>
<path d="M390.938 244.822L353.717 244.353L357.88 212.57C357.88 212.57 355.329 212.028 355.168 198.233C355.007 184.438 354.362 161.011 354.362 161.011C362.206 157.65 370.806 156.444 379.272 157.519C387.738 158.593 395.764 161.909 402.52 167.124L404.557 168.707L390.938 244.822Z" fill="#FFBE9D"/>
<path d="M400.218 185.64C400.453 185.537 409.703 182.84 409.395 192.266C409.087 201.692 399.69 199.449 399.69 199.185C399.69 198.922 400.218 185.64 400.218 185.64Z" fill="#FFBE9D"/>
<path d="M355.959 183.675C355.725 183.572 347.325 181.315 347.618 190.741C347.911 200.168 357.323 197.91 357.338 197.646C357.352 197.382 355.959 183.675 355.959 183.675Z" fill="#FFBE9D"/>
<path d="M403.297 184.599C401.831 192.486 402.168 196.649 400.863 201.912C398.796 210.268 394.647 216.675 387.127 220.838C379.606 225.002 369.432 224.928 362.967 219.255C358.481 215.326 355.314 210.869 354.64 204.932C353.966 198.995 352.236 187.868 352.192 181.901C352.119 171.141 352.47 161.48 352.47 161.48L383.256 155.924L400.746 166.318L403.297 184.599Z" fill="#263238"/>
<path d="M371.572 225.603C373.292 226.258 375.16 226.42 376.967 226.072C378.798 226.006 380.577 225.444 382.113 224.444C382.025 224.21 379.753 224.914 376.865 225.221C373.977 225.529 371.602 225.353 371.572 225.603Z" fill="#263238"/>
<path d="M401.801 198.027C402.71 189.92 403.267 180.67 404.557 172.138C405.026 168.927 406.17 164.309 405.891 161.084C405.613 157.859 404.719 158.841 403.297 155.924C401.508 152.259 394.676 149.81 390.674 149.004C386.672 148.198 386.174 144.753 383.11 147.436C381.983 145.75 380.371 144.448 378.486 143.702C376.602 142.955 374.535 142.8 372.56 143.257C370.586 143.713 368.797 144.76 367.431 146.258C366.066 147.756 365.189 149.634 364.917 151.643C363.814 150.589 362.394 149.928 360.878 149.763C359.361 149.597 357.832 149.936 356.528 150.728C355.224 151.52 354.217 152.719 353.664 154.141C353.11 155.562 353.041 157.127 353.467 158.592C352.357 158.777 351.311 159.236 350.423 159.926C349.535 160.617 348.833 161.518 348.381 162.548C347.928 163.579 347.74 164.705 347.832 165.827C347.924 166.948 348.294 168.029 348.908 168.971C350.374 171.155 352.895 172.372 354.464 174.454C355.356 175.677 355.875 177.132 355.958 178.643C356.041 180.155 355.685 181.658 354.933 182.971" fill="#263238"/>
<path d="M362.19 196.341C361.89 199.151 362.257 201.992 363.26 204.633C364.264 207.275 365.876 209.642 367.966 211.544C368.171 211.368 365.664 208.612 364.081 204.316C362.498 200.021 362.454 196.327 362.19 196.341Z" fill="#455A64"/>
<path d="M358.056 189.466C357.191 191.867 356.974 194.454 357.427 196.966C357.88 199.478 358.987 201.826 360.636 203.774C359.647 201.538 358.862 199.217 358.29 196.84C357.557 192.794 358.32 189.51 358.056 189.466Z" fill="#455A64"/>
<path d="M396.788 156.862C394.559 153.068 391.202 150.065 387.185 148.271C385.175 147.411 382.972 147.102 380.803 147.375C378.633 147.648 376.576 148.494 374.842 149.825" fill="#263238"/>
<path d="M396.011 177.738C395.942 176.8 396.042 175.856 396.304 174.953C396.744 172.805 396.984 170.621 397.022 168.429C397.003 166.26 396.502 164.122 395.556 162.169C394.808 160.703 394.09 159.926 394.193 159.794C394.295 159.662 395.248 160.278 396.23 161.788C397.44 163.785 398.069 166.08 398.048 168.414C398.037 170.692 397.687 172.955 397.007 175.129C396.845 176.054 396.507 176.94 396.011 177.738Z" fill="#455A64"/>
<path d="M389.648 180.861C389.37 180.699 390.132 178.838 390.88 176.463C391.627 174.088 392.082 172.167 392.346 172.197C392.609 172.226 392.653 174.352 391.876 176.8C391.099 179.248 389.956 181.007 389.648 180.861Z" fill="#455A64"/>
<path d="M360.123 178.427C359.132 177.514 358.398 176.356 357.997 175.07C356.77 172.035 356.454 168.708 357.088 165.497C357.729 162.29 359.299 159.343 361.604 157.023C362.477 155.993 363.596 155.202 364.858 154.722C364.961 154.868 363.729 155.733 362.175 157.536C360.147 159.866 358.763 162.685 358.158 165.713C357.554 168.742 357.751 171.877 358.73 174.806C359.463 177.064 360.27 178.339 360.123 178.427Z" fill="#455A64"/>
<path d="M393.724 143.36C392.672 143.052 391.658 142.624 390.704 142.085C388.392 140.949 385.861 140.329 383.286 140.267C382.029 140.243 380.781 140.482 379.622 140.969C378.463 141.456 377.419 142.181 376.557 143.096C375.914 143.943 375.34 144.84 374.842 145.779C374.724 145.779 374.68 144.313 375.956 142.613C376.714 141.605 377.692 140.783 378.814 140.208C380.185 139.539 381.687 139.183 383.212 139.167C385.953 139.217 388.632 139.986 390.982 141.396C392.888 142.422 393.797 143.243 393.724 143.36Z" fill="#455A64"/>
<path d="M351.679 152.098C351.561 152.098 351.781 150.998 352.778 149.605C354.104 147.777 356.001 146.442 358.169 145.81C360.338 145.178 362.655 145.286 364.755 146.116C366.353 146.776 367.101 147.582 367.028 147.582C366.954 147.582 366.046 147.216 364.521 146.791C362.548 146.217 360.452 146.217 358.479 146.791C356.506 147.365 354.737 148.488 353.379 150.031C352.309 151.262 351.84 152.171 351.679 152.098Z" fill="#455A64"/>
<path d="M361.823 186.754C361.823 186.622 363.289 186.211 365.826 185.097C369.19 183.581 372.27 181.498 374.93 178.94L376.703 177.21L375.736 179.497C375.122 180.936 374.674 182.442 374.402 183.983C374.255 184.745 374.123 185.727 374.402 185.859C374.68 185.991 375.457 185.683 376.161 185.185C378.538 183.648 380.668 181.76 382.479 179.585L384.121 177.635L383.374 180.069L381.292 186.812L380.588 186.387C382.887 184.1 384.909 181.552 386.614 178.793C386.406 179.669 386.049 180.502 385.558 181.256C384.364 183.365 382.884 185.299 381.16 187.003L380.002 188.146L380.442 186.563L382.362 179.775L383.256 180.245C381.396 182.528 379.19 184.507 376.718 186.109C376.329 186.371 375.922 186.606 375.501 186.812C375.226 186.958 374.916 187.029 374.604 187.016C374.293 187.003 373.99 186.907 373.727 186.739C373.501 186.538 373.327 186.284 373.22 186.001C373.112 185.718 373.075 185.412 373.112 185.112C373.112 184.613 373.229 184.217 373.302 183.792C373.598 182.175 374.09 180.599 374.768 179.101L375.575 179.658C372.811 182.262 369.564 184.299 366.016 185.654C364.687 186.245 363.271 186.616 361.823 186.754Z" fill="#455A64"/>
<path d="M379.811 150.397C379.5 149.838 379.08 149.347 378.577 148.952C378.073 148.556 377.496 148.265 376.879 148.095C375.626 147.78 374.319 147.75 373.053 148.007C369.926 148.581 367.093 150.218 365.034 152.64C364.58 153.197 364.169 154.106 364.653 154.575C364.951 154.817 365.325 154.947 365.708 154.942C370.344 155.326 375.01 155.159 379.606 154.443" fill="#263238"/>
<path d="M400.482 240.82C399.819 240.843 399.155 240.794 398.503 240.673L393.152 240.043C388.637 239.515 382.377 238.856 375.457 238.342C368.538 237.829 362.263 237.58 357.704 237.448L352.309 237.287C351.646 237.306 350.983 237.257 350.33 237.14C350.984 237.03 351.646 236.981 352.309 236.994C353.585 236.994 355.432 236.906 357.719 236.906C362.278 236.906 368.567 237.067 375.516 237.58C382.465 238.093 388.71 238.841 393.225 239.515C395.483 239.838 397.301 240.146 398.547 240.38C399.204 240.465 399.852 240.612 400.482 240.82Z" fill="#455A64"/>
<path d="M417.18 422.868L433.1 686.22L394.984 687.774C394.984 687.774 385.367 585.286 377.392 540.895C369.417 496.505 367.409 478.253 367.409 478.253L374.446 427.368L417.18 422.868Z" fill="#263238"/>
<path d="M319.779 431.81C317.487 455.823 317.487 479.999 319.779 504.011C323.546 544.692 341.578 692.524 341.578 692.524L381.468 689.387C381.468 689.387 369.74 514.185 375.985 486.023L403.37 459.826L407.284 418.396L319.779 431.81Z" fill="#263238"/>
<path d="M405.305 453.83C405.146 454.03 404.969 454.217 404.777 454.387L403.165 455.853L397.066 461.423L376.19 480.174L376.322 479.91C376.249 483.164 376.161 486.536 376.073 489.996C375.692 503.6 375.34 515.9 375.076 524.916C374.915 529.314 374.783 532.906 374.695 535.486C374.622 536.673 374.578 537.626 374.548 538.418C374.548 538.753 374.513 539.087 374.446 539.415C374.411 539.078 374.411 538.739 374.446 538.403V535.471C374.446 532.876 374.534 529.285 374.592 524.887C374.798 515.871 375.061 503.556 375.369 489.966C375.457 486.507 375.545 483.135 375.633 479.88V479.719L375.765 479.602L396.802 461.042L403.047 455.633L404.733 454.167C404.911 454.034 405.103 453.921 405.305 453.83Z" fill="#455A64"/>
<path d="M427.896 255.539C427.896 255.539 438.231 264.423 439.859 272.53C441.486 280.636 446.602 361.589 444.711 369.154C442.82 376.718 422.721 422.868 422.721 422.868L417.165 377.788V332.782L427.896 255.539Z" fill="#263238"/>
<path d="M287.746 436.663L285.679 444.36L307.963 449.183L309.693 441.779L287.746 436.663Z" fill="white"/>
<path d="M314.911 439.991V450.678L394.75 448.596C394.75 448.596 398.781 423.176 399.236 424.539C399.69 425.902 406.947 448.596 406.947 448.596H431.151L419.276 348.981L427.969 255.539L397.946 239.413L394.823 232.948C394.823 232.948 362.439 229.693 353.775 231.232L350.697 238.958L339.174 243.063L319.779 348.967L314.911 439.991Z" fill="#263238"/>
<path d="M319.969 247.036L343.645 238.401L353.262 229.766C359.003 227.53 364.956 225.879 371.03 224.841C381.878 222.862 392.727 228.051 392.727 228.051L398.899 236.921L429.538 259.13L426.606 343.968L334.248 350.638L319.969 247.036Z" fill="#263238"/>
<path d="M302.187 336.198C302.934 335.201 306.159 264.76 307.391 259.086C308.622 253.413 315.776 246.757 319.969 247.006C324.162 247.256 345.375 262.531 345.375 290.165C345.375 317.799 334.028 372.555 334.028 372.555L311.085 442.102L285.679 436.238L302.45 334.614" fill="#263238"/>
<path d="M343.968 238.958C361.96 233.099 381.267 232.59 399.544 237.492L343.968 238.958Z" fill="#263238"/>
<path d="M399.544 237.492C398.804 237.434 398.072 237.301 397.359 237.096C395.967 236.788 393.943 236.393 391.495 235.968C384.955 234.896 378.33 234.435 371.704 234.589C365.083 234.783 358.495 235.607 352.031 237.052C349.553 237.609 347.545 238.108 346.167 238.518C345.466 238.752 344.744 238.919 344.012 239.017C344.677 238.695 345.368 238.43 346.079 238.225C347.427 237.756 349.406 237.17 351.943 236.539C364.936 233.309 378.476 232.939 391.627 235.454C394.149 235.953 396.157 236.422 397.491 236.832C398.193 236.995 398.879 237.215 399.544 237.492Z" fill="#455A64"/>
<path d="M425.037 283.583V283.95C425.037 284.228 425.037 284.58 424.964 284.99C424.876 285.973 424.773 287.321 424.627 289.022C424.304 292.511 423.865 297.569 423.351 303.828C422.369 316.319 421.152 333.632 421.49 352.764C421.881 369.094 423.212 385.389 425.477 401.567C426.298 407.724 426.943 412.738 427.456 416.227C427.676 417.913 427.852 419.261 427.984 420.229C427.984 420.654 428.057 420.991 428.101 421.284C428.145 421.578 428.101 421.636 428.101 421.636C428.053 421.524 428.018 421.406 427.999 421.284C427.999 421.006 427.881 420.669 427.808 420.258L427.148 416.271C426.577 412.811 425.8 407.797 424.92 401.611C422.511 385.436 421.116 369.127 420.742 352.778C420.557 336.421 421.257 320.066 422.838 303.784C423.41 297.525 423.923 292.482 424.304 288.993C424.51 287.307 424.671 285.958 424.788 284.976C424.788 284.565 424.891 284.213 424.92 283.935C424.941 283.812 424.98 283.693 425.037 283.583Z" fill="#455A64"/>
<path d="M345.375 290.166C345.375 317.785 334.028 372.555 334.028 372.555L311.085 442.102L285.679 436.238L302.45 334.615" fill="#263238"/>
<path d="M302.45 334.556C302.47 334.727 302.47 334.899 302.45 335.069C302.45 335.421 302.333 335.905 302.245 336.535L301.366 342.194C300.574 347.164 299.416 354.362 297.979 363.378C295.047 381.468 290.884 406.874 286.09 436.238L285.811 435.827L311.217 441.691L310.777 441.941L315.058 428.922C321.758 408.677 328.105 389.472 333.75 372.394C338.631 348.278 341.886 327.71 343.601 313.152C344.51 305.822 344.891 300.105 345.155 296.147C345.272 294.182 345.287 292.658 345.346 291.632C345.346 291.148 345.346 290.752 345.346 290.473C345.327 290.342 345.327 290.209 345.346 290.078C345.362 290.209 345.362 290.342 345.346 290.473V291.734C345.346 292.76 345.346 294.285 345.346 296.264C345.155 300.222 344.833 306.013 343.997 313.299C342.384 327.959 339.232 348.483 334.395 372.628C328.78 389.707 322.461 408.926 315.791 429.172C314.325 433.643 312.859 438.041 311.496 442.19L311.378 442.527L311.041 442.439L285.65 436.575L285.313 436.487V436.15L297.466 363.319C298.932 354.332 300.222 347.193 301.058 342.179C301.498 339.746 301.82 337.855 302.055 336.535C302.172 335.919 302.26 335.436 302.333 335.069C302.406 334.703 302.45 334.556 302.45 334.556Z" fill="#455A64"/>
<path d="M302.187 336.198C302.934 335.201 306.159 264.76 307.391 259.086L302.187 336.198Z" fill="#263238"/>
<path d="M307.391 259.086C307.423 259.349 307.423 259.615 307.391 259.878C307.391 260.464 307.332 261.212 307.215 262.121C307.083 264.173 306.907 266.974 306.687 270.375C306.291 277.455 305.749 287.058 305.221 297.657C304.693 308.256 304.019 317.961 303.521 324.939C303.022 331.917 302.553 336.242 302.319 336.198C302.319 336.198 302.319 335.934 302.319 335.421C302.319 334.908 302.406 334.072 302.465 333.163C302.582 331.111 302.729 328.311 302.92 324.91C303.301 317.814 303.829 308.227 304.386 297.613C304.943 286.999 305.602 277.309 306.159 270.345C306.423 266.856 306.687 264.027 306.922 262.092C307.039 261.11 307.156 260.362 307.244 259.849C307.257 259.589 307.306 259.332 307.391 259.086Z" fill="#455A64"/>
<path d="M342.047 274.494C341.901 274.494 341.593 272.485 340.581 269.377C339.949 267.555 339.175 265.786 338.265 264.085C337.147 262.022 335.852 260.06 334.395 258.221C332.904 256.394 331.261 254.698 329.483 253.149C328.018 251.903 326.46 250.771 324.822 249.762C322.022 248.032 320.101 247.285 320.16 247.153C320.637 247.236 321.101 247.384 321.538 247.593C322.771 248.059 323.962 248.628 325.1 249.293C326.807 250.259 328.426 251.372 329.938 252.621C331.782 254.163 333.475 255.876 334.996 257.737C336.48 259.631 337.785 261.658 338.895 263.792C339.782 265.539 340.518 267.358 341.094 269.231C341.358 270.022 341.505 270.77 341.666 271.415C341.803 271.965 341.905 272.524 341.974 273.086C342.055 273.551 342.079 274.023 342.047 274.494Z" fill="#455A64"/>
<path d="M426.21 256.022C426.545 256.965 426.728 257.955 426.753 258.954C427.229 263.743 426.947 268.577 425.917 273.277C425.781 274.267 425.484 275.228 425.037 276.121C424.817 276.121 425.829 271.723 426.137 266.109C426.445 260.494 425.99 256.052 426.21 256.022Z" fill="#455A64"/>
<path d="M409.776 328.003C409.923 328.164 399.031 338.412 385.47 350.917C371.91 363.422 360.768 373.42 360.636 373.258C360.504 373.097 371.367 362.85 384.942 350.345C398.517 337.84 409.644 327.856 409.776 328.003Z" fill="#455A64"/>
<path d="M397.931 422.868C397.859 422.107 397.859 421.342 397.931 420.581C397.931 418.968 397.931 416.872 398.004 414.351C398.004 409.088 398.078 401.816 397.872 393.827C397.667 385.837 397.257 378.536 396.919 373.303C396.758 370.781 396.612 368.685 396.509 367.087C396.438 366.326 396.438 365.56 396.509 364.8C396.689 365.541 396.807 366.296 396.861 367.057C397.051 368.523 397.271 370.634 397.506 373.259C397.99 378.507 398.473 385.778 398.693 393.783C398.913 401.787 398.796 409.102 398.605 414.307C398.503 416.931 398.385 419.071 398.283 420.537C398.229 421.322 398.111 422.102 397.931 422.868Z" fill="#455A64"/>
<path d="M431.151 448.596H430.725H429.435L424.51 448.684L406.361 448.875H406.155V448.684L398.048 424.891H398.737C397.638 432.221 396.436 440.269 395.175 448.655V448.977H394.852L391.92 449.051L337.547 450.341L321.069 450.648H316.597H315.425H315.029H315.425H316.583L321.069 450.458L337.532 449.915L391.906 448.449L394.838 448.376L394.354 448.596L397.96 424.847L398.18 423.381L398.649 424.847L406.624 448.596L406.361 448.405H424.51H429.435H430.725L431.151 448.596Z" fill="#455A64"/>
<path d="M288.465 444.96C288.465 444.96 283.407 458.697 285.049 461.336C286.691 463.974 294.915 474.838 296.674 474.838C298.434 474.838 307.244 472.199 307.244 472.199C307.244 472.199 314.281 462.684 313.401 461.937C312.522 461.189 310.176 458.492 308.124 461.937L303.125 467.42L301.366 460.383C301.366 460.383 305.016 453.053 307.068 449.109L288.465 444.96Z" fill="#FFBE9D"/>
<path d="M284.609 478.547L278.511 478.884L263.015 566.184L333.896 568.061L344.07 566.756L332.826 476.362L284.609 478.547Z" fill="#455A64"/>
<path d="M272.148 515.578H326.493L328.692 476.553L331.477 568.06" fill="#455A64"/>
<path d="M331.477 568.06C331.461 567.9 331.461 567.738 331.477 567.577C331.477 567.225 331.477 566.77 331.477 566.199C331.477 564.938 331.331 563.149 331.243 560.877C331.067 556.215 330.818 549.53 330.524 541.291C329.997 524.711 329.249 501.856 328.443 476.567H329.205C329.205 476.861 329.205 477.183 329.205 477.506C328.428 491.125 327.739 504.055 327.035 515.622V515.959H326.698L287.497 515.812L276.341 515.724H273.409H272.647H272.383H272.647H273.409H276.341L287.497 515.622L326.698 515.475L326.361 515.812C326.991 504.275 327.71 491.345 328.457 477.696C328.457 477.374 328.457 477.051 328.457 476.758H329.22C329.938 502.046 330.598 524.901 331.081 541.497C331.272 549.735 331.433 556.42 331.551 561.097C331.551 563.369 331.624 565.143 331.639 566.419V567.797C331.59 567.888 331.537 567.976 331.477 568.06Z" fill="#263238"/>
<path d="M301.542 461.131C301.542 461.131 304.474 458.668 307.186 460.5C309.898 462.333 314.134 477.213 314.384 477.198C314.633 477.183 306.335 478.884 306.335 478.884L301.542 461.131Z" fill="#455A64"/>
<path d="M290.371 468.504C288.981 471.79 288.248 475.316 288.216 478.884H294.153L294.637 473.386L290.371 468.504Z" fill="#455A64"/>
<path d="M402.237 95.0428C393.213 107.993 375.399 111.176 362.449 102.152C349.498 93.1282 346.315 75.3145 355.339 62.3642C364.363 49.4138 382.177 46.2309 395.127 55.2548C408.078 64.2788 411.261 82.0924 402.237 95.0428Z" fill="#FAFAFA"/>
<path d="M350.345 76.481C350.345 76.481 350.345 76.6437 350.345 76.9487C350.345 77.2537 350.345 77.7112 350.345 78.3009C350.345 78.5958 350.345 78.9313 350.345 79.3176C350.345 79.704 350.396 80.0802 350.427 80.5174C350.457 80.9545 350.498 81.4222 350.538 81.9204C350.554 82.1767 350.587 82.4316 350.64 82.683C350.64 82.9473 350.732 83.2218 350.782 83.4963C351.233 86.2067 352.094 88.8327 353.334 91.2844C354.953 94.5426 357.183 97.4592 359.902 99.8756L361.051 100.892C361.458 101.208 361.895 101.502 362.322 101.807L362.963 102.275C363.176 102.436 363.4 102.582 363.634 102.712L365.047 103.536L365.769 103.953L366.531 104.298L368.077 105C368.605 105.224 369.165 105.376 369.703 105.579L370.537 105.864L370.954 105.996L371.391 106.098C372.554 106.408 373.736 106.639 374.929 106.789C375.539 106.86 376.149 106.972 376.77 107.003H378.651C378.966 107.003 379.281 107.003 379.596 107.003L380.552 106.932C381.192 106.871 381.833 106.85 382.473 106.769C383.778 106.582 385.068 106.31 386.337 105.956L387.293 105.681L387.781 105.549L388.248 105.366L390.15 104.624C390.77 104.349 391.37 104.014 391.99 103.709C392.295 103.546 392.61 103.414 392.905 103.231L393.789 102.672C394.982 101.922 396.123 101.093 397.206 100.191L398.761 98.7268L399.158 98.3506C399.28 98.2286 399.392 98.0862 399.514 97.954L400.225 97.1407L400.947 96.3171L401.588 95.4326L402.228 94.5379L402.554 94.0905L402.828 93.6228L403.946 91.7012C404.251 91.02 404.567 90.349 404.872 89.6678C406.033 86.873 406.763 83.9179 407.037 80.9037C407.225 77.867 406.951 74.8194 406.224 71.8651C406.031 71.1432 405.827 70.4315 405.624 69.7097C405.421 68.9878 405.085 68.3269 404.821 67.6762L404.617 67.1577L404.373 66.6697L403.875 65.6529L403.377 64.6362L402.798 63.711L402.218 62.796L401.923 62.3384L401.598 61.9114L400.286 60.2237C399.354 59.1654 398.352 58.1702 397.287 57.2447L396.504 56.5533C396.24 56.3297 395.945 56.1466 395.67 55.9331C395.111 55.5366 394.562 55.1198 393.993 54.7436L392.234 53.7269L391.787 53.5642C391.644 53.4828 391.482 53.4218 391.339 53.3507L390.424 52.9338C389.233 52.3865 388.007 51.9178 386.754 51.5308C386.123 51.3477 385.493 51.2257 384.873 51.0732L383.937 50.8597C383.628 50.8 383.316 50.7559 383.002 50.7275L381.142 50.4835C380.521 50.4225 379.901 50.4835 379.291 50.4124C378.086 50.3741 376.88 50.4182 375.682 50.5445H375.234L374.807 50.6157L373.943 50.7682C373.364 50.8801 372.794 50.9512 372.235 51.0834L370.598 51.5308L369.795 51.7544L369.022 52.0493L367.497 52.639C367.246 52.7342 367.001 52.8463 366.765 52.9745L366.053 53.3303C365.586 53.5743 365.118 53.798 364.661 54.042L363.369 54.8656C360.305 56.8288 357.65 59.3664 355.551 62.3384L354.859 63.2942L354.29 64.3109C354.097 64.6261 353.914 64.9412 353.731 65.2564C353.649 65.4089 353.548 65.5614 353.466 65.7139L353.253 66.1918L352.429 67.9812C352.185 68.5506 352.023 69.1301 351.819 69.6588C351.728 69.9232 351.647 70.1875 351.555 70.4417C351.461 70.6826 351.386 70.9309 351.331 71.1839L351.006 72.5463C350.915 72.9733 350.803 73.3597 350.742 73.7155C350.681 74.0714 350.65 74.4069 350.61 74.7322C350.528 75.3219 350.467 75.749 350.416 76.0743C350.365 76.3996 350.345 76.5318 350.345 76.5318C350.345 76.5318 350.345 76.3793 350.345 76.0743C350.345 75.7693 350.437 75.3118 350.498 74.7322C350.498 74.4272 350.579 74.1019 350.62 73.7155C350.66 73.3292 350.793 72.9631 350.884 72.5361C350.976 72.1091 351.087 71.6516 351.199 71.1636C351.248 70.9103 351.32 70.6619 351.413 70.4214L351.677 69.6385C351.87 69.0996 352.033 68.5201 352.267 67.9406L353.09 66.141L353.304 65.6631C353.385 65.5106 353.477 65.3581 353.568 65.2056L354.117 64.2499C354.31 63.9245 354.493 63.589 354.697 63.2332C354.9 62.8773 355.144 62.5926 355.378 62.2164C357.513 59.2241 360.21 56.6756 363.318 54.7131L364.62 53.8895C365.067 53.6354 365.545 53.4117 366.023 53.1677L366.735 52.8118C366.969 52.6763 367.213 52.5606 367.467 52.4661L369.002 51.8764C369.256 51.7748 369.52 51.6629 369.785 51.5714L370.598 51.3477L372.245 50.8801C372.804 50.7377 373.374 50.6665 373.953 50.5547L374.828 50.4022L375.265 50.331H375.712C376.917 50.1982 378.13 50.1472 379.342 50.1785C379.962 50.1785 380.582 50.1785 381.213 50.2497L383.083 50.4937C383.399 50.4937 383.724 50.5649 384.039 50.6259L384.975 50.8496C385.605 51.0021 386.245 51.1241 386.866 51.3071C388.136 51.6919 389.379 52.1606 390.587 52.7101L391.502 53.127L391.97 53.3405L392.407 53.6049L394.176 54.6216C394.755 54.9978 395.304 55.4146 395.874 55.8213C396.162 56.0132 396.441 56.2202 396.707 56.4415L397.5 57.1329C398.584 58.0807 399.603 59.0997 400.551 60.183L401.872 61.8911L402.208 62.3283L402.503 62.7858L403.082 63.711L403.672 64.6362L404.18 65.6529L404.678 66.6697L404.933 67.1679L405.136 67.6864C405.4 68.3778 405.675 69.0691 405.949 69.7198C406.224 70.3705 406.356 71.1636 406.559 71.8956C407.272 74.8901 407.529 77.9749 407.322 81.046C407.048 84.1008 406.315 87.0966 405.146 89.9322C404.831 90.6134 404.526 91.3047 404.211 91.9656L402.97 93.7957C402.879 93.9584 402.787 94.121 402.686 94.2735L402.36 94.7311L401.72 95.6258L401.069 96.5205L400.347 97.344L399.625 98.1676L399.259 98.5742L398.863 98.9504L397.287 100.435C396.194 101.34 395.043 102.172 393.84 102.926L392.946 103.485C392.651 103.678 392.325 103.81 392.02 103.973C391.4 104.278 390.79 104.614 390.16 104.888L388.248 105.63L387.781 105.823L387.293 105.956L386.276 106.23C384.997 106.585 383.696 106.856 382.382 107.043C381.741 107.125 381.091 107.145 380.44 107.206L379.484 107.277C379.159 107.277 378.844 107.277 378.529 107.277H376.627C376.007 107.277 375.387 107.125 374.777 107.054C373.572 106.904 372.38 106.67 371.208 106.352L370.771 106.25L370.354 106.108L369.52 105.823C368.961 105.62 368.402 105.457 367.873 105.234L366.369 104.4L365.606 104.054L364.884 103.637L363.461 102.804C363.224 102.67 362.996 102.521 362.78 102.356L362.139 101.889C361.702 101.574 361.275 101.279 360.858 100.953L359.709 99.9366C356.991 97.5135 354.764 94.5898 353.151 91.3251C351.921 88.8576 351.071 86.2181 350.63 83.4963C350.63 83.2117 350.538 82.9371 350.498 82.683C350.445 82.4282 350.411 82.1699 350.396 81.9103C350.396 81.4019 350.325 80.8935 350.294 80.5072C350.264 80.1208 350.233 79.6633 350.223 79.2973C350.213 78.9313 350.223 78.5958 350.223 78.2806C350.223 77.6909 350.223 77.2639 350.274 76.9283C350.325 76.5928 350.345 76.481 350.345 76.481Z" fill="#263238"/>
<path d="M371.767 74.1425H375.834C375.831 73.6808 375.921 73.2233 376.099 72.7972C376.277 72.3711 376.539 71.9853 376.869 71.6626C377.199 71.34 377.591 71.0872 378.021 70.9193C378.451 70.7515 378.911 70.672 379.372 70.6857C380.046 70.6566 380.713 70.8363 381.28 71.2003C381.848 71.5643 382.29 72.0947 382.545 72.7191C382.759 73.2503 382.845 73.8245 382.795 74.3952C382.746 74.9658 382.562 75.5167 382.26 76.0031C381.569 77.1418 380.064 78.1687 377.339 77.6909V86.8413H381.345V81.5239C382.982 81.0378 384.415 80.0293 385.424 78.6524C386.434 77.2754 386.965 75.6058 386.937 73.8985C386.937 67.971 381.63 66.5985 379.352 66.5985C377.614 66.5781 371.686 66.995 371.767 74.1425Z" fill="#D38C88"/>
<path d="M381.375 92.5454H377.309V88.753H381.375V92.5454Z" fill="#D38C88"/>
<path d="M365.647 45.3694C365.647 45.3694 365.82 45.6236 366.226 45.9794C366.715 46.4042 367.305 46.6941 367.94 46.8207C368.575 46.9473 369.232 46.9062 369.846 46.7013C370.404 46.5038 370.894 46.1511 371.259 45.6846C371.704 45.1557 371.976 44.5035 372.039 43.8155C372.102 43.1275 371.953 42.4367 371.612 41.8358C371.271 41.2349 370.755 40.7526 370.132 40.4537C369.509 40.1548 368.81 40.0537 368.128 40.1638C367.535 40.2333 366.974 40.4695 366.511 40.845C366.108 41.1839 365.786 41.6075 365.565 42.0854C365.238 42.7825 365.135 43.5641 365.271 44.3222C365.372 44.8509 365.525 45.1254 365.494 45.1356C365.464 45.1457 365.494 45.0746 365.382 44.9424C365.337 44.8648 365.3 44.7831 365.271 44.6984C365.223 44.584 365.189 44.4646 365.169 44.3425C364.988 43.5628 365.067 42.7454 365.393 42.0142C365.623 41.4971 365.971 41.0409 366.409 40.6823C366.9 40.2664 367.5 40.0015 368.138 39.9198C368.831 39.8359 369.533 39.9413 370.171 40.2248C370.884 40.5153 371.478 41.0373 371.858 41.7069C372.238 42.3765 372.382 43.1545 372.266 43.9155C372.18 44.6179 371.902 45.283 371.462 45.8371C371.07 46.3459 370.536 46.7278 369.927 46.9352C369.4 47.1084 368.84 47.1605 368.29 47.0877C367.492 46.9843 366.747 46.628 366.165 46.0709C366.075 45.9875 365.994 45.8956 365.921 45.7964C365.86 45.7276 365.805 45.6526 365.759 45.5728C365.712 45.5108 365.674 45.4423 365.647 45.3694V45.3694Z" fill="#263238"/>
<path d="M631.186 127.527H481.156V463.285H631.186V127.527Z" fill="#D38C88"/>
<path d="M631.201 112.735H485.363H471.48V127.527V463.285H485.363V127.527H631.201V463.285H646.257V127.527V112.735H631.201Z" fill="#D38C88"/>
<path d="M646.271 112.735C643.911 115.231 641.415 117.595 638.795 119.816C636.698 121.737 634.822 123.496 633.517 124.801C633.002 125.313 632.512 125.851 632.051 126.413C631.888 126.621 631.741 126.842 631.611 127.073C631.611 127.073 631.523 126.721 631.802 126.252C632.176 125.605 632.618 125.001 633.121 124.449C634.733 122.619 636.452 120.886 638.267 119.259C640.378 117.339 642.343 115.667 643.794 114.495C644.534 113.796 645.368 113.204 646.271 112.735Z" fill="#455A64"/>
<path d="M485.363 127.821C482.777 125.563 480.366 123.112 478.151 120.491C475.738 118.059 473.509 115.452 471.48 112.691C474.069 114.951 476.485 117.401 478.708 120.021C481.114 122.455 483.339 125.061 485.363 127.821Z" fill="#455A64"/>
<path d="M494.35 325.144C493.686 325.144 493.029 325.013 492.417 324.759C491.804 324.505 491.247 324.132 490.779 323.662C490.31 323.192 489.939 322.634 489.686 322.021C489.434 321.407 489.305 320.75 489.307 320.087V285.342C489.307 284.005 489.838 282.722 490.784 281.776C491.73 280.831 493.012 280.299 494.35 280.299C495.689 280.299 496.973 280.83 497.921 281.775C498.869 282.721 499.404 284.004 499.408 285.342V320.087C499.408 321.428 498.875 322.714 497.926 323.663C496.978 324.611 495.691 325.144 494.35 325.144Z" fill="#263238"/>
<path d="M496.402 314.135C496.412 313.83 496.339 313.528 496.192 313.261C496.045 312.994 495.829 312.771 495.566 312.616C495.303 312.461 495.004 312.38 494.699 312.38C494.394 312.381 494.095 312.464 493.833 312.62C493.571 312.776 493.355 312.999 493.209 313.267C493.063 313.535 492.992 313.837 493.003 314.142C493.014 314.447 493.107 314.743 493.271 314.999C493.436 315.256 493.667 315.464 493.939 315.601V317.58C493.939 317.782 494.02 317.976 494.163 318.119C494.306 318.262 494.499 318.342 494.702 318.342C494.904 318.342 495.098 318.262 495.241 318.119C495.384 317.976 495.464 317.782 495.464 317.58V315.601C495.739 315.465 495.972 315.256 496.137 314.998C496.302 314.74 496.394 314.441 496.402 314.135Z" fill="#455A64"/>
<path d="M519.33 300.765H496.974C496.622 300.765 496.273 300.695 495.947 300.56C495.622 300.425 495.326 300.228 495.077 299.979C494.828 299.73 494.63 299.434 494.495 299.108C494.361 298.783 494.291 298.434 494.291 298.082C494.291 297.37 494.574 296.688 495.077 296.185C495.58 295.682 496.262 295.399 496.974 295.399H519.404C519.756 295.399 520.105 295.468 520.43 295.603C520.756 295.738 521.052 295.936 521.301 296.185C521.55 296.434 521.748 296.73 521.882 297.055C522.017 297.381 522.087 297.729 522.087 298.082C522.087 298.44 522.015 298.795 521.876 299.126C521.736 299.456 521.532 299.755 521.275 300.005C521.018 300.255 520.714 300.451 520.38 300.582C520.046 300.712 519.689 300.774 519.33 300.765Z" fill="#263238"/>
<path d="M504.304 300.926C503.268 301.107 502.218 301.2 501.167 301.204C500.013 301.28 498.856 301.255 497.707 301.131C496.949 301.111 496.207 300.915 495.538 300.558C494.869 300.202 494.291 299.696 493.851 299.079C493.645 298.709 493.528 298.297 493.51 297.874C493.492 297.451 493.574 297.03 493.749 296.645C493.921 296.263 494.215 295.949 494.584 295.751C494.891 295.58 495.216 295.442 495.552 295.34C496.686 295.021 497.865 294.892 499.041 294.959C500.1 294.926 501.159 295.024 502.193 295.252C501.154 295.45 500.098 295.533 499.041 295.502C497.938 295.508 496.841 295.676 495.786 296C495.185 296.22 494.628 296.454 494.423 296.968C494.306 297.247 494.254 297.549 494.271 297.852C494.289 298.154 494.376 298.448 494.526 298.712C494.907 299.225 495.398 299.646 495.964 299.943C496.53 300.24 497.156 300.405 497.795 300.427C498.907 300.588 500.029 300.671 501.152 300.676C502.209 300.599 503.272 300.683 504.304 300.926Z" fill="#455A64"/>
<path opacity="0.3" d="M631.201 112.735H485.363H471.48V127.527V463.285H485.363V127.527H631.201V463.285H646.257V127.527V112.735H631.201Z" fill="black"/>
<path d="M631.201 461.995C631.201 461.995 631.201 461.424 631.201 460.324C631.201 459.225 631.201 457.568 631.201 455.428C631.201 451.03 631.201 444.741 631.201 436.502C631.201 420.009 631.128 396.069 631.084 366.134C631.084 306.335 631.01 222.803 630.952 127.762L631.333 128.143H485.246L485.627 127.762C485.627 222.202 485.525 305.148 485.495 364.477C485.495 394.12 485.407 417.883 485.378 434.244C485.378 442.395 485.378 448.713 485.378 453.009C485.378 455.134 485.378 456.747 485.378 457.861C485.378 458.975 485.378 459.503 485.378 459.503C485.378 459.503 485.378 458.946 485.378 457.861C485.378 456.776 485.378 455.134 485.378 453.009C485.378 448.713 485.378 442.395 485.305 434.244C485.305 417.883 485.305 394.12 485.187 364.477C485.187 305.133 485.114 222.275 485.07 127.762V127.396H631.67V127.762C631.67 222.803 631.582 306.335 631.538 366.134C631.538 396.011 631.465 419.95 631.436 436.502C631.436 444.741 631.436 451.162 631.436 455.428C631.436 457.568 631.436 459.21 631.436 460.324C631.436 461.438 631.201 461.995 631.201 461.995Z" fill="#263238"/>
<path d="M260.112 127.425H110.082V463.183H260.112V127.425Z" fill="#D38C88"/>
<path d="M260.112 112.633H114.275H100.392V127.425V463.183H114.275V127.425H260.112V463.183H275.183V127.425V112.633H260.112Z" fill="#D38C88"/>
<path d="M275.183 112.633C272.82 115.131 270.324 117.499 267.706 119.728C265.61 121.649 263.733 123.393 262.429 124.713C261.784 125.372 261.271 125.915 260.963 126.311C260.655 126.706 260.582 126.97 260.523 126.97C260.464 126.97 260.435 126.618 260.713 126.164C261.086 125.512 261.529 124.903 262.033 124.346C263.65 122.517 265.373 120.784 267.193 119.157C269.29 117.28 271.21 115.565 272.676 114.348C273.438 113.676 274.28 113.099 275.183 112.633Z" fill="#455A64"/>
<path d="M114.348 127.733C111.767 125.47 109.356 123.02 107.135 120.403C104.724 117.964 102.495 115.353 100.465 112.589C103.053 114.849 105.469 117.299 107.692 119.919C110.106 122.351 112.331 124.963 114.348 127.733Z" fill="#455A64"/>
<path d="M123.261 325.042C121.924 325.042 120.641 324.51 119.695 323.565C118.75 322.619 118.218 321.336 118.218 319.999V285.254C118.218 283.916 118.749 282.631 119.694 281.683C120.64 280.735 121.922 280.201 123.261 280.197C124.603 280.197 125.889 280.73 126.838 281.678C127.786 282.627 128.319 283.913 128.319 285.254V319.999C128.319 320.662 128.188 321.319 127.934 321.932C127.679 322.545 127.307 323.101 126.837 323.57C126.367 324.038 125.809 324.409 125.196 324.662C124.582 324.915 123.925 325.044 123.261 325.042Z" fill="#263238"/>
<path d="M125.314 314.032C125.323 313.727 125.251 313.425 125.104 313.158C124.957 312.891 124.74 312.668 124.478 312.513C124.215 312.359 123.915 312.277 123.61 312.278C123.305 312.278 123.006 312.361 122.744 312.517C122.482 312.673 122.267 312.897 122.121 313.165C121.975 313.432 121.904 313.734 121.915 314.039C121.925 314.344 122.018 314.64 122.183 314.897C122.348 315.154 122.578 315.361 122.851 315.498V317.477C122.851 317.679 122.931 317.873 123.074 318.016C123.217 318.159 123.411 318.24 123.613 318.24C123.815 318.24 124.009 318.159 124.152 318.016C124.295 317.873 124.375 317.679 124.375 317.477V315.498C124.65 315.362 124.883 315.154 125.048 314.896C125.214 314.637 125.305 314.339 125.314 314.032Z" fill="#455A64"/>
<path d="M148.242 300.662H125.812C125.104 300.662 124.426 300.381 123.925 299.88C123.425 299.38 123.144 298.701 123.144 297.994C123.144 297.282 123.427 296.6 123.93 296.097C124.433 295.594 125.115 295.311 125.827 295.311H148.257C148.968 295.311 149.65 295.594 150.154 296.097C150.657 296.6 150.939 297.282 150.939 297.994C150.939 298.347 150.869 298.696 150.733 299.022C150.598 299.347 150.398 299.643 150.148 299.891C149.897 300.139 149.599 300.335 149.272 300.467C148.945 300.6 148.595 300.666 148.242 300.662Z" fill="#263238"/>
<path d="M133.23 300.823C132.197 301.026 131.146 301.125 130.093 301.117C128.939 301.186 127.782 301.157 126.633 301.029C125.875 301.012 125.131 300.817 124.461 300.461C123.792 300.104 123.215 299.596 122.777 298.976C122.574 298.609 122.459 298.199 122.441 297.779C122.423 297.359 122.503 296.941 122.675 296.557C122.851 296.174 123.143 295.856 123.51 295.648C123.821 295.475 124.151 295.337 124.493 295.238C125.622 294.918 126.796 294.789 127.967 294.857C129.027 294.812 130.088 294.916 131.119 295.165C130.079 295.351 129.023 295.43 127.967 295.399C126.863 295.412 125.767 295.585 124.713 295.912C124.416 295.945 124.132 296.054 123.889 296.229C123.646 296.403 123.452 296.637 123.326 296.907C123.199 297.178 123.144 297.477 123.166 297.775C123.188 298.073 123.287 298.361 123.452 298.61C123.84 299.12 124.335 299.539 124.902 299.838C125.47 300.137 126.095 300.308 126.736 300.34C127.844 300.489 128.96 300.567 130.078 300.574C131.135 300.494 132.199 300.578 133.23 300.823Z" fill="#455A64"/>
<path opacity="0.3" d="M260.112 112.633H114.275H100.392V127.425V463.183H114.275V127.425H260.112V463.183H275.183V127.425V112.633H260.112Z" fill="black"/>
<path d="M260.112 461.893C260.112 461.893 260.112 461.336 260.112 460.221C260.112 459.107 260.112 457.48 260.112 455.325C260.112 451 260.112 444.638 260.112 436.414C260.112 419.921 260.039 395.967 259.995 366.046C259.995 306.247 259.995 222.715 259.863 127.689L260.244 128.055H114.201L114.583 127.689C114.583 222.128 114.48 305.075 114.451 364.389C114.348 394.09 114.348 417.81 114.348 434.2C114.348 442.366 114.348 448.669 114.348 452.965C114.348 455.09 114.348 456.718 114.348 457.817C114.348 458.917 114.348 459.474 114.348 459.474C114.348 459.474 114.348 458.917 114.348 457.817C114.348 456.718 114.348 455.09 114.348 452.965C114.348 448.669 114.348 442.366 114.348 434.2C114.348 417.839 114.348 394.09 114.245 364.433C114.245 305.104 114.157 222.231 114.113 127.733V127.352H260.713V127.733C260.713 222.759 260.625 306.291 260.596 366.09C260.596 395.967 260.508 419.921 260.479 436.458C260.479 444.682 260.479 451.044 260.406 455.369C260.406 457.524 260.406 459.151 260.406 460.265C260.406 461.38 260.112 461.893 260.112 461.893Z" fill="#263238"/>
<path d="M687.554 463.154C687.554 463.359 546.056 463.535 371.543 463.535C197.03 463.535 55.5028 463.359 55.5028 463.154C55.5028 462.948 196.972 462.772 371.543 462.772C546.114 462.772 687.554 462.934 687.554 463.154Z" fill="#263238"/>
</svg>
