<svg width="38" height="34" viewBox="0 0 38 34" fill="none" xmlns="http://www.w3.org/2000/svg">
<path d="M33.8954 8.97415C33.9192 9.33872 33.9192 9.70337 33.9192 10.0679C33.9192 21.1879 26.186 34.0006 12.0521 34.0006C7.69766 34.0006 3.65263 32.6203 0.25 30.2246C0.868679 30.3026 1.46348 30.3287 2.10596 30.3287C5.69887 30.3287 9.00636 29.0006 11.6476 26.7349C8.26873 26.6568 5.43718 24.2349 4.46159 20.9015C4.93752 20.9795 5.41337 21.0316 5.91311 21.0316C6.60313 21.0316 7.29322 20.9274 7.93563 20.7452C4.41405 19.9639 1.77278 16.5785 1.77278 12.4898V12.3857C2.79591 13.0107 3.98573 13.4014 5.24675 13.4534C3.17662 11.9429 1.82039 9.36477 1.82039 6.44804C1.82039 4.88554 2.20103 3.45322 2.86732 2.20319C6.65066 7.30744 12.3376 10.6408 18.7144 11.0054C18.5955 10.3804 18.5241 9.72942 18.5241 9.07836C18.5241 4.44281 21.9505 0.666748 26.2097 0.666748C28.4226 0.666748 30.4213 1.68239 31.8252 3.32304C33.5621 2.95847 35.2278 2.2553 36.7031 1.29176C36.1319 3.24496 34.9184 4.88562 33.3243 5.92723C34.8709 5.74502 36.37 5.27616 37.75 4.62518C36.7032 6.2918 35.3945 7.77614 33.8954 8.97415Z" fill="#2F2E41"/>
</svg>
