<svg width="30" height="31" viewBox="0 0 30 31" fill="none" xmlns="http://www.w3.org/2000/svg">
<path d="M10.0343 24.869C10.0343 24.9948 9.89516 25.0955 9.71976 25.0955C9.52016 25.1143 9.38105 25.0137 9.38105 24.869C9.38105 24.7432 9.52016 24.6426 9.69556 24.6426C9.87702 24.6237 10.0343 24.7244 10.0343 24.869ZM8.15323 24.586C8.11089 24.7118 8.23186 24.8564 8.41331 24.8942C8.57056 24.9571 8.75202 24.8942 8.78831 24.7684C8.8246 24.6426 8.70968 24.4979 8.52823 24.4413C8.37097 24.3973 8.19556 24.4602 8.15323 24.586ZM10.8266 24.479C10.6512 24.5231 10.5302 24.6426 10.5484 24.7873C10.5665 24.9131 10.7238 24.9948 10.9052 24.9508C11.0806 24.9068 11.2016 24.7873 11.1835 24.6614C11.1653 24.5419 11.002 24.4602 10.8266 24.479ZM14.8065 0.374756C6.41734 0.374756 0 6.9984 0 15.723C0 22.6989 4.22177 28.6683 10.252 30.7693C11.0262 30.914 11.2984 30.417 11.2984 30.0082C11.2984 29.6182 11.2802 27.4669 11.2802 26.146C11.2802 26.146 7.04637 27.0895 6.15726 24.2715C6.15726 24.2715 5.46774 22.441 4.47581 21.9692C4.47581 21.9692 3.09073 20.9816 4.57258 21.0005C4.57258 21.0005 6.07863 21.1263 6.90726 22.6234C8.23185 25.0514 10.4516 24.3532 11.3165 23.9381C11.4556 22.9316 11.8488 22.2334 12.2843 21.8183C8.90323 21.4283 5.49194 20.9187 5.49194 14.8675C5.49194 13.1377 5.95161 12.2696 6.91935 11.1626C6.7621 10.7537 6.24798 9.06789 7.07661 6.89147C8.34073 6.4826 11.25 8.58984 11.25 8.58984C12.4597 8.23758 13.7601 8.05516 15.0484 8.05516C16.3367 8.05516 17.6371 8.23758 18.8468 8.58984C18.8468 8.58984 21.756 6.47631 23.0202 6.89147C23.8488 9.07419 23.3347 10.7537 23.1774 11.1626C24.1452 12.2759 24.7379 13.144 24.7379 14.8675C24.7379 20.9376 21.1754 21.422 17.7944 21.8183C18.3508 22.3152 18.8226 23.2587 18.8226 24.7369C18.8226 26.8568 18.8044 29.4798 18.8044 29.9956C18.8044 30.4045 19.0827 30.9014 19.8508 30.7567C25.8992 28.6683 30 22.6989 30 15.723C30 6.9984 23.1956 0.374756 14.8065 0.374756ZM5.87903 22.0699C5.8004 22.1328 5.81855 22.2774 5.92137 22.397C6.01815 22.4976 6.15726 22.5416 6.23589 22.4599C6.31452 22.397 6.29637 22.2523 6.19355 22.1328C6.09677 22.0321 5.95766 21.9881 5.87903 22.0699ZM5.22581 21.5604C5.18347 21.6421 5.24395 21.7428 5.36492 21.8057C5.46169 21.8686 5.58266 21.8497 5.625 21.7616C5.66734 21.6799 5.60685 21.5792 5.48589 21.5163C5.36492 21.4786 5.26815 21.4974 5.22581 21.5604ZM7.18548 23.7997C7.08871 23.8815 7.125 24.0702 7.26411 24.1897C7.40323 24.3344 7.57863 24.3532 7.65726 24.2526C7.73589 24.1708 7.6996 23.9821 7.57863 23.8626C7.44556 23.7179 7.26411 23.699 7.18548 23.7997ZM6.49597 22.875C6.39919 22.9379 6.39919 23.1015 6.49597 23.2461C6.59274 23.3908 6.75605 23.4537 6.83468 23.3908C6.93145 23.309 6.93145 23.1455 6.83468 23.0008C6.75 22.8561 6.59274 22.7932 6.49597 22.875Z" fill="#FCFDFE"/>
</svg>
