<svg width="27" height="27" viewBox="0 0 27 27" fill="none" xmlns="http://www.w3.org/2000/svg">
<path d="M5.87578 26.9917H0.433594V9.22093H5.87578V26.9917ZM3.15176 6.79683C1.41152 6.79683 0 5.33524 0 3.57064C1.24559e-08 2.72304 0.332059 1.91015 0.923128 1.31081C1.5142 0.711464 2.31586 0.374756 3.15176 0.374756C3.98766 0.374756 4.78932 0.711464 5.38039 1.31081C5.97146 1.91015 6.30352 2.72304 6.30352 3.57064C6.30352 5.33524 4.89141 6.79683 3.15176 6.79683ZM26.2441 26.9917H20.8137V18.341C20.8137 16.2793 20.7727 13.6354 17.9842 13.6354C15.1547 13.6354 14.7211 15.8753 14.7211 18.1925V26.9917H9.28477V9.22093H14.5043V11.645H14.5805C15.307 10.2488 17.0818 8.77532 19.7297 8.77532C25.2375 8.77532 26.25 12.4531 26.25 17.23V26.9917H26.2441Z" fill="#FAFBFD"/>
</svg>
