<svg width="44" height="44" viewBox="0 0 44 44" fill="none" xmlns="http://www.w3.org/2000/svg">
<circle cx="22" cy="22" r="22" fill="#D38C88"/>
<path d="M16.04 29.2C14.8267 29.2 13.78 29 12.9 28.6C12.02 28.2 11.3333 27.6 10.84 26.8C10.3467 25.9867 10.08 24.9667 10.04 23.74C10.0267 23.1667 10.02 22.6 10.02 22.04C10.02 21.4667 10.0267 20.8867 10.04 20.3C10.08 19.1 10.3467 18.0933 10.84 17.28C11.3467 16.4533 12.04 15.8333 12.92 15.42C13.8133 15.0067 14.8533 14.8 16.04 14.8C17.2133 14.8 18.24 15.0067 19.12 15.42C20.0133 15.8333 20.7133 16.4533 21.22 17.28C21.7267 18.0933 21.9933 19.1 22.02 20.3C22.0467 20.8867 22.06 21.4667 22.06 22.04C22.06 22.6 22.0467 23.1667 22.02 23.74C21.98 24.9667 21.7133 25.9867 21.22 26.8C20.7267 27.6 20.04 28.2 19.16 28.6C18.28 29 17.24 29.2 16.04 29.2ZM16.04 26.62C16.8133 26.62 17.4467 26.3867 17.94 25.92C18.4467 25.44 18.7133 24.68 18.74 23.64C18.7667 23.0533 18.78 22.5067 18.78 22C18.78 21.48 18.7667 20.9333 18.74 20.36C18.7267 19.6667 18.6 19.1 18.36 18.66C18.12 18.22 17.8 17.9 17.4 17.7C17.0133 17.4867 16.56 17.38 16.04 17.38C15.52 17.38 15.06 17.4867 14.66 17.7C14.26 17.9 13.94 18.22 13.7 18.66C13.4733 19.1 13.3467 19.6667 13.32 20.36C13.3067 20.9333 13.3 21.48 13.3 22C13.3 22.5067 13.3067 23.0533 13.32 23.64C13.36 24.68 13.6267 25.44 14.12 25.92C14.6133 26.3867 15.2533 26.62 16.04 26.62ZM25.0425 29C24.8958 29 24.7758 28.9533 24.6825 28.86C24.5892 28.7667 24.5425 28.6467 24.5425 28.5V15.5C24.5425 15.3533 24.5892 15.2333 24.6825 15.14C24.7758 15.0467 24.8958 15 25.0425 15H27.1625C27.3092 15 27.4292 15.0467 27.5225 15.14C27.6158 15.2333 27.6625 15.3533 27.6625 15.5V20.06L31.7825 15.38C31.8358 15.3 31.9225 15.22 32.0425 15.14C32.1758 15.0467 32.3492 15 32.5625 15H34.9825C35.1025 15 35.2025 15.0467 35.2825 15.14C35.3625 15.22 35.4025 15.3133 35.4025 15.42C35.4025 15.5133 35.3758 15.5933 35.3225 15.66L30.1825 21.7L35.7025 28.34C35.7558 28.3933 35.7825 28.4733 35.7825 28.58C35.7825 28.6867 35.7425 28.7867 35.6625 28.88C35.5825 28.96 35.4825 29 35.3625 29H32.8625C32.6225 29 32.4425 28.9467 32.3225 28.84C32.2025 28.7333 32.1225 28.66 32.0825 28.62L27.6625 23.5V28.5C27.6625 28.6467 27.6158 28.7667 27.5225 28.86C27.4292 28.9533 27.3092 29 27.1625 29H25.0425Z" fill="white"/>
</svg>
