<svg width="32" height="24" viewBox="0 0 32 24" fill="none" xmlns="http://www.w3.org/2000/svg">
<path d="M22.7325 13.8328C24.683 15.1568 26.0497 16.9506 26.0497 19.3423V23.6133H31.7443V19.3423C31.7443 16.2387 26.6618 14.4022 22.7325 13.8328Z" fill="#E6E6E6"/>
<path d="M20.3555 12.224C23.5018 12.224 26.0501 9.67562 26.0501 6.52934C26.0501 3.38306 23.5018 0.834717 20.3555 0.834717C19.6864 0.834717 19.06 0.977082 18.462 1.17639C19.6437 2.64276 20.3555 4.50775 20.3555 6.52934C20.3555 8.55094 19.6437 10.4159 18.462 11.8823C19.06 12.0816 19.6864 12.224 20.3555 12.224Z" fill="#E6E6E6"/>
<path d="M11.8132 12.224C14.9594 12.224 17.5078 9.67562 17.5078 6.52934C17.5078 3.38306 14.9594 0.834717 11.8132 0.834717C8.66688 0.834717 6.11853 3.38306 6.11853 6.52934C6.11853 9.67562 8.66688 12.224 11.8132 12.224ZM11.8132 3.68203C13.3792 3.68203 14.6605 4.96332 14.6605 6.52934C14.6605 8.09537 13.3792 9.37666 11.8132 9.37666C10.2471 9.37666 8.96584 8.09537 8.96584 6.52934C8.96584 4.96332 10.2471 3.68203 11.8132 3.68203Z" fill="#E6E6E6"/>
<path d="M11.8132 13.6484C8.01204 13.6484 0.42395 15.5561 0.42395 19.3431V23.614H23.2025V19.3431C23.2025 15.5561 15.6144 13.6484 11.8132 13.6484ZM20.3551 20.7667H3.27126V19.3573C3.55599 18.3323 7.96933 16.4958 11.8132 16.4958C15.6571 16.4958 20.0704 18.3323 20.3551 19.3431V20.7667Z" fill="#E6E6E6"/>
</svg>
