<svg width="717" height="154" viewBox="0 0 717 154" fill="none" xmlns="http://www.w3.org/2000/svg">
<path d="M570.207 93.6516C560.613 80.1435 564.994 63.4868 579.993 56.4476L629.684 33.1274C644.683 26.0882 664.619 31.3323 674.214 44.8403L699.518 80.4669C709.112 93.975 704.731 110.632 689.732 117.671L640.041 140.991C625.043 148.03 605.106 142.786 595.512 129.278L570.207 93.6516Z" fill="#2E263C"/>
<rect width="59.2647" height="53.4913" rx="16" transform="matrix(0.905264 -0.424849 0.579065 0.815282 0 109.37)" fill="#2E263C"/>
<path d="M308.929 12.8342C325.118 16.3603 334.037 31.975 328.85 47.7107L323.991 62.4519C318.804 78.1876 301.475 88.0854 285.286 84.5593L255.674 78.1097C239.485 74.5836 230.567 58.9689 235.754 43.2332L240.613 28.492C245.8 12.7564 263.128 2.85852 279.317 6.38461L308.929 12.8342Z" fill="#2E263C"/>
<g filter="url(#filter0_d_65_18)">
<rect x="51.8195" y="33.698" width="616.181" height="89.6059" rx="16" fill="white"/>
</g>
<path d="M268.592 91.32C266.459 91.32 264.688 91.0213 263.28 90.424C261.872 89.8053 260.805 89.0053 260.08 88.024C259.355 87.0427 258.971 85.9973 258.928 84.888C258.928 84.7173 258.992 84.568 259.12 84.44C259.269 84.2907 259.44 84.216 259.632 84.216H263.664C263.963 84.216 264.187 84.2693 264.336 84.376C264.507 84.4827 264.656 84.6213 264.784 84.792C264.955 85.112 265.189 85.4213 265.488 85.72C265.808 86.0187 266.213 86.264 266.704 86.456C267.216 86.6267 267.845 86.712 268.592 86.712C269.829 86.712 270.757 86.52 271.376 86.136C272.016 85.752 272.336 85.2293 272.336 84.568C272.336 84.0987 272.165 83.7147 271.824 83.416C271.483 83.096 270.928 82.8187 270.16 82.584C269.413 82.328 268.411 82.072 267.152 81.816C265.531 81.4747 264.144 81.0373 262.992 80.504C261.861 79.9493 260.997 79.2347 260.4 78.36C259.803 77.464 259.504 76.3547 259.504 75.032C259.504 73.7307 259.867 72.568 260.592 71.544C261.339 70.52 262.373 69.72 263.696 69.144C265.019 68.568 266.587 68.28 268.4 68.28C269.872 68.28 271.163 68.472 272.272 68.856C273.403 69.24 274.352 69.752 275.12 70.392C275.888 71.032 276.464 71.7147 276.848 72.44C277.253 73.144 277.467 73.8373 277.488 74.52C277.488 74.6907 277.424 74.8507 277.296 75C277.168 75.128 277.008 75.192 276.816 75.192H272.592C272.357 75.192 272.155 75.1493 271.984 75.064C271.813 74.9787 271.664 74.84 271.536 74.648C271.408 74.1787 271.067 73.7733 270.512 73.432C269.979 73.0693 269.275 72.888 268.4 72.888C267.461 72.888 266.725 73.0587 266.192 73.4C265.68 73.72 265.424 74.2213 265.424 74.904C265.424 75.3307 265.563 75.704 265.84 76.024C266.139 76.344 266.619 76.6213 267.28 76.856C267.963 77.0907 268.891 77.336 270.064 77.592C272.005 77.9547 273.573 78.4133 274.768 78.968C275.963 79.5013 276.837 80.2053 277.392 81.08C277.947 81.9333 278.224 83.0107 278.224 84.312C278.224 85.7627 277.808 87.0213 276.976 88.088C276.165 89.1333 275.035 89.9333 273.584 90.488C272.133 91.0427 270.469 91.32 268.592 91.32ZM286.707 91C286.473 91 286.281 90.9253 286.131 90.776C285.982 90.6267 285.907 90.4347 285.907 90.2V69.4C285.907 69.1653 285.982 68.9733 286.131 68.824C286.281 68.6747 286.473 68.6 286.707 68.6H301.652C301.886 68.6 302.078 68.6747 302.228 68.824C302.377 68.9733 302.451 69.1653 302.451 69.4V72.408C302.451 72.6427 302.377 72.8347 302.228 72.984C302.078 73.1333 301.886 73.208 301.652 73.208H291.444V77.528H300.948C301.182 77.528 301.374 77.6133 301.524 77.784C301.673 77.9333 301.747 78.1253 301.747 78.36V81.144C301.747 81.3573 301.673 81.5493 301.524 81.72C301.374 81.8693 301.182 81.944 300.948 81.944H291.444V86.392H301.908C302.142 86.392 302.334 86.4667 302.483 86.616C302.633 86.7653 302.708 86.9573 302.708 87.192V90.2C302.708 90.4347 302.633 90.6267 302.483 90.776C302.334 90.9253 302.142 91 301.908 91H286.707ZM311.625 91C311.39 91 311.198 90.9253 311.049 90.776C310.9 90.6267 310.825 90.4347 310.825 90.2V69.4C310.825 69.1653 310.9 68.9733 311.049 68.824C311.198 68.6747 311.39 68.6 311.625 68.6H320.329C323.081 68.6 325.246 69.24 326.825 70.52C328.425 71.7787 329.225 73.5707 329.225 75.896C329.225 77.4107 328.852 78.6907 328.105 79.736C327.38 80.7813 326.42 81.5707 325.225 82.104L329.641 89.976C329.705 90.104 329.737 90.2213 329.737 90.328C329.737 90.4987 329.662 90.6587 329.513 90.808C329.385 90.936 329.225 91 329.033 91H324.809C324.404 91 324.105 90.904 323.913 90.712C323.721 90.4987 323.582 90.3067 323.497 90.136L319.849 83.096H316.553V90.2C316.553 90.4347 316.478 90.6267 316.329 90.776C316.18 90.9253 315.988 91 315.753 91H311.625ZM316.553 78.584H320.265C321.268 78.584 322.014 78.3387 322.505 77.848C323.017 77.3573 323.273 76.6853 323.273 75.832C323.273 75 323.028 74.328 322.537 73.816C322.068 73.304 321.31 73.048 320.265 73.048H316.553V78.584ZM343.111 91C342.749 91 342.461 90.904 342.247 90.712C342.034 90.52 341.885 90.296 341.799 90.04L335.271 69.56C335.229 69.4533 335.207 69.3573 335.207 69.272C335.207 69.1013 335.271 68.952 335.399 68.824C335.549 68.6747 335.719 68.6 335.911 68.6H339.879C340.221 68.6 340.487 68.696 340.679 68.888C340.871 69.08 340.989 69.2613 341.031 69.432L345.543 84.216L350.087 69.432C350.151 69.2613 350.269 69.08 350.439 68.888C350.631 68.696 350.898 68.6 351.239 68.6H355.207C355.399 68.6 355.559 68.6747 355.687 68.824C355.837 68.952 355.911 69.1013 355.911 69.272C355.911 69.3573 355.89 69.4533 355.847 69.56L349.319 90.04C349.234 90.296 349.085 90.52 348.871 90.712C348.679 90.904 348.391 91 348.007 91H343.111ZM364.179 91C363.944 91 363.752 90.9253 363.603 90.776C363.453 90.6267 363.379 90.4347 363.379 90.2V69.4C363.379 69.1653 363.453 68.9733 363.603 68.824C363.752 68.6747 363.944 68.6 364.179 68.6H368.467C368.701 68.6 368.893 68.6747 369.043 68.824C369.192 68.9733 369.267 69.1653 369.267 69.4V90.2C369.267 90.4347 369.192 90.6267 369.043 90.776C368.893 90.9253 368.701 91 368.467 91H364.179ZM387.258 98.04C386.682 98.04 386.159 97.944 385.69 97.752C385.22 97.56 384.89 97.336 384.698 97.08C384.506 96.824 384.516 96.6 384.73 96.408L385.306 95.896C385.498 95.7253 385.658 95.672 385.786 95.736C385.935 95.8 386.116 95.8853 386.33 95.992C386.543 96.12 386.852 96.184 387.258 96.184C387.578 96.184 387.834 96.088 388.026 95.896C388.218 95.704 388.314 95.48 388.314 95.224C388.314 94.9467 388.218 94.712 388.026 94.52C387.834 94.3493 387.578 94.264 387.258 94.264C387.002 94.264 386.767 94.296 386.554 94.36C386.34 94.4453 386.138 94.488 385.946 94.488C385.775 94.5093 385.604 94.456 385.434 94.328L384.826 93.688C384.698 93.56 384.634 93.4213 384.634 93.272C384.655 93.1227 384.73 92.92 384.858 92.664L385.498 91.192C383.876 91 382.479 90.552 381.306 89.848C380.154 89.144 379.258 88.1947 378.618 87C377.978 85.784 377.615 84.3333 377.53 82.648C377.508 81.7733 377.498 80.8347 377.498 79.832C377.498 78.8293 377.508 77.8693 377.53 76.952C377.615 75.096 378.063 73.528 378.874 72.248C379.684 70.9467 380.815 69.9653 382.266 69.304C383.716 68.6213 385.434 68.28 387.418 68.28C388.826 68.28 390.127 68.4613 391.322 68.824C392.516 69.1653 393.562 69.6773 394.458 70.36C395.354 71.0213 396.047 71.832 396.538 72.792C397.05 73.7307 397.316 74.7973 397.338 75.992C397.359 76.184 397.295 76.344 397.146 76.472C397.018 76.6 396.858 76.664 396.666 76.664H392.346C392.068 76.664 391.855 76.6107 391.706 76.504C391.556 76.376 391.428 76.152 391.322 75.832C391.023 74.7013 390.532 73.9333 389.85 73.528C389.188 73.1013 388.367 72.888 387.386 72.888C386.212 72.888 385.284 73.2187 384.602 73.88C383.919 74.52 383.546 75.5973 383.482 77.112C383.418 78.8613 383.418 80.6533 383.482 82.488C383.546 84.0027 383.919 85.0907 384.602 85.752C385.284 86.392 386.212 86.712 387.386 86.712C388.367 86.712 389.199 86.4987 389.882 86.072C390.564 85.6453 391.044 84.8773 391.322 83.768C391.407 83.448 391.524 83.2347 391.674 83.128C391.844 83 392.068 82.936 392.346 82.936H396.666C396.858 82.936 397.018 83 397.146 83.128C397.295 83.256 397.359 83.416 397.338 83.608C397.316 84.8027 397.05 85.88 396.538 86.84C396.047 87.7787 395.354 88.5893 394.458 89.272C393.562 89.9333 392.516 90.4453 391.322 90.808C390.127 91.1493 388.826 91.32 387.418 91.32L386.778 92.6C386.906 92.536 387.076 92.4827 387.29 92.44C387.524 92.4187 387.706 92.408 387.834 92.408C388.602 92.408 389.21 92.664 389.658 93.176C390.127 93.688 390.362 94.36 390.362 95.192C390.362 96.0027 390.084 96.6747 389.53 97.208C388.975 97.7627 388.218 98.04 387.258 98.04ZM414.335 91.32C412.372 91.32 410.665 91 409.215 90.36C407.764 89.72 406.633 88.76 405.823 87.48C405.012 86.1787 404.564 84.5573 404.479 82.616C404.457 81.6987 404.447 80.7813 404.447 79.864C404.447 78.9467 404.457 78.0187 404.479 77.08C404.564 75.16 405.012 73.5493 405.823 72.248C406.655 70.9253 407.796 69.9333 409.247 69.272C410.697 68.6107 412.393 68.28 414.335 68.28C416.255 68.28 417.94 68.6107 419.391 69.272C420.863 69.9333 422.015 70.9253 422.847 72.248C423.679 73.5493 424.127 75.16 424.191 77.08C424.233 78.0187 424.255 78.9467 424.255 79.864C424.255 80.7813 424.233 81.6987 424.191 82.616C424.105 84.5573 423.657 86.1787 422.847 87.48C422.036 88.76 420.905 89.72 419.455 90.36C418.004 91 416.297 91.32 414.335 91.32ZM414.335 86.712C415.465 86.712 416.383 86.3707 417.087 85.688C417.812 85.0053 418.196 83.9173 418.239 82.424C418.281 81.4853 418.303 80.6 418.303 79.768C418.303 78.936 418.281 78.072 418.239 77.176C418.196 76.1733 418.004 75.3627 417.663 74.744C417.343 74.104 416.895 73.6347 416.319 73.336C415.743 73.0373 415.081 72.888 414.335 72.888C413.609 72.888 412.959 73.0373 412.383 73.336C411.807 73.6347 411.348 74.104 411.007 74.744C410.665 75.3627 410.473 76.1733 410.431 77.176C410.409 78.072 410.399 78.936 410.399 79.768C410.399 80.6 410.409 81.4853 410.431 82.424C410.495 83.9173 410.879 85.0053 411.583 85.688C412.287 86.3707 413.204 86.712 414.335 86.712ZM440.796 91.32C438.662 91.32 436.892 91.0213 435.484 90.424C434.076 89.8053 433.009 89.0053 432.284 88.024C431.558 87.0427 431.174 85.9973 431.132 84.888C431.132 84.7173 431.196 84.568 431.324 84.44C431.473 84.2907 431.644 84.216 431.836 84.216H435.868C436.166 84.216 436.39 84.2693 436.54 84.376C436.71 84.4827 436.86 84.6213 436.988 84.792C437.158 85.112 437.393 85.4213 437.692 85.72C438.012 86.0187 438.417 86.264 438.908 86.456C439.42 86.6267 440.049 86.712 440.796 86.712C442.033 86.712 442.961 86.52 443.58 86.136C444.22 85.752 444.54 85.2293 444.54 84.568C444.54 84.0987 444.369 83.7147 444.028 83.416C443.686 83.096 443.132 82.8187 442.364 82.584C441.617 82.328 440.614 82.072 439.356 81.816C437.734 81.4747 436.348 81.0373 435.196 80.504C434.065 79.9493 433.201 79.2347 432.604 78.36C432.006 77.464 431.708 76.3547 431.708 75.032C431.708 73.7307 432.07 72.568 432.796 71.544C433.542 70.52 434.577 69.72 435.9 69.144C437.222 68.568 438.79 68.28 440.604 68.28C442.076 68.28 443.366 68.472 444.476 68.856C445.606 69.24 446.556 69.752 447.324 70.392C448.092 71.032 448.668 71.7147 449.052 72.44C449.457 73.144 449.67 73.8373 449.692 74.52C449.692 74.6907 449.628 74.8507 449.5 75C449.372 75.128 449.212 75.192 449.02 75.192H444.796C444.561 75.192 444.358 75.1493 444.188 75.064C444.017 74.9787 443.868 74.84 443.74 74.648C443.612 74.1787 443.27 73.7733 442.716 73.432C442.182 73.0693 441.478 72.888 440.604 72.888C439.665 72.888 438.929 73.0587 438.396 73.4C437.884 73.72 437.628 74.2213 437.628 74.904C437.628 75.3307 437.766 75.704 438.044 76.024C438.342 76.344 438.822 76.6213 439.484 76.856C440.166 77.0907 441.094 77.336 442.268 77.592C444.209 77.9547 445.777 78.4133 446.972 78.968C448.166 79.5013 449.041 80.2053 449.596 81.08C450.15 81.9333 450.428 83.0107 450.428 84.312C450.428 85.7627 450.012 87.0213 449.18 88.088C448.369 89.1333 447.238 89.9333 445.788 90.488C444.337 91.0427 442.673 91.32 440.796 91.32Z" fill="#D38C88"/>
<defs>
<filter id="filter0_d_65_18" x="27.8195" y="11.698" width="664.181" height="137.606" filterUnits="userSpaceOnUse" color-interpolation-filters="sRGB">
<feFlood flood-opacity="0" result="BackgroundImageFix"/>
<feColorMatrix in="SourceAlpha" type="matrix" values="0 0 0 0 0 0 0 0 0 0 0 0 0 0 0 0 0 0 127 0" result="hardAlpha"/>
<feOffset dy="2"/>
<feGaussianBlur stdDeviation="12"/>
<feColorMatrix type="matrix" values="0 0 0 0 0.345098 0 0 0 0 0.494118 0 0 0 0 0.92549 0 0 0 0.15 0"/>
<feBlend mode="normal" in2="BackgroundImageFix" result="effect1_dropShadow_65_18"/>
<feBlend mode="normal" in="SourceGraphic" in2="effect1_dropShadow_65_18" result="shape"/>
</filter>
</defs>
</svg>
