<svg width="769" height="164" viewBox="0 0 769 164" fill="none" xmlns="http://www.w3.org/2000/svg">
<path d="M617.114 106.491C607.11 93.2839 611.294 77.1674 626.459 70.494L680.053 46.9097C695.218 40.2362 715.622 45.5329 725.626 58.7401L750.886 92.0862C760.89 105.293 756.706 121.41 741.541 128.083L687.947 151.668C672.782 158.341 652.378 153.044 642.374 139.837L617.114 106.491Z" fill="#2E263C"/>
<rect width="62.2126" height="54.4475" rx="16" transform="matrix(0.915297 -0.402779 0.603812 0.797127 0 119.058)" fill="#2E263C"/>
<path d="M337.609 13.1236C353.842 16.439 362.547 31.7978 357.052 47.4286L351.857 62.206C346.362 77.8368 328.748 87.8204 312.514 84.505L277.648 77.3844C261.415 74.069 252.709 58.7102 258.204 43.0794L263.399 28.302C268.894 12.6712 286.509 2.68761 302.742 6.00295L337.609 13.1236Z" fill="#2E263C"/>
<g filter="url(#filter0_d_65_23)">
<rect x="39" y="38.8191" width="654" height="89.1765" rx="16" fill="white"/>
</g>
<path d="M254.916 100.671C252.516 100.671 250.524 100.335 248.94 99.6627C247.356 98.9667 246.156 98.0667 245.34 96.9627C244.524 95.8587 244.092 94.6827 244.044 93.4347C244.044 93.2427 244.116 93.0747 244.26 92.9307C244.428 92.7627 244.62 92.6787 244.836 92.6787H249.372C249.708 92.6787 249.96 92.7387 250.128 92.8587C250.32 92.9787 250.488 93.1347 250.632 93.3267C250.824 93.6867 251.088 94.0347 251.424 94.3707C251.784 94.7067 252.24 94.9827 252.792 95.1987C253.368 95.3907 254.076 95.4867 254.916 95.4867C256.308 95.4867 257.352 95.2707 258.048 94.8387C258.768 94.4067 259.128 93.8187 259.128 93.0747C259.128 92.5467 258.936 92.1147 258.552 91.7787C258.168 91.4187 257.544 91.1067 256.68 90.8427C255.84 90.5547 254.712 90.2667 253.296 89.9787C251.472 89.5947 249.912 89.1027 248.616 88.5027C247.344 87.8787 246.372 87.0747 245.7 86.0907C245.028 85.0827 244.692 83.8347 244.692 82.3467C244.692 80.8827 245.1 79.5747 245.916 78.4227C246.756 77.2707 247.92 76.3707 249.408 75.7227C250.896 75.0747 252.66 74.7507 254.7 74.7507C256.356 74.7507 257.808 74.9667 259.056 75.3987C260.328 75.8307 261.396 76.4067 262.26 77.1267C263.124 77.8467 263.772 78.6147 264.204 79.4307C264.66 80.2227 264.9 81.0027 264.924 81.7707C264.924 81.9627 264.852 82.1427 264.708 82.3107C264.564 82.4547 264.384 82.5267 264.168 82.5267H259.416C259.152 82.5267 258.924 82.4787 258.732 82.3827C258.54 82.2867 258.372 82.1307 258.228 81.9147C258.084 81.3867 257.7 80.9307 257.076 80.5467C256.476 80.1387 255.684 79.9347 254.7 79.9347C253.644 79.9347 252.816 80.1267 252.216 80.5107C251.64 80.8707 251.352 81.4347 251.352 82.2027C251.352 82.6827 251.508 83.1027 251.82 83.4627C252.156 83.8227 252.696 84.1347 253.44 84.3987C254.208 84.6627 255.252 84.9387 256.572 85.2267C258.756 85.6347 260.52 86.1507 261.864 86.7747C263.208 87.3747 264.192 88.1667 264.816 89.1507C265.44 90.1107 265.752 91.3227 265.752 92.7867C265.752 94.4187 265.284 95.8347 264.348 97.0347C263.436 98.2107 262.164 99.1107 260.532 99.7347C258.9 100.359 257.028 100.671 254.916 100.671ZM284.692 100.671C282.484 100.671 280.564 100.311 278.932 99.5907C277.3 98.8707 276.028 97.7907 275.116 96.3507C274.204 94.8867 273.7 93.0627 273.604 90.8787C273.58 89.8467 273.568 88.8147 273.568 87.7827C273.568 86.7507 273.58 85.7067 273.604 84.6507C273.7 82.4907 274.204 80.6787 275.116 79.2147C276.052 77.7267 277.336 76.6107 278.968 75.8667C280.6 75.1227 282.508 74.7507 284.692 74.7507C286.852 74.7507 288.748 75.1227 290.38 75.8667C292.036 76.6107 293.332 77.7267 294.268 79.2147C295.204 80.6787 295.708 82.4907 295.78 84.6507C295.828 85.7067 295.852 86.7507 295.852 87.7827C295.852 88.8147 295.828 89.8467 295.78 90.8787C295.684 93.0627 295.18 94.8867 294.268 96.3507C293.356 97.7907 292.084 98.8707 290.452 99.5907C288.82 100.311 286.9 100.671 284.692 100.671ZM284.692 95.4867C285.964 95.4867 286.996 95.1027 287.788 94.3347C288.604 93.5667 289.036 92.3427 289.084 90.6627C289.132 89.6067 289.156 88.6107 289.156 87.6747C289.156 86.7387 289.132 85.7667 289.084 84.7587C289.036 83.6307 288.82 82.7187 288.436 82.0227C288.076 81.3027 287.572 80.7747 286.924 80.4387C286.276 80.1027 285.532 79.9347 284.692 79.9347C283.876 79.9347 283.144 80.1027 282.496 80.4387C281.848 80.7747 281.332 81.3027 280.948 82.0227C280.564 82.7187 280.348 83.6307 280.3 84.7587C280.276 85.7667 280.264 86.7387 280.264 87.6747C280.264 88.6107 280.276 89.6067 280.3 90.6627C280.372 92.3427 280.804 93.5667 281.596 94.3347C282.388 95.1027 283.42 95.4867 284.692 95.4867ZM305.965 100.311C305.701 100.311 305.485 100.227 305.317 100.059C305.149 99.8907 305.065 99.6747 305.065 99.4107V76.0107C305.065 75.7467 305.149 75.5307 305.317 75.3627C305.485 75.1947 305.701 75.1107 305.965 75.1107H316.945C319.009 75.1107 320.701 75.3987 322.021 75.9747C323.341 76.5507 324.313 77.3787 324.937 78.4587C325.585 79.5147 325.909 80.7747 325.909 82.2387C325.909 83.1027 325.741 83.8707 325.405 84.5427C325.093 85.1907 324.697 85.7307 324.217 86.1627C323.761 86.5947 323.329 86.9067 322.921 87.0987C323.833 87.5307 324.637 88.2387 325.333 89.2227C326.053 90.2067 326.413 91.3587 326.413 92.6787C326.413 94.2627 326.053 95.6307 325.333 96.7827C324.637 97.9107 323.605 98.7867 322.237 99.4107C320.893 100.011 319.237 100.311 317.269 100.311H305.965ZM311.509 95.6307H316.549C317.581 95.6307 318.361 95.3307 318.889 94.7307C319.417 94.1307 319.681 93.4467 319.681 92.6787C319.681 91.8387 319.405 91.1307 318.853 90.5547C318.325 89.9787 317.557 89.6907 316.549 89.6907H311.509V95.6307ZM311.509 85.1187H316.225C317.209 85.1187 317.941 84.8667 318.421 84.3627C318.925 83.8587 319.177 83.2107 319.177 82.4187C319.177 81.6507 318.925 81.0267 318.421 80.5467C317.941 80.0427 317.209 79.7907 316.225 79.7907H311.509V85.1187ZM336.353 100.311C336.089 100.311 335.873 100.227 335.705 100.059C335.537 99.8907 335.453 99.6747 335.453 99.4107V76.0107C335.453 75.7467 335.537 75.5307 335.705 75.3627C335.873 75.1947 336.089 75.1107 336.353 75.1107H346.145C349.241 75.1107 351.677 75.8307 353.453 77.2707C355.253 78.6867 356.153 80.7027 356.153 83.3187C356.153 85.0227 355.733 86.4627 354.893 87.6387C354.077 88.8147 352.997 89.7027 351.653 90.3027L356.621 99.1587C356.693 99.3027 356.729 99.4347 356.729 99.5547C356.729 99.7467 356.645 99.9267 356.477 100.095C356.333 100.239 356.153 100.311 355.937 100.311H351.185C350.729 100.311 350.393 100.203 350.177 99.9867C349.961 99.7467 349.805 99.5307 349.709 99.3387L345.605 91.4187H341.897V99.4107C341.897 99.6747 341.813 99.8907 341.645 100.059C341.477 100.227 341.261 100.311 340.997 100.311H336.353ZM341.897 86.3427H346.073C347.201 86.3427 348.041 86.0667 348.593 85.5147C349.169 84.9627 349.457 84.2067 349.457 83.2467C349.457 82.3107 349.181 81.5547 348.629 80.9787C348.101 80.4027 347.249 80.1147 346.073 80.1147H341.897V86.3427ZM366.283 100.311C366.019 100.311 365.803 100.227 365.635 100.059C365.467 99.8907 365.383 99.6747 365.383 99.4107V76.0107C365.383 75.7467 365.467 75.5307 365.635 75.3627C365.803 75.1947 366.019 75.1107 366.283 75.1107H383.095C383.359 75.1107 383.575 75.1947 383.743 75.3627C383.911 75.5307 383.995 75.7467 383.995 76.0107V79.3947C383.995 79.6587 383.911 79.8747 383.743 80.0427C383.575 80.2107 383.359 80.2947 383.095 80.2947H371.611V85.1547H382.303C382.567 85.1547 382.783 85.2507 382.951 85.4427C383.119 85.6107 383.203 85.8267 383.203 86.0907V89.2227C383.203 89.4627 383.119 89.6787 382.951 89.8707C382.783 90.0387 382.567 90.1227 382.303 90.1227H371.611V95.1267H383.383C383.647 95.1267 383.863 95.2107 384.031 95.3787C384.199 95.5467 384.283 95.7627 384.283 96.0267V99.4107C384.283 99.6747 384.199 99.8907 384.031 100.059C383.863 100.227 383.647 100.311 383.383 100.311H366.283ZM407.019 100.311C406.755 100.311 406.539 100.227 406.371 100.059C406.203 99.8907 406.119 99.6747 406.119 99.4107V76.0107C406.119 75.7467 406.203 75.5307 406.371 75.3627C406.539 75.1947 406.755 75.1107 407.019 75.1107H410.835C411.243 75.1107 411.531 75.2067 411.699 75.3987C411.891 75.5667 412.011 75.6987 412.059 75.7947L420.843 89.6547V76.0107C420.843 75.7467 420.927 75.5307 421.095 75.3627C421.263 75.1947 421.479 75.1107 421.743 75.1107H426.063C426.327 75.1107 426.543 75.1947 426.711 75.3627C426.879 75.5307 426.963 75.7467 426.963 76.0107V99.4107C426.963 99.6507 426.879 99.8667 426.711 100.059C426.543 100.227 426.327 100.311 426.063 100.311H422.211C421.827 100.311 421.539 100.215 421.347 100.023C421.179 99.8307 421.071 99.6987 421.023 99.6267L412.239 86.3067V99.4107C412.239 99.6747 412.155 99.8907 411.987 100.059C411.819 100.227 411.603 100.311 411.339 100.311H407.019ZM447.33 100.671C445.122 100.671 443.202 100.311 441.57 99.5907C439.938 98.8707 438.666 97.7907 437.754 96.3507C436.842 94.8867 436.338 93.0627 436.242 90.8787C436.218 89.8467 436.206 88.8147 436.206 87.7827C436.206 86.7507 436.218 85.7067 436.242 84.6507C436.338 82.4907 436.842 80.6787 437.754 79.2147C438.69 77.7267 439.974 76.6107 441.606 75.8667C443.238 75.1227 445.146 74.7507 447.33 74.7507C449.49 74.7507 451.386 75.1227 453.018 75.8667C454.674 76.6107 455.97 77.7267 456.906 79.2147C457.842 80.6787 458.346 82.4907 458.418 84.6507C458.466 85.7067 458.49 86.7507 458.49 87.7827C458.49 88.8147 458.466 89.8467 458.418 90.8787C458.322 93.0627 457.818 94.8867 456.906 96.3507C455.994 97.7907 454.722 98.8707 453.09 99.5907C451.458 100.311 449.538 100.671 447.33 100.671ZM447.33 95.4867C448.602 95.4867 449.634 95.1027 450.426 94.3347C451.242 93.5667 451.674 92.3427 451.722 90.6627C451.77 89.6067 451.794 88.6107 451.794 87.6747C451.794 86.7387 451.77 85.7667 451.722 84.7587C451.674 83.6307 451.458 82.7187 451.074 82.0227C450.714 81.3027 450.21 80.7747 449.562 80.4387C448.914 80.1027 448.17 79.9347 447.33 79.9347C446.514 79.9347 445.782 80.1027 445.134 80.4387C444.486 80.7747 443.97 81.3027 443.586 82.0227C443.202 82.7187 442.986 83.6307 442.938 84.7587C442.914 85.7667 442.902 86.7387 442.902 87.6747C442.902 88.6107 442.914 89.6067 442.938 90.6627C443.01 92.3427 443.442 93.5667 444.234 94.3347C445.026 95.1027 446.058 95.4867 447.33 95.4867ZM445.098 73.3107C444.714 73.3107 444.522 73.1187 444.522 72.7347C444.522 72.5427 444.582 72.3867 444.702 72.2667L447.87 68.4147C448.11 68.1267 448.314 67.9467 448.482 67.8747C448.65 67.7787 448.89 67.7307 449.202 67.7307H454.242C454.698 67.7307 454.926 67.9707 454.926 68.4507C454.926 68.6187 454.866 68.7627 454.746 68.8827L449.958 72.8067C449.766 72.9747 449.574 73.1067 449.382 73.2027C449.19 73.2747 448.926 73.3107 448.59 73.3107H445.098ZM477.099 100.671C474.699 100.671 472.707 100.335 471.123 99.6627C469.539 98.9667 468.339 98.0667 467.523 96.9627C466.707 95.8587 466.275 94.6827 466.227 93.4347C466.227 93.2427 466.299 93.0747 466.443 92.9307C466.611 92.7627 466.803 92.6787 467.019 92.6787H471.555C471.891 92.6787 472.143 92.7387 472.311 92.8587C472.503 92.9787 472.671 93.1347 472.815 93.3267C473.007 93.6867 473.271 94.0347 473.607 94.3707C473.967 94.7067 474.423 94.9827 474.975 95.1987C475.551 95.3907 476.259 95.4867 477.099 95.4867C478.491 95.4867 479.535 95.2707 480.231 94.8387C480.951 94.4067 481.311 93.8187 481.311 93.0747C481.311 92.5467 481.119 92.1147 480.735 91.7787C480.351 91.4187 479.727 91.1067 478.863 90.8427C478.023 90.5547 476.895 90.2667 475.479 89.9787C473.655 89.5947 472.095 89.1027 470.799 88.5027C469.527 87.8787 468.555 87.0747 467.883 86.0907C467.211 85.0827 466.875 83.8347 466.875 82.3467C466.875 80.8827 467.283 79.5747 468.099 78.4227C468.939 77.2707 470.103 76.3707 471.591 75.7227C473.079 75.0747 474.843 74.7507 476.883 74.7507C478.539 74.7507 479.991 74.9667 481.239 75.3987C482.511 75.8307 483.579 76.4067 484.443 77.1267C485.307 77.8467 485.955 78.6147 486.387 79.4307C486.843 80.2227 487.083 81.0027 487.107 81.7707C487.107 81.9627 487.035 82.1427 486.891 82.3107C486.747 82.4547 486.567 82.5267 486.351 82.5267H481.599C481.335 82.5267 481.107 82.4787 480.915 82.3827C480.723 82.2867 480.555 82.1307 480.411 81.9147C480.267 81.3867 479.883 80.9307 479.259 80.5467C478.659 80.1387 477.867 79.9347 476.883 79.9347C475.827 79.9347 474.999 80.1267 474.399 80.5107C473.823 80.8707 473.535 81.4347 473.535 82.2027C473.535 82.6827 473.691 83.1027 474.003 83.4627C474.339 83.8227 474.879 84.1347 475.623 84.3987C476.391 84.6627 477.435 84.9387 478.755 85.2267C480.939 85.6347 482.703 86.1507 484.047 86.7747C485.391 87.3747 486.375 88.1667 486.999 89.1507C487.623 90.1107 487.935 91.3227 487.935 92.7867C487.935 94.4187 487.467 95.8347 486.531 97.0347C485.619 98.2107 484.347 99.1107 482.715 99.7347C481.083 100.359 479.211 100.671 477.099 100.671Z" fill="#D38C88"/>
<defs>
<filter id="filter0_d_65_23" x="15" y="16.8191" width="702" height="137.177" filterUnits="userSpaceOnUse" color-interpolation-filters="sRGB">
<feFlood flood-opacity="0" result="BackgroundImageFix"/>
<feColorMatrix in="SourceAlpha" type="matrix" values="0 0 0 0 0 0 0 0 0 0 0 0 0 0 0 0 0 0 127 0" result="hardAlpha"/>
<feOffset dy="2"/>
<feGaussianBlur stdDeviation="12"/>
<feColorMatrix type="matrix" values="0 0 0 0 0.345098 0 0 0 0 0.494118 0 0 0 0 0.92549 0 0 0 0.15 0"/>
<feBlend mode="normal" in2="BackgroundImageFix" result="effect1_dropShadow_65_23"/>
<feBlend mode="normal" in="SourceGraphic" in2="effect1_dropShadow_65_23" result="shape"/>
</filter>
</defs>
</svg>
