<svg width="402" height="369" viewBox="0 0 402 369" fill="none" xmlns="http://www.w3.org/2000/svg">
<g clip-path="url(#clip0_65_24)">
<path d="M366.759 368.632V331.627C366.759 331.627 381.951 357.862 366.759 368.632Z" fill="#F1F1F1"/>
<path d="M367.697 368.625L338.981 343.6C338.981 343.6 369.613 350.718 367.697 368.625Z" fill="#F1F1F1"/>
<path d="M266.413 163.28L114.027 247.827C113.494 248.122 112.859 248.204 112.262 248.056C111.665 247.907 111.154 247.54 110.842 247.034L12.8479 87.8726C12.5369 87.3663 12.4503 86.7636 12.6069 86.1967C12.7635 85.6299 13.1506 85.1451 13.6832 84.8488L166.069 0.301614C166.602 0.00647613 167.237 -0.0757827 167.834 0.072884C168.431 0.221551 168.942 0.589003 169.254 1.09463L267.248 160.256C267.559 160.762 267.646 161.365 267.489 161.932C267.332 162.499 266.945 162.984 266.413 163.28Z" fill="white"/>
<path d="M266.413 163.28L114.027 247.827C113.494 248.122 112.859 248.204 112.262 248.056C111.665 247.907 111.154 247.54 110.842 247.034L12.8479 87.8726C12.5369 87.3663 12.4503 86.7636 12.6069 86.1967C12.7635 85.6299 13.1506 85.1451 13.6832 84.8488L166.069 0.301614C166.602 0.00647613 167.237 -0.0757827 167.834 0.072884C168.431 0.221551 168.942 0.589003 169.254 1.09463L267.248 160.256C267.559 160.762 267.646 161.365 267.489 161.932C267.332 162.499 266.945 162.984 266.413 163.28ZM14.1532 85.6121C13.8336 85.7899 13.6014 86.0808 13.5074 86.4209C13.4134 86.761 13.4655 87.1227 13.652 87.4264L111.646 246.588C111.833 246.891 112.14 247.112 112.498 247.201C112.856 247.29 113.237 247.241 113.557 247.064L265.943 162.517C266.262 162.339 266.495 162.048 266.589 161.708C266.682 161.368 266.63 161.006 266.444 160.702L168.45 1.54076C168.263 1.23737 167.956 1.01689 167.598 0.927687C167.24 0.838486 166.859 0.88785 166.539 1.06495L14.1532 85.6121Z" fill="#3F3D56"/>
<path d="M112.107 101.462L74.3124 122.432C73.779 122.727 73.1441 122.809 72.547 122.661C71.9498 122.512 71.4392 122.144 71.127 121.639L49.0373 85.7607C48.7264 85.2544 48.6397 84.6517 48.7964 84.0848C48.953 83.518 49.34 83.0332 49.8727 82.7369L87.6675 61.7674C88.2009 61.4723 88.8358 61.39 89.4329 61.5387C90.0301 61.6873 90.5407 62.0548 90.8529 62.5604L112.943 98.4385C113.254 98.9448 113.34 99.5476 113.184 100.114C113.027 100.681 112.64 101.166 112.107 101.462V101.462ZM50.3427 83.5003C50.0231 83.678 49.7908 83.9689 49.6969 84.309C49.6029 84.6491 49.6549 85.0108 49.8415 85.3145L71.9312 121.193C72.1185 121.496 72.4249 121.717 72.7832 121.806C73.1415 121.895 73.5224 121.846 73.8424 121.668L111.637 100.699C111.957 100.521 112.189 100.23 112.283 99.8902C112.377 99.5501 112.325 99.1885 112.138 98.8847L90.0488 63.0066C89.8615 62.7032 89.5551 62.4827 89.1968 62.3935C88.8385 62.3043 88.4575 62.3537 88.1375 62.5308L50.3427 83.5003Z" fill="#F2F2F2"/>
<path d="M103.954 111.875L66.1589 132.844C65.6788 133.11 65.1074 133.184 64.57 133.05C64.0325 132.916 63.573 132.586 63.2921 132.131L41.2023 96.2525C40.9225 95.7968 40.8445 95.2544 40.9854 94.7442C41.1264 94.234 41.4748 93.7977 41.9541 93.5311L79.749 72.5616C80.229 72.2959 80.8004 72.2219 81.3379 72.3557C81.8753 72.4895 82.3349 72.8202 82.6158 73.2753L104.706 109.153C104.985 109.609 105.063 110.152 104.922 110.662C104.781 111.172 104.433 111.608 103.954 111.875V111.875Z" fill="#D38C88"/>
<path d="M195.178 84.8163L76.9687 150.402C76.4889 150.668 75.9172 150.742 75.3796 150.609C74.842 150.475 74.3824 150.144 74.1019 149.688C73.8215 149.233 73.7431 148.69 73.8841 148.179C74.0251 147.669 74.3739 147.233 74.8538 146.967L193.063 81.3812C193.301 81.2493 193.563 81.1632 193.836 81.1277C194.109 81.0923 194.386 81.1081 194.652 81.1744C194.918 81.2407 195.168 81.3561 195.388 81.514C195.607 81.6719 195.791 81.8693 195.93 82.0949C196.069 82.3204 196.16 82.5697 196.197 82.8286C196.234 83.0874 196.218 83.3507 196.148 83.6034C196.078 83.8561 195.956 84.0933 195.79 84.3014C195.624 84.5095 195.416 84.6845 195.178 84.8163V84.8163Z" fill="#CCCCCC"/>
<path d="M173.916 112.487L84.2537 162.234C84.016 162.366 83.7534 162.452 83.4808 162.487C83.2081 162.523 82.9308 162.507 82.6645 162.441C82.1269 162.307 81.6673 161.976 81.3868 161.52C81.1064 161.065 81.028 160.522 81.169 160.012C81.31 159.501 81.6588 159.065 82.1387 158.799L171.801 109.052C172.039 108.92 172.301 108.834 172.574 108.799C172.846 108.763 173.124 108.779 173.39 108.845C173.656 108.912 173.906 109.027 174.125 109.185C174.345 109.343 174.529 109.54 174.668 109.766C174.807 109.991 174.897 110.241 174.935 110.499C174.972 110.758 174.955 111.022 174.886 111.274C174.816 111.527 174.694 111.764 174.528 111.972C174.361 112.18 174.153 112.355 173.916 112.487V112.487Z" fill="#CCCCCC"/>
<path d="M167.986 41.5276L115.717 70.528C115.237 70.7942 114.665 70.8686 114.128 70.7347C113.59 70.6009 113.131 70.2698 112.85 69.8143C112.57 69.3587 112.491 68.8161 112.632 68.3057C112.773 67.7954 113.122 67.3591 113.602 67.0928L165.871 38.0925C166.351 37.8262 166.923 37.7519 167.461 37.8857C167.727 37.952 167.977 38.0674 168.196 38.2253C168.415 38.3832 168.599 38.5806 168.738 38.8062C168.877 39.0317 168.968 39.281 169.005 39.5399C169.043 39.7987 169.026 40.062 168.956 40.3147C168.886 40.5674 168.765 40.8046 168.598 41.0127C168.432 41.2208 168.224 41.3958 167.986 41.5276Z" fill="#CCCCCC"/>
<path d="M162.227 60.5973L123.002 82.3601C122.764 82.492 122.502 82.5781 122.229 82.6136C121.956 82.649 121.679 82.6332 121.413 82.5669C121.146 82.5006 120.897 82.3852 120.677 82.2273C120.458 82.0694 120.274 81.872 120.135 81.6464C119.996 81.4209 119.905 81.1716 119.868 80.9127C119.831 80.6539 119.847 80.3906 119.917 80.1379C119.987 79.8852 120.109 79.648 120.275 79.4399C120.441 79.2318 120.649 79.0568 120.887 78.925L160.112 57.1621C160.591 56.8959 161.163 56.8215 161.701 56.9554C162.238 57.0892 162.698 57.4203 162.978 57.8759C163.259 58.3314 163.337 58.874 163.196 59.3844C163.055 59.8948 162.706 60.331 162.227 60.5973Z" fill="#CCCCCC"/>
<path d="M209.748 108.481L91.5386 174.066C91.0587 174.332 90.4871 174.407 89.9495 174.273C89.4118 174.139 88.9522 173.808 88.6718 173.352C88.3913 172.897 88.3129 172.354 88.4539 171.844C88.5949 171.333 88.9437 170.897 89.4236 170.631L207.633 105.045C208.113 104.779 208.684 104.705 209.222 104.839C209.76 104.973 210.219 105.304 210.5 105.759C210.78 106.215 210.859 106.757 210.718 107.268C210.577 107.778 210.228 108.214 209.748 108.481V108.481Z" fill="#CCCCCC"/>
<path d="M188.486 136.151L98.8235 185.898C98.5859 186.03 98.3232 186.116 98.0506 186.152C97.7779 186.187 97.5006 186.171 97.2344 186.105C96.9682 186.039 96.7183 185.923 96.4991 185.765C96.2798 185.607 96.0955 185.41 95.9567 185.185C95.8178 184.959 95.7271 184.71 95.6897 184.451C95.6523 184.192 95.669 183.929 95.7388 183.676C95.8087 183.423 95.9302 183.186 96.0966 182.978C96.263 182.77 96.4709 182.595 96.7085 182.463L186.371 132.716C186.608 132.584 186.871 132.498 187.144 132.463C187.416 132.427 187.694 132.443 187.96 132.51C188.226 132.576 188.476 132.691 188.695 132.849C188.914 133.007 189.099 133.204 189.238 133.43C189.376 133.656 189.467 133.905 189.505 134.164C189.542 134.423 189.525 134.686 189.455 134.939C189.386 135.191 189.264 135.428 189.098 135.637C188.931 135.845 188.723 136.02 188.486 136.151V136.151Z" fill="#CCCCCC"/>
<path d="M224.318 132.145L106.108 197.73C105.871 197.862 105.608 197.948 105.335 197.984C105.063 198.019 104.785 198.003 104.519 197.937C104.253 197.871 104.003 197.755 103.784 197.598C103.565 197.44 103.38 197.242 103.242 197.017C103.103 196.791 103.012 196.542 102.975 196.283C102.937 196.024 102.954 195.761 103.024 195.508C103.094 195.255 103.215 195.018 103.382 194.81C103.548 194.602 103.756 194.427 103.993 194.295L222.203 128.71C222.441 128.578 222.703 128.492 222.976 128.456C223.248 128.421 223.526 128.437 223.792 128.503C224.058 128.569 224.308 128.685 224.527 128.843C224.747 129.001 224.931 129.198 225.07 129.423C225.209 129.649 225.299 129.898 225.337 130.157C225.374 130.416 225.357 130.679 225.288 130.932C225.218 131.185 225.096 131.422 224.93 131.63C224.763 131.838 224.555 132.013 224.318 132.145V132.145Z" fill="#CCCCCC"/>
<path d="M231.603 143.977L113.393 209.562C113.156 209.694 112.893 209.78 112.62 209.816C112.348 209.851 112.07 209.836 111.804 209.769C111.538 209.703 111.288 209.588 111.069 209.43C110.85 209.272 110.665 209.074 110.527 208.849C110.388 208.623 110.297 208.374 110.26 208.115C110.222 207.856 110.239 207.593 110.309 207.34C110.379 207.088 110.5 206.85 110.666 206.642C110.833 206.434 111.041 206.259 111.278 206.127L229.488 140.542C229.725 140.41 229.988 140.324 230.261 140.289C230.533 140.253 230.811 140.269 231.077 140.335C231.343 140.401 231.593 140.517 231.812 140.675C232.031 140.833 232.216 141.03 232.355 141.256C232.493 141.481 232.584 141.731 232.622 141.989C232.659 142.248 232.642 142.511 232.572 142.764C232.503 143.017 232.381 143.254 232.215 143.462C232.048 143.67 231.84 143.845 231.603 143.977V143.977Z" fill="#CCCCCC"/>
<path d="M193.376 190.038C195.019 188.202 196.497 186.24 197.796 184.17C198.961 182.304 200.103 180.308 200.36 178.119C200.491 177.187 200.389 176.239 200.062 175.351C199.734 174.463 199.19 173.662 198.475 173.011C197.783 172.406 196.907 172.026 195.972 171.925C195.038 171.824 194.094 172.008 193.277 172.45C192.45 172.901 191.767 173.555 191.3 174.344C190.833 175.133 190.599 176.027 190.624 176.931C190.691 177.927 190.994 178.896 191.511 179.765C192.027 180.635 192.744 181.382 193.607 181.952C197.101 184.355 202.558 184.229 206.282 182.4C210.476 180.341 212.644 174.952 209.348 171.263C208.663 170.495 207.522 171.353 207.694 172.18C207.912 173.298 208.571 174.295 209.537 174.967C210.503 175.64 211.703 175.936 212.891 175.797C214.08 175.657 215.168 175.092 215.932 174.217C216.697 173.342 217.081 172.223 217.005 171.088L215.524 171.91C217.34 172.674 219.336 172.97 221.311 172.769C223.286 172.568 225.171 171.876 226.775 170.764C227.568 170.217 228.277 169.567 228.88 168.833C229.605 167.935 230.824 167.354 231.81 166.707L238.918 162.045C239.963 161.359 238.969 159.725 237.915 160.416L231.478 164.639C230.405 165.342 229.325 166.037 228.259 166.75C227.497 167.259 227.028 168.082 226.334 168.687C225.021 169.808 223.4 170.552 221.658 170.831C219.917 171.111 218.127 170.915 216.499 170.266C216.347 170.189 216.177 170.15 216.005 170.152C215.833 170.155 215.664 170.2 215.515 170.283C215.367 170.365 215.243 170.483 215.156 170.624C215.069 170.765 215.021 170.925 215.018 171.088C215.096 171.765 214.889 172.444 214.443 172.977C213.996 173.511 213.346 173.855 212.634 173.935C211.921 174.015 211.204 173.825 210.639 173.405C210.073 172.986 209.705 172.371 209.615 171.696L207.96 172.613C210.086 174.993 208.671 178.643 206.222 180.24C203.483 182.026 199.435 182.336 196.348 181.226C195.591 180.978 194.895 180.585 194.305 180.071C193.715 179.557 193.243 178.933 192.918 178.238C192.617 177.61 192.531 176.909 192.673 176.232C192.814 175.555 193.175 174.938 193.706 174.467C194.166 174.035 194.784 173.791 195.43 173.784C196.076 173.778 196.7 174.01 197.169 174.431C197.68 174.927 198.055 175.534 198.261 176.199C198.467 176.865 198.498 177.568 198.35 178.247C198.031 180.137 196.931 181.88 195.907 183.494C194.738 185.334 193.416 187.081 191.953 188.721C191.133 189.642 192.548 190.969 193.376 190.038L193.376 190.038Z" fill="#D38C88"/>
<path d="M211.019 234.891C211.19 235.058 211.348 235.238 211.489 235.429L233.501 234.917L236.069 230.463L243.658 233.263L239.919 241.569C239.617 242.239 239.094 242.799 238.428 243.164C237.762 243.529 236.99 243.678 236.227 243.591L211.357 240.739C210.77 241.444 209.971 241.963 209.067 242.226C208.162 242.49 207.194 242.486 206.292 242.214C205.39 241.943 204.596 241.417 204.016 240.707C203.436 239.997 203.098 239.136 203.046 238.239C202.994 237.342 203.231 236.451 203.726 235.685C204.22 234.919 204.949 234.314 205.814 233.951C206.68 233.587 207.642 233.482 208.571 233.65C209.501 233.819 210.355 234.251 211.019 234.891V234.891Z" fill="#FFB7B7"/>
<path d="M282.776 361.794H275.538L272.095 335.292L282.777 335.293L282.776 361.794Z" fill="#FFB7B7"/>
<path d="M284.621 368.454L261.284 368.453V368.173C261.284 365.886 262.241 363.693 263.945 362.076C265.648 360.459 267.958 359.55 270.368 359.55H270.368L284.622 359.551L284.621 368.454Z" fill="#2F2E41"/>
<path d="M217.054 361.641L210.398 358.942L218.199 333.287L228.022 337.271L217.054 361.641Z" fill="#FFB7B7"/>
<path d="M215.996 368.454L194.534 359.751L194.65 359.493C195.597 357.39 197.385 355.73 199.62 354.878C201.856 354.026 204.357 354.052 206.572 354.951L206.573 354.951L219.68 360.267L215.996 368.454Z" fill="#2F2E41"/>
<path d="M247.595 240.632L247.072 248.683L262.371 250.237L278.379 251.864L273.667 239.638L247.595 240.632Z" fill="#FFB7B7"/>
<path d="M246.59 248.787L240.647 209.455L250.948 206.25L253.974 202.312L268.697 203.139L270.859 207.735L278.71 211.257L277.503 232.528L278.384 250.321L246.59 248.787Z" fill="#2F2E41"/>
<path d="M242.849 238.247L232.371 234.267L232.416 234.09C232.461 233.912 236.92 216.22 237.513 213.378C238.129 210.416 240.383 209.597 240.479 209.564L240.549 209.539L244.695 210.737L246.517 224.321L242.849 238.247Z" fill="#2F2E41"/>
<path d="M222.445 356.984L208.497 354.267L230.79 295.873L238.42 275.955C238.42 275.955 243.259 259.985 245.445 253.805L246.765 245.513L277.999 248.795C277.999 248.795 286.722 260.956 284.072 280.779L285.271 355.286L271.323 355.965L259.64 280.821L239.135 322.015C239.135 322.015 232.672 339.593 228.048 343.403L222.445 356.984Z" fill="#2F2E41"/>
<path d="M265.473 251.56C265.719 251.555 265.964 251.567 266.208 251.598L280.779 235.928L279.084 231.112L286.407 227.733L290.28 235.983C290.593 236.649 290.67 237.394 290.499 238.105C290.328 238.817 289.919 239.456 289.332 239.928L270.22 255.301C270.366 256.189 270.223 257.097 269.812 257.906C269.4 258.715 268.739 259.386 267.916 259.83C267.093 260.273 266.147 260.468 265.204 260.389C264.261 260.31 263.366 259.96 262.638 259.386C261.91 258.812 261.383 258.042 261.128 257.177C260.872 256.312 260.9 255.393 261.208 254.544C261.516 253.694 262.088 252.953 262.85 252.421C263.612 251.888 264.527 251.587 265.473 251.56V251.56Z" fill="#FFB7B7"/>
<path d="M279.616 237.453L273.538 223.88L275.908 214.426L278.463 211.363C278.65 211.287 278.852 211.248 279.055 211.25C279.259 211.252 279.459 211.294 279.645 211.373C280.587 211.733 281.389 212.836 282.029 214.652L287.726 230.055L279.616 237.453Z" fill="#2F2E41"/>
<path d="M248.08 197.282V187.05C248.08 183.413 249.602 179.925 252.311 177.354C255.019 174.783 258.693 173.338 262.524 173.338C266.355 173.338 270.029 174.783 272.738 177.354C275.447 179.925 276.968 183.413 276.968 187.05V197.282C276.968 197.771 276.763 198.239 276.399 198.584C276.036 198.929 275.543 199.124 275.028 199.124H250.02C249.506 199.124 249.013 198.929 248.649 198.584C248.285 198.239 248.081 197.771 248.08 197.282V197.282Z" fill="#2F2E41"/>
<path d="M259.556 198.886C265.405 198.886 270.146 194.385 270.146 188.833C270.146 183.281 265.405 178.78 259.556 178.78C253.707 178.78 248.966 183.281 248.966 188.833C248.966 194.385 253.707 198.886 259.556 198.886Z" fill="#FFB7B7"/>
<path d="M244.663 187.868C244.666 184.993 245.871 182.236 248.013 180.202C250.155 178.169 253.06 177.025 256.089 177.022H258.245C261.274 177.025 264.178 178.169 266.32 180.202C268.462 182.236 269.667 184.993 269.671 187.868V188.073H265.115L263.561 183.942L263.25 188.073H260.895L260.111 185.989L259.955 188.073H244.663L244.663 187.868Z" fill="#2F2E41"/>
<path d="M258.514 200.275C258.3 200 258.172 199.673 258.145 199.332C258.118 198.991 258.194 198.65 258.362 198.348C260.647 194.223 263.845 186.601 259.599 181.9L259.294 181.563H271.62V199.13L260.423 201.005C260.31 201.024 260.195 201.034 260.08 201.034C259.774 201.034 259.473 200.965 259.201 200.833C258.928 200.701 258.693 200.51 258.514 200.275V200.275Z" fill="#2F2E41"/>
<path d="M114.728 356.005L121.269 358.224L133.399 335.33L123.745 332.055L114.728 356.005Z" fill="#9F616A"/>
<path d="M110.794 361.458L113.823 353.412L126.705 357.782C128.88 358.523 130.658 360.053 131.647 362.036C132.636 364.019 132.756 366.293 131.98 368.36L131.885 368.613L110.794 361.458Z" fill="#2F2E41"/>
<path d="M157.263 362.147L164.209 362.146L167.514 336.713L157.262 336.713L157.263 362.147Z" fill="#9F616A"/>
<path d="M155.491 359.994L169.17 359.993H169.171C170.316 359.993 171.45 360.207 172.507 360.623C173.565 361.039 174.526 361.649 175.335 362.417C176.145 363.186 176.787 364.098 177.225 365.102C177.663 366.106 177.889 367.182 177.889 368.269V368.538L155.491 368.539L155.491 359.994Z" fill="#2F2E41"/>
<path d="M141.432 199.656L144.453 193.99C144.453 193.99 155.707 196.666 156.73 202.858L141.432 199.656Z" fill="#F1F1F1"/>
<path d="M128.968 264.449L137.183 307.968L115.369 344.588L128.401 349.429L150.498 313.931L153.331 304.25L155.03 354.808L166.783 354.469L172.171 307.26L163.529 263.373L128.968 264.449Z" fill="#2F2E41"/>
<path d="M144.562 274.737C132.493 274.737 124.831 272.545 124.659 272.511L124.381 272.454L130.667 244.787L130.95 219.266C130.95 208.452 138.449 200.478 139.489 199.742C139.664 199.086 139.988 198.474 140.439 197.948C140.889 197.423 141.454 196.998 142.096 196.701C144.597 195.624 147.653 196.917 147.782 196.972L156.955 200.237L156.998 200.358C157.109 200.667 169.192 238.322 169.192 238.322C169.192 238.322 168.46 271.222 168.205 272.3C168.205 272.3 151.268 274.737 144.562 274.737Z" fill="#3F3D56"/>
<path d="M153.836 192.206C160.684 192.206 166.235 186.936 166.235 180.436C166.235 173.936 160.684 168.666 153.836 168.666C146.989 168.666 141.438 173.936 141.438 180.436C141.438 186.936 146.989 192.206 153.836 192.206Z" fill="#9F616A"/>
<path opacity="0.2" d="M140.012 221.354L161.703 250.083L164.906 236.667L140.012 221.354Z" fill="black"/>
<path d="M208.018 240.901C207.408 241.359 206.7 241.685 205.943 241.855C205.186 242.025 204.399 242.036 203.637 241.886C202.875 241.736 202.158 241.429 201.534 240.988C200.911 240.546 200.397 239.98 200.029 239.329L181.359 242.166L185.404 233.666L202.513 232.275C203.706 231.761 205.055 231.68 206.306 232.047C207.558 232.414 208.623 233.204 209.302 234.267C209.98 235.331 210.225 236.593 209.988 237.816C209.751 239.039 209.05 240.136 208.018 240.901H208.018Z" fill="#9F616A"/>
<path d="M186.365 233.182L193.074 232.557L194.933 241.441L186.491 241.583L186.365 233.182Z" fill="#F1F1F1"/>
<path d="M191.865 244.536L159.009 241.759L142.42 216.714L142.369 216.492C141.898 214.446 142.228 212.308 143.296 210.475C144.365 208.643 146.099 207.243 148.176 206.536C150.252 205.829 152.529 205.864 154.581 206.633C156.632 207.403 158.319 208.855 159.325 210.719L169.064 228.751L188.718 231.572L191.865 244.536Z" fill="#3F3D56"/>
<path d="M143.275 190.655L153.566 191.006C154.193 191.027 155.896 184.6 156.119 183.267C156.295 182.399 156.798 181.622 157.533 181.08C158.269 180.539 159.188 180.27 160.117 180.324C160.887 180.393 162.83 179.027 164.834 177.409C168.64 174.338 168.442 168.57 164.261 165.974C164.147 165.903 164.035 165.839 163.925 165.78C161.288 164.379 158.203 163.908 155.181 163.872C152.441 163.84 149.624 164.167 147.211 165.398C142.884 167.605 140.581 172.427 140.379 177.086C140.177 181.744 141.75 186.3 143.535 190.643" fill="#2F2E41"/>
<path d="M401.247 369H0.538874C0.395956 369 0.258891 368.946 0.157832 368.85C0.0567737 368.754 0 368.624 0 368.488C0 368.353 0.0567737 368.223 0.157832 368.127C0.258891 368.031 0.395956 367.977 0.538874 367.977H401.461C401.604 367.977 401.741 368.031 401.842 368.127C401.943 368.223 402 368.353 402 368.488C402 368.771 401.544 369 401.247 369Z" fill="#CBCBCB"/>
</g>
<defs>
<clipPath id="clip0_65_24">
<rect width="402" height="369" fill="white"/>
</clipPath>
</defs>
</svg>
