<svg width="717" height="154" viewBox="0 0 717 154" fill="none" xmlns="http://www.w3.org/2000/svg">
<path d="M570.207 93.6516C560.613 80.1435 564.994 63.4868 579.993 56.4476L629.684 33.1274C644.683 26.0882 664.619 31.3323 674.214 44.8403L699.518 80.4669C709.112 93.975 704.731 110.632 689.732 117.671L640.041 140.991C625.043 148.03 605.106 142.786 595.512 129.278L570.207 93.6516Z" fill="#2E263C"/>
<rect width="59.2647" height="53.4913" rx="16" transform="matrix(0.905264 -0.424849 0.579065 0.815282 0 109.37)" fill="#2E263C"/>
<path d="M308.929 12.8341C325.118 16.3602 334.037 31.975 328.85 47.7106L323.991 62.4518C318.804 78.1875 301.475 88.0853 285.286 84.5592L255.674 78.1096C239.485 74.5836 230.567 58.9688 235.754 43.2331L240.613 28.492C245.8 12.7563 263.128 2.85846 279.317 6.38454L308.929 12.8341Z" fill="#2E263C"/>
<g filter="url(#filter0_d_67_13)">
<rect x="51.8195" y="33.6979" width="616.181" height="89.6059" rx="16" fill="white"/>
</g>
<path d="M290.04 91C289.805 91 289.613 90.9253 289.464 90.776C289.315 90.6267 289.24 90.4347 289.24 90.2V69.4C289.24 69.1653 289.315 68.9733 289.464 68.824C289.613 68.6747 289.805 68.6 290.04 68.6H304.984C305.219 68.6 305.411 68.6747 305.56 68.824C305.709 68.9733 305.784 69.1653 305.784 69.4V72.408C305.784 72.6427 305.709 72.8347 305.56 72.984C305.411 73.1333 305.219 73.208 304.984 73.208H294.776V77.528H304.28C304.515 77.528 304.707 77.6133 304.856 77.784C305.005 77.9333 305.08 78.1253 305.08 78.36V81.144C305.08 81.3573 305.005 81.5493 304.856 81.72C304.707 81.8693 304.515 81.944 304.28 81.944H294.776V86.392H305.24C305.475 86.392 305.667 86.4667 305.816 86.616C305.965 86.7653 306.04 86.9573 306.04 87.192V90.2C306.04 90.4347 305.965 90.6267 305.816 90.776C305.667 90.9253 305.475 91 305.24 91H290.04ZM328.242 93.08C327.901 93.08 327.634 92.984 327.442 92.792C327.271 92.6213 327.133 92.472 327.026 92.344L325.938 90.904C325.106 91.1813 324.157 91.32 323.09 91.32C321.127 91.32 319.421 91 317.97 90.36C316.541 89.72 315.41 88.76 314.578 87.48C313.767 86.1787 313.33 84.5573 313.266 82.616C313.245 81.6987 313.234 80.7813 313.234 79.864C313.234 78.9467 313.245 78.0187 313.266 77.08C313.33 75.16 313.778 73.5493 314.61 72.248C315.442 70.9253 316.583 69.9333 318.034 69.272C319.485 68.6107 321.17 68.28 323.09 68.28C325.031 68.28 326.727 68.6107 328.178 69.272C329.629 69.9333 330.77 70.9253 331.602 72.248C332.434 73.5493 332.882 75.16 332.946 77.08C332.989 78.0187 333.01 78.9467 333.01 79.864C333.01 80.7813 332.989 81.6987 332.946 82.616C332.818 85.2613 332.05 87.3093 330.642 88.76L332.978 92.088C332.999 92.1093 333.021 92.152 333.042 92.216C333.063 92.28 333.074 92.344 333.074 92.408C333.095 92.5787 333.042 92.728 332.914 92.856C332.786 93.0053 332.626 93.08 332.434 93.08H328.242ZM323.09 86.712C324.221 86.712 325.138 86.3707 325.842 85.688C326.567 85.0053 326.951 83.9173 326.994 82.424C327.037 81.4853 327.058 80.6 327.058 79.768C327.058 78.936 327.037 78.072 326.994 77.176C326.973 76.1733 326.791 75.3627 326.45 74.744C326.109 74.104 325.65 73.6347 325.074 73.336C324.498 73.0373 323.837 72.888 323.09 72.888C322.365 72.888 321.714 73.0373 321.138 73.336C320.562 73.6347 320.103 74.104 319.762 74.744C319.421 75.3627 319.239 76.1733 319.218 77.176C319.197 78.072 319.186 78.936 319.186 79.768C319.186 80.6 319.197 81.4853 319.218 82.424C319.261 83.9173 319.634 85.0053 320.338 85.688C321.063 86.3707 321.981 86.712 323.09 86.712ZM350.607 91.32C348.687 91.32 347.002 91.0107 345.551 90.392C344.122 89.752 343.013 88.7813 342.223 87.48C341.434 86.1573 341.039 84.4827 341.039 82.456V69.4C341.039 69.1653 341.114 68.9733 341.263 68.824C341.413 68.6747 341.605 68.6 341.839 68.6H345.967C346.202 68.6 346.394 68.6747 346.543 68.824C346.693 68.9733 346.767 69.1653 346.767 69.4V82.424C346.767 83.8107 347.098 84.856 347.759 85.56C348.442 86.2427 349.391 86.584 350.607 86.584C351.802 86.584 352.73 86.2427 353.391 85.56C354.074 84.856 354.415 83.8107 354.415 82.424V69.4C354.415 69.1653 354.49 68.9733 354.639 68.824C354.81 68.6747 355.002 68.6 355.215 68.6H359.375C359.589 68.6 359.77 68.6747 359.919 68.824C360.09 68.9733 360.175 69.1653 360.175 69.4V82.456C360.175 84.4827 359.781 86.1573 358.991 87.48C358.202 88.7813 357.093 89.752 355.663 90.392C354.234 91.0107 352.549 91.32 350.607 91.32ZM369.699 91C369.464 91 369.272 90.9253 369.123 90.776C368.973 90.6267 368.899 90.4347 368.899 90.2V69.4C368.899 69.1653 368.973 68.9733 369.123 68.824C369.272 68.6747 369.464 68.6 369.699 68.6H373.987C374.221 68.6 374.413 68.6747 374.563 68.824C374.712 68.9733 374.787 69.1653 374.787 69.4V90.2C374.787 90.4347 374.712 90.6267 374.563 90.776C374.413 90.9253 374.221 91 373.987 91H369.699ZM384.554 91C384.319 91 384.127 90.9253 383.978 90.776C383.828 90.6267 383.754 90.4347 383.754 90.2V69.4C383.754 69.1653 383.828 68.9733 383.978 68.824C384.127 68.6747 384.319 68.6 384.554 68.6H393.514C395.284 68.6 396.82 68.8773 398.122 69.432C399.444 69.9653 400.468 70.776 401.194 71.864C401.94 72.952 402.314 74.328 402.314 75.992C402.314 77.6347 401.94 78.9893 401.194 80.056C400.468 81.1227 399.444 81.912 398.122 82.424C396.82 82.936 395.284 83.192 393.514 83.192H389.706V90.2C389.706 90.4347 389.62 90.6267 389.45 90.776C389.3 90.9253 389.108 91 388.874 91H384.554ZM389.61 78.776H393.354C394.271 78.776 394.996 78.5413 395.53 78.072C396.084 77.6027 396.362 76.888 396.362 75.928C396.362 75.1173 396.127 74.4347 395.658 73.88C395.188 73.3253 394.42 73.048 393.354 73.048H389.61V78.776ZM410.659 91C410.424 91 410.232 90.9253 410.083 90.776C409.933 90.6267 409.859 90.4347 409.859 90.2V69.4C409.859 69.1653 409.933 68.9733 410.083 68.824C410.232 68.6747 410.424 68.6 410.659 68.6H425.603C425.837 68.6 426.029 68.6747 426.179 68.824C426.328 68.9733 426.403 69.1653 426.403 69.4V72.408C426.403 72.6427 426.328 72.8347 426.179 72.984C426.029 73.1333 425.837 73.208 425.603 73.208H415.395V77.528H424.899C425.133 77.528 425.325 77.6133 425.475 77.784C425.624 77.9333 425.699 78.1253 425.699 78.36V81.144C425.699 81.3573 425.624 81.5493 425.475 81.72C425.325 81.8693 425.133 81.944 424.899 81.944H415.395V86.392H425.859C426.093 86.392 426.285 86.4667 426.435 86.616C426.584 86.7653 426.659 86.9573 426.659 87.192V90.2C426.659 90.4347 426.584 90.6267 426.435 90.776C426.285 90.9253 426.093 91 425.859 91H410.659Z" fill="#D38C88"/>
<defs>
<filter id="filter0_d_67_13" x="27.8195" y="11.6979" width="664.181" height="137.606" filterUnits="userSpaceOnUse" color-interpolation-filters="sRGB">
<feFlood flood-opacity="0" result="BackgroundImageFix"/>
<feColorMatrix in="SourceAlpha" type="matrix" values="0 0 0 0 0 0 0 0 0 0 0 0 0 0 0 0 0 0 127 0" result="hardAlpha"/>
<feOffset dy="2"/>
<feGaussianBlur stdDeviation="12"/>
<feColorMatrix type="matrix" values="0 0 0 0 0.345098 0 0 0 0 0.494118 0 0 0 0 0.92549 0 0 0 0.15 0"/>
<feBlend mode="normal" in2="BackgroundImageFix" result="effect1_dropShadow_67_13"/>
<feBlend mode="normal" in="SourceGraphic" in2="effect1_dropShadow_67_13" result="shape"/>
</filter>
</defs>
</svg>
