<svg width="769" height="164" viewBox="0 0 769 164" fill="none" xmlns="http://www.w3.org/2000/svg">
<path d="M617.114 106.491C607.11 93.284 611.294 77.1675 626.459 70.494L680.053 46.9098C695.218 40.2363 715.622 45.533 725.626 58.7402L750.886 92.0862C760.89 105.293 756.706 121.41 741.541 128.083L687.947 151.668C672.782 158.341 652.378 153.044 642.374 139.837L617.114 106.491Z" fill="#2E263C"/>
<rect width="62.2126" height="54.4475" rx="16" transform="matrix(0.915297 -0.402779 0.603812 0.797127 0 119.058)" fill="#2E263C"/>
<path d="M337.609 13.1238C353.842 16.4391 362.547 31.798 357.052 47.4288L351.857 62.2061C346.362 77.8369 328.748 87.8205 312.514 84.5052L277.648 77.3845C261.415 74.0691 252.709 58.7103 258.204 43.0795L263.399 28.3022C268.894 12.6714 286.509 2.68773 302.742 6.00307L337.609 13.1238Z" fill="#2E263C"/>
<g filter="url(#filter0_d_65_72)">
<rect x="39" y="38.8191" width="654" height="89.1765" rx="16" fill="white"/>
</g>
<path d="M201.42 95C201.156 95 200.94 94.916 200.772 94.748C200.604 94.58 200.52 94.364 200.52 94.1V70.7C200.52 70.436 200.604 70.22 200.772 70.052C200.94 69.884 201.156 69.8 201.42 69.8H217.944C218.208 69.8 218.424 69.884 218.592 70.052C218.784 70.22 218.88 70.436 218.88 70.7V74.336C218.88 74.6 218.784 74.816 218.592 74.984C218.424 75.152 218.208 75.236 217.944 75.236H206.856V80.528H217.224C217.488 80.528 217.704 80.624 217.872 80.816C218.064 80.984 218.16 81.2 218.16 81.464V85.064C218.16 85.304 218.064 85.52 217.872 85.712C217.704 85.88 217.488 85.964 217.224 85.964H206.856V94.1C206.856 94.364 206.772 94.58 206.604 94.748C206.436 94.916 206.22 95 205.956 95H201.42ZM224.933 95C224.741 95 224.561 94.928 224.393 94.784C224.249 94.616 224.177 94.436 224.177 94.244C224.177 94.124 224.189 94.016 224.213 93.92L232.673 70.808C232.745 70.544 232.889 70.316 233.105 70.124C233.345 69.908 233.669 69.8 234.077 69.8H239.405C239.813 69.8 240.125 69.908 240.341 70.124C240.581 70.316 240.737 70.544 240.809 70.808L249.233 93.92C249.281 94.016 249.305 94.124 249.305 94.244C249.305 94.436 249.221 94.616 249.053 94.784C248.909 94.928 248.729 95 248.513 95H244.085C243.725 95 243.449 94.916 243.257 94.748C243.089 94.556 242.981 94.388 242.933 94.244L241.529 90.572H231.917L230.549 94.244C230.501 94.388 230.393 94.556 230.225 94.748C230.057 94.916 229.769 95 229.361 95H224.933ZM233.393 85.388H240.089L236.705 75.884L233.393 85.388ZM258.082 95C257.818 95 257.602 94.916 257.434 94.748C257.266 94.58 257.182 94.364 257.182 94.1V70.7C257.182 70.436 257.266 70.22 257.434 70.052C257.602 69.884 257.818 69.8 258.082 69.8H262.834C263.074 69.8 263.278 69.884 263.446 70.052C263.638 70.22 263.734 70.436 263.734 70.7V89.564H274.606C274.87 89.564 275.086 89.66 275.254 89.852C275.446 90.02 275.542 90.236 275.542 90.5V94.1C275.542 94.364 275.446 94.58 275.254 94.748C275.086 94.916 274.87 95 274.606 95H258.082ZM284.603 95C284.339 95 284.123 94.916 283.955 94.748C283.787 94.58 283.703 94.364 283.703 94.1V70.7C283.703 70.436 283.787 70.22 283.955 70.052C284.123 69.884 284.339 69.8 284.603 69.8H301.415C301.679 69.8 301.895 69.884 302.063 70.052C302.231 70.22 302.315 70.436 302.315 70.7V74.084C302.315 74.348 302.231 74.564 302.063 74.732C301.895 74.9 301.679 74.984 301.415 74.984H289.931V79.844H300.623C300.887 79.844 301.103 79.94 301.271 80.132C301.439 80.3 301.523 80.516 301.523 80.78V83.912C301.523 84.152 301.439 84.368 301.271 84.56C301.103 84.728 300.887 84.812 300.623 84.812H289.931V89.816H301.703C301.967 89.816 302.183 89.9 302.351 90.068C302.519 90.236 302.603 90.452 302.603 90.716V94.1C302.603 94.364 302.519 94.58 302.351 94.748C302.183 94.916 301.967 95 301.703 95H284.603ZM334.771 95.36C332.491 95.36 330.535 94.988 328.903 94.244C327.295 93.5 326.035 92.408 325.123 90.968C324.235 89.528 323.743 87.74 323.647 85.604C323.623 84.62 323.611 83.564 323.611 82.436C323.611 81.308 323.623 80.228 323.647 79.196C323.743 77.108 324.247 75.344 325.159 73.904C326.071 72.44 327.343 71.336 328.975 70.592C330.607 69.824 332.539 69.44 334.771 69.44C336.355 69.44 337.819 69.644 339.163 70.052C340.507 70.436 341.683 71.012 342.691 71.78C343.699 72.524 344.479 73.436 345.031 74.516C345.607 75.572 345.907 76.772 345.931 78.116C345.955 78.332 345.883 78.512 345.715 78.656C345.571 78.8 345.391 78.872 345.175 78.872H340.315C340.003 78.872 339.763 78.812 339.595 78.692C339.427 78.548 339.283 78.296 339.163 77.936C338.827 76.664 338.275 75.8 337.507 75.344C336.763 74.864 335.839 74.624 334.735 74.624C333.415 74.624 332.371 74.996 331.603 75.74C330.835 76.46 330.415 77.672 330.343 79.376C330.271 81.344 330.271 83.36 330.343 85.424C330.415 87.128 330.835 88.352 331.603 89.096C332.371 89.816 333.415 90.176 334.735 90.176C335.839 90.176 336.775 89.936 337.543 89.456C338.311 88.976 338.851 88.112 339.163 86.864C339.259 86.504 339.391 86.264 339.559 86.144C339.751 86 340.003 85.928 340.315 85.928H345.175C345.391 85.928 345.571 86 345.715 86.144C345.883 86.288 345.955 86.468 345.931 86.684C345.907 88.028 345.607 89.24 345.031 90.32C344.479 91.376 343.699 92.288 342.691 93.056C341.683 93.8 340.507 94.376 339.163 94.784C337.819 95.168 336.355 95.36 334.771 95.36ZM365.052 95.36C362.844 95.36 360.924 95 359.292 94.28C357.66 93.56 356.388 92.48 355.476 91.04C354.564 89.576 354.06 87.752 353.964 85.568C353.94 84.536 353.928 83.504 353.928 82.472C353.928 81.44 353.94 80.396 353.964 79.34C354.06 77.18 354.564 75.368 355.476 73.904C356.412 72.416 357.696 71.3 359.328 70.556C360.96 69.812 362.868 69.44 365.052 69.44C367.212 69.44 369.108 69.812 370.74 70.556C372.396 71.3 373.692 72.416 374.628 73.904C375.564 75.368 376.068 77.18 376.14 79.34C376.188 80.396 376.212 81.44 376.212 82.472C376.212 83.504 376.188 84.536 376.14 85.568C376.044 87.752 375.54 89.576 374.628 91.04C373.716 92.48 372.444 93.56 370.812 94.28C369.18 95 367.26 95.36 365.052 95.36ZM365.052 90.176C366.324 90.176 367.356 89.792 368.148 89.024C368.964 88.256 369.396 87.032 369.444 85.352C369.492 84.296 369.516 83.3 369.516 82.364C369.516 81.428 369.492 80.456 369.444 79.448C369.396 78.32 369.18 77.408 368.796 76.712C368.436 75.992 367.932 75.464 367.284 75.128C366.636 74.792 365.892 74.624 365.052 74.624C364.236 74.624 363.504 74.792 362.856 75.128C362.208 75.464 361.692 75.992 361.308 76.712C360.924 77.408 360.708 78.32 360.66 79.448C360.636 80.456 360.624 81.428 360.624 82.364C360.624 83.3 360.636 84.296 360.66 85.352C360.732 87.032 361.164 88.256 361.956 89.024C362.748 89.792 363.78 90.176 365.052 90.176ZM386.325 95C386.061 95 385.845 94.916 385.677 94.748C385.509 94.58 385.425 94.364 385.425 94.1V70.7C385.425 70.436 385.509 70.22 385.677 70.052C385.845 69.884 386.061 69.8 386.325 69.8H390.141C390.549 69.8 390.837 69.896 391.005 70.088C391.197 70.256 391.317 70.388 391.365 70.484L400.149 84.344V70.7C400.149 70.436 400.233 70.22 400.401 70.052C400.569 69.884 400.785 69.8 401.049 69.8H405.369C405.633 69.8 405.849 69.884 406.017 70.052C406.185 70.22 406.269 70.436 406.269 70.7V94.1C406.269 94.34 406.185 94.556 406.017 94.748C405.849 94.916 405.633 95 405.369 95H401.517C401.133 95 400.845 94.904 400.653 94.712C400.485 94.52 400.377 94.388 400.329 94.316L391.545 80.996V94.1C391.545 94.364 391.461 94.58 391.293 94.748C391.125 94.916 390.909 95 390.645 95H386.325ZM426.636 95.36C424.428 95.36 422.508 95 420.876 94.28C419.244 93.56 417.972 92.48 417.06 91.04C416.148 89.576 415.644 87.752 415.548 85.568C415.524 84.536 415.512 83.504 415.512 82.472C415.512 81.44 415.524 80.396 415.548 79.34C415.644 77.18 416.148 75.368 417.06 73.904C417.996 72.416 419.28 71.3 420.912 70.556C422.544 69.812 424.452 69.44 426.636 69.44C428.796 69.44 430.692 69.812 432.324 70.556C433.98 71.3 435.276 72.416 436.212 73.904C437.148 75.368 437.652 77.18 437.724 79.34C437.772 80.396 437.796 81.44 437.796 82.472C437.796 83.504 437.772 84.536 437.724 85.568C437.628 87.752 437.124 89.576 436.212 91.04C435.3 92.48 434.028 93.56 432.396 94.28C430.764 95 428.844 95.36 426.636 95.36ZM426.636 90.176C427.908 90.176 428.94 89.792 429.732 89.024C430.548 88.256 430.98 87.032 431.028 85.352C431.076 84.296 431.1 83.3 431.1 82.364C431.1 81.428 431.076 80.456 431.028 79.448C430.98 78.32 430.764 77.408 430.38 76.712C430.02 75.992 429.516 75.464 428.868 75.128C428.22 74.792 427.476 74.624 426.636 74.624C425.82 74.624 425.088 74.792 424.44 75.128C423.792 75.464 423.276 75.992 422.892 76.712C422.508 77.408 422.292 78.32 422.244 79.448C422.22 80.456 422.208 81.428 422.208 82.364C422.208 83.3 422.22 84.296 422.244 85.352C422.316 87.032 422.748 88.256 423.54 89.024C424.332 89.792 425.364 90.176 426.636 90.176ZM456.405 95.36C454.005 95.36 452.013 95.024 450.429 94.352C448.845 93.656 447.645 92.756 446.829 91.652C446.013 90.548 445.581 89.372 445.533 88.124C445.533 87.932 445.605 87.764 445.749 87.62C445.917 87.452 446.109 87.368 446.325 87.368H450.861C451.197 87.368 451.449 87.428 451.617 87.548C451.809 87.668 451.977 87.824 452.121 88.016C452.313 88.376 452.577 88.724 452.913 89.06C453.273 89.396 453.729 89.672 454.281 89.888C454.857 90.08 455.565 90.176 456.405 90.176C457.797 90.176 458.841 89.96 459.537 89.528C460.257 89.096 460.617 88.508 460.617 87.764C460.617 87.236 460.425 86.804 460.041 86.468C459.657 86.108 459.033 85.796 458.169 85.532C457.329 85.244 456.201 84.956 454.785 84.668C452.961 84.284 451.401 83.792 450.105 83.192C448.833 82.568 447.861 81.764 447.189 80.78C446.517 79.772 446.181 78.524 446.181 77.036C446.181 75.572 446.589 74.264 447.405 73.112C448.245 71.96 449.409 71.06 450.897 70.412C452.385 69.764 454.149 69.44 456.189 69.44C457.845 69.44 459.297 69.656 460.545 70.088C461.817 70.52 462.885 71.096 463.749 71.816C464.613 72.536 465.261 73.304 465.693 74.12C466.149 74.912 466.389 75.692 466.413 76.46C466.413 76.652 466.341 76.832 466.197 77C466.053 77.144 465.873 77.216 465.657 77.216H460.905C460.641 77.216 460.413 77.168 460.221 77.072C460.029 76.976 459.861 76.82 459.717 76.604C459.573 76.076 459.189 75.62 458.565 75.236C457.965 74.828 457.173 74.624 456.189 74.624C455.133 74.624 454.305 74.816 453.705 75.2C453.129 75.56 452.841 76.124 452.841 76.892C452.841 77.372 452.997 77.792 453.309 78.152C453.645 78.512 454.185 78.824 454.929 79.088C455.697 79.352 456.741 79.628 458.061 79.916C460.245 80.324 462.009 80.84 463.353 81.464C464.697 82.064 465.681 82.856 466.305 83.84C466.929 84.8 467.241 86.012 467.241 87.476C467.241 89.108 466.773 90.524 465.837 91.724C464.925 92.9 463.653 93.8 462.021 94.424C460.389 95.048 458.517 95.36 456.405 95.36ZM486.217 95.36C483.937 95.36 481.981 94.988 480.349 94.244C478.741 93.5 477.481 92.408 476.569 90.968C475.681 89.528 475.189 87.74 475.093 85.604C475.069 84.62 475.057 83.564 475.057 82.436C475.057 81.308 475.069 80.228 475.093 79.196C475.189 77.108 475.693 75.344 476.605 73.904C477.517 72.44 478.789 71.336 480.421 70.592C482.053 69.824 483.985 69.44 486.217 69.44C487.801 69.44 489.265 69.644 490.609 70.052C491.953 70.436 493.129 71.012 494.137 71.78C495.145 72.524 495.925 73.436 496.477 74.516C497.053 75.572 497.353 76.772 497.377 78.116C497.401 78.332 497.329 78.512 497.161 78.656C497.017 78.8 496.837 78.872 496.621 78.872H491.761C491.449 78.872 491.209 78.812 491.041 78.692C490.873 78.548 490.729 78.296 490.609 77.936C490.273 76.664 489.721 75.8 488.953 75.344C488.209 74.864 487.285 74.624 486.181 74.624C484.861 74.624 483.817 74.996 483.049 75.74C482.281 76.46 481.861 77.672 481.789 79.376C481.717 81.344 481.717 83.36 481.789 85.424C481.861 87.128 482.281 88.352 483.049 89.096C483.817 89.816 484.861 90.176 486.181 90.176C487.285 90.176 488.221 89.936 488.989 89.456C489.757 88.976 490.297 88.112 490.609 86.864C490.705 86.504 490.837 86.264 491.005 86.144C491.197 86 491.449 85.928 491.761 85.928H496.621C496.837 85.928 497.017 86 497.161 86.144C497.329 86.288 497.401 86.468 497.377 86.684C497.353 88.028 497.053 89.24 496.477 90.32C495.925 91.376 495.145 92.288 494.137 93.056C493.129 93.8 491.953 94.376 490.609 94.784C489.265 95.168 487.801 95.36 486.217 95.36ZM516.498 95.36C514.29 95.36 512.37 95 510.738 94.28C509.106 93.56 507.834 92.48 506.922 91.04C506.01 89.576 505.506 87.752 505.41 85.568C505.386 84.536 505.374 83.504 505.374 82.472C505.374 81.44 505.386 80.396 505.41 79.34C505.506 77.18 506.01 75.368 506.922 73.904C507.858 72.416 509.142 71.3 510.774 70.556C512.406 69.812 514.314 69.44 516.498 69.44C518.658 69.44 520.554 69.812 522.186 70.556C523.842 71.3 525.138 72.416 526.074 73.904C527.01 75.368 527.514 77.18 527.586 79.34C527.634 80.396 527.658 81.44 527.658 82.472C527.658 83.504 527.634 84.536 527.586 85.568C527.49 87.752 526.986 89.576 526.074 91.04C525.162 92.48 523.89 93.56 522.258 94.28C520.626 95 518.706 95.36 516.498 95.36ZM516.498 90.176C517.77 90.176 518.802 89.792 519.594 89.024C520.41 88.256 520.842 87.032 520.89 85.352C520.938 84.296 520.962 83.3 520.962 82.364C520.962 81.428 520.938 80.456 520.89 79.448C520.842 78.32 520.626 77.408 520.242 76.712C519.882 75.992 519.378 75.464 518.73 75.128C518.082 74.792 517.338 74.624 516.498 74.624C515.682 74.624 514.95 74.792 514.302 75.128C513.654 75.464 513.138 75.992 512.754 76.712C512.37 77.408 512.154 78.32 512.106 79.448C512.082 80.456 512.07 81.428 512.07 82.364C512.07 83.3 512.082 84.296 512.106 85.352C512.178 87.032 512.61 88.256 513.402 89.024C514.194 89.792 515.226 90.176 516.498 90.176Z" fill="#D38C88"/>
<defs>
<filter id="filter0_d_65_72" x="15" y="16.8191" width="702" height="137.177" filterUnits="userSpaceOnUse" color-interpolation-filters="sRGB">
<feFlood flood-opacity="0" result="BackgroundImageFix"/>
<feColorMatrix in="SourceAlpha" type="matrix" values="0 0 0 0 0 0 0 0 0 0 0 0 0 0 0 0 0 0 127 0" result="hardAlpha"/>
<feOffset dy="2"/>
<feGaussianBlur stdDeviation="12"/>
<feColorMatrix type="matrix" values="0 0 0 0 0.345098 0 0 0 0 0.494118 0 0 0 0 0.92549 0 0 0 0.15 0"/>
<feBlend mode="normal" in2="BackgroundImageFix" result="effect1_dropShadow_65_72"/>
<feBlend mode="normal" in="SourceGraphic" in2="effect1_dropShadow_65_72" result="shape"/>
</filter>
</defs>
</svg>
