<svg width="30" height="31" viewBox="0 0 30 31" fill="none" xmlns="http://www.w3.org/2000/svg">
<path d="M15.0033 7.64953C10.7468 7.64953 7.31344 11.0679 7.31344 15.3058C7.31344 19.5437 10.7468 22.962 15.0033 22.962C19.2599 22.962 22.6933 19.5437 22.6933 15.3058C22.6933 11.0679 19.2599 7.64953 15.0033 7.64953ZM15.0033 20.2833C12.2527 20.2833 10.0039 18.0511 10.0039 15.3058C10.0039 12.5605 12.246 10.3282 15.0033 10.3282C17.7607 10.3282 20.0028 12.5605 20.0028 15.3058C20.0028 18.0511 17.754 20.2833 15.0033 20.2833ZM24.8015 7.33635C24.8015 8.3292 23.9983 9.12214 23.0078 9.12214C22.0106 9.12214 21.2142 8.32254 21.2142 7.33635C21.2142 6.35017 22.0173 5.55056 23.0078 5.55056C23.9983 5.55056 24.8015 6.35017 24.8015 7.33635ZM29.8946 9.1488C29.7808 6.75663 29.232 4.63767 27.4718 2.89186C25.7184 1.14605 23.5901 0.599646 21.1874 0.479705C18.7111 0.339773 11.2889 0.339773 8.8126 0.479705C6.41662 0.592982 4.28834 1.13938 2.52817 2.88519C0.767987 4.63101 0.225878 6.74997 0.10541 9.14213C-0.0351366 11.6076 -0.0351366 18.9973 0.10541 21.4628C0.219186 23.8549 0.767987 25.9739 2.52817 27.7197C4.28834 29.4655 6.40993 30.0119 8.8126 30.1319C11.2889 30.2718 18.7111 30.2718 21.1874 30.1319C23.5901 30.0186 25.7184 29.4722 27.4718 27.7197C29.2253 25.9739 29.7741 23.8549 29.8946 21.4628C30.0351 18.9973 30.0351 11.6143 29.8946 9.1488ZM26.6955 24.1081C26.1735 25.4142 25.1629 26.4203 23.8444 26.9468C21.8701 27.7264 17.1852 27.5465 15.0033 27.5465C12.8215 27.5465 8.12995 27.7197 6.1623 26.9468C4.85053 26.427 3.83993 25.4208 3.31121 24.1081C2.52817 22.1424 2.70887 17.4781 2.70887 15.3058C2.70887 13.1335 2.53486 8.46247 3.31121 6.50342C3.83324 5.1974 4.84384 4.19122 6.1623 3.66481C8.13664 2.88519 12.8215 3.06511 15.0033 3.06511C17.1852 3.06511 21.8767 2.89186 23.8444 3.66481C25.1562 4.18456 26.1668 5.19073 26.6955 6.50342C27.4785 8.46913 27.2978 13.1335 27.2978 15.3058C27.2978 17.4781 27.4785 22.1491 26.6955 24.1081Z" fill="#E5E5E5"/>
</svg>
